<?xml version="1.0" standalone="no"?>
<!DOCTYPE svg PUBLIC "-//W3C//DTD SVG 1.1//EN" "http://www.w3.org/Graphics/SVG/1.1/DTD/svg11.dtd" >
<svg>
<metadata>
Created by FontForge 20090914 at Fri Dec 16 08:32:58 2022
 By www-data
Copyright (c) 2010, Kimberly Geswein (kimberlygeswein.com)
</metadata>
<defs>
<font id="LaBelleAurore" horiz-adv-x="343" >
  <font-face 
    font-family="La Belle Aurore"
    font-weight="400"
    font-stretch="normal"
    units-per-em="1024"
    panose-1="2 0 0 0 0 0 0 0 0 0"
    ascent="819"
    descent="-205"
    x-height="363.999"
    cap-height="662"
    bbox="-357 -794.96 1232 1235"
    underline-thickness="51"
    underline-position="-52"
    unicode-range="U+0020-U+FB02"
  />
<missing-glyph horiz-adv-x="512" 
 />
    <glyph glyph-name=".notdef" horiz-adv-x="512" 
 />
    <glyph glyph-name="space" unicode=" " horiz-adv-x="512" 
 />
    <glyph glyph-name="space" unicode="&#xa0;" horiz-adv-x="512" 
 />
    <glyph glyph-name="exclam" unicode="!" horiz-adv-x="387" 
d="M135 65c0 1.33301 1.66797 3.66602 5.00098 6.99902s6 5.33301 8 6c2.66699 0.666992 7.66699 1.16699 15 1.5s15.166 0.833008 23.499 1.5s16.166 1.16699 23.499 1.5s12.333 0.5 15 0.5c0 -18.667 -3.16699 -36.167 -9.5 -52.5s-20.166 -26.5 -41.499 -30.5
c-8.66699 -1.33301 -15.5 0.666992 -20.5 6s-8.83301 12 -11.5 20s-4.5 15.833 -5.5 23.5s-1.5 12.834 -1.5 15.501zM173.001 432c0 20 2.33203 39.168 6.99902 57.501s10.334 36.166 17.001 53.499s13.834 34.666 21.501 51.999s14.5 35 20.5 53
c2.66699 8 7.16699 22.5 13.5 43.5l20 66.5l19.5 66.5c6 21 10 35.5 12 43.5c2.66699 18.667 11.167 31.834 25.5 39.501s29.5 11.5 45.5 11.5c0 -48 -7.16699 -93.5 -21.5 -136.5s-30.833 -85.167 -49.5 -126.5l-54.5 -124.5
c-17.667 -41.667 -29.834 -85.167 -36.501 -130.5h-6c-22.667 0 -34 10.333 -34 31z" />
    <glyph glyph-name="quotedbl" unicode="&#x22;" horiz-adv-x="362" 
d="M18 719c0 18.667 2.50098 39.166 7.50098 61.499s13 43 24 62s24.833 34.833 41.5 47.5s36.667 19 60 19c0 -18 -3.5 -35 -10.5 -51s-14.667 -31.833 -23 -47.5s-16 -31.334 -23 -47.001s-10.5 -32.167 -10.5 -49.5c0 -7.33301 1.5 -13.166 4.5 -17.499
s6.16699 -8.5 9.5 -12.5s6.5 -8.33301 9.5 -13s4.5 -10.667 4.5 -18c0 -3.33301 -0.166992 -7 -0.5 -11s-1.33301 -7.66699 -3 -11s-4.33398 -5.83301 -8.00098 -7.5s-9.16699 -1.83398 -16.5 -0.500977c-15.333 2.66699 -27.5 6.83398 -36.5 12.501s-15.667 12.5 -20 20.5
s-7 17.333 -8 28s-1.5 22.334 -1.5 35.001zM213.001 777.999c0 19.333 2.50098 37.666 7.50098 54.999s12.5 32.5 22.5 45.5s23 23.333 39 31s35 11.5 57 11.5c0 -18.667 -5 -33.667 -15 -45s-20.333 -23.666 -31 -36.999s-19.334 -30.333 -26.001 -51s-7 -50 -1 -88
c0 -2 -1.66699 -4.66699 -5 -8s-6 -5 -8 -5c-11.333 0 -19.833 3.66699 -25.5 11s-9.5 15.833 -11.5 25.5s-3 19.667 -3 30v24.5z" />
    <glyph glyph-name="numbersign" unicode="#" horiz-adv-x="720" 
d="M303 350c-12.667 -13.333 -21.498 -26.3281 -26.498 -38.9951s-8.33301 -24.334 -10 -35.001s-2.33398 -19.834 -2.00098 -27.501s-0.333984 -13 -2.00098 -16s-5.33398 -3.16699 -11.001 -0.5s-15.167 9 -28.5 19l5 105h-181c-1.33301 0 -3.5 2.66699 -6.5 8
s-5.16699 9.33301 -6.5 12c0 0.666992 -0.166992 1.66699 -0.5 3s-0.5 2.66602 -0.5 3.99902c0 13.333 5.16699 21.5 15.5 24.5s23.5 4.33301 39.5 4s33.667 -1.33301 53 -3s38.166 -0.666992 56.499 3s35 11.5 50 23.5s26.167 31.333 33.5 58h-208c-4 0 -7 1.5 -9 4.5
s-3.66699 6.5 -5 10.5s-2.16602 7.83301 -2.49902 11.5s-0.5 6.16699 -0.5 7.5c50 0 91.833 2 125.5 6s62.334 13.167 86.001 27.5s44.334 35.5 62.001 63.5s35.834 66.333 54.501 115h6c9.33301 0 17.333 -1.66699 24 -5s10 -9.66602 10 -18.999
c0 -13.333 -2.5 -25.833 -7.5 -37.5s-10.667 -22.834 -17 -33.501s-12 -20.834 -17 -30.501s-7.5 -19.167 -7.5 -28.5c36.667 0 66 6 88 18s39.833 28.333 53.5 49s25 45.167 34 73.5l28.5 91.5h42c0 -15.333 -3.66699 -32.166 -11 -50.499s-15.666 -37 -24.999 -56l-27 -55
c-8.66699 -17.667 -14.667 -33.167 -18 -46.5c1.33301 0 3.33301 -0.166992 6 -0.5s4.66699 -0.5 6 -0.5c21.333 0 42.166 2.5 62.499 7.5s41.166 7.5 62.499 7.5c13.333 0 24.333 -1 33 -3s13 -10.667 13 -26c0 -1.33301 -0.166992 -3.33301 -0.5 -6s-0.833008 -4 -1.5 -4
l-195 -39c-8 -2 -14.833 -8.5 -20.5 -19.5s-10.667 -23.667 -15 -38s-7.83301 -28.333 -10.5 -42l-6 -30.5h147c0 -6 -0.833008 -13.333 -2.5 -22s-6.5 -14.334 -14.5 -17.001c-4.66699 0 -13.167 -0.5 -25.5 -1.5s-25.333 -2.16699 -39 -3.5l-39.5 -4
c-12.667 -1.33301 -21.334 -2.33301 -26.001 -3c-14.667 -2.66699 -25 -9.33398 -31 -20.001s-11 -22 -15 -34s-8.83301 -22.667 -14.5 -32s-15.5 -14 -29.5 -14v86h-81zM442.002 532.005c-17.333 0 -33.501 -1.33301 -48.501 -4s-28.333 -7.83398 -40 -15.501
s-20.834 -18.167 -27.501 -31.5s-10 -31 -10 -53h107c0.666992 0 2.5 3.33301 5.5 10s5.16699 12 6.5 16c1.33301 2.66699 3.33301 7.83398 6 15.501l8.5 23.5c3 8 5.66699 15.667 8 23s3.83301 12.333 4.5 15c-1.33301 0 -4.66602 0.166992 -9.99902 0.5
s-8.66602 0.5 -9.99902 0.5z" />
    <glyph glyph-name="dollar" unicode="$" horiz-adv-x="589" 
d="M168 -24c0.666992 4.66699 1.17285 8.99512 1.50586 12.9951s1.16602 8 2.49902 12c-26.667 4 -50.334 12.833 -71.001 26.5s-38.167 30.667 -52.5 51s-25.166 42.833 -32.499 67.5s-11 49.667 -11 75c0 10.667 0.666992 22.5 2 35.5s4.33301 24.833 9 35.5
s11.5 19.667 20.5 27s21.167 11 36.5 11c0 -8.66699 -0.833008 -16.667 -2.5 -24s-3.66699 -14.666 -6 -21.999s-4.33301 -15.166 -6 -23.499s-2.5 -17.5 -2.5 -27.5c0 -44.667 10.167 -83.167 30.5 -115.5s51.833 -53.166 94.5 -62.499l19 111l21 125l22.5 132l22.5 131
c-13.333 17.333 -24.5 33.666 -33.5 48.999s-13.5 29 -13.5 41c0.666992 22 8.16699 41.333 22.5 58s33.166 29.667 56.499 39l14 85c3.33301 13.333 6.83301 22 10.5 26s8.16699 6 13.5 6c9.33301 0 14 -10.667 14 -32c-0.666992 -6.66699 -1.5 -16.167 -2.5 -28.5
s-2.5 -26.833 -4.5 -43.5c28 4.66699 60 5 96 1l10 51c3.33301 13.333 6.66602 22 9.99902 26s7.66602 6 12.999 6c9.33301 0 14 -10.667 14 -32l-6 -60c13.333 -3.33301 27 -7.33301 41 -12s27.667 -10 41 -16c18 -5.33301 28.333 -12 31 -20s1.66699 -16.333 -3 -25
s-11.334 -17.167 -20.001 -25.5s-15.334 -15.166 -20.001 -20.499c-7.33301 15.333 -17.833 27.5 -31.5 36.5s-29.167 15.167 -46.5 18.5l-16 -105.5c-6 -39 -13 -81.167 -21 -126.5c24.667 -25.333 46 -49.166 64 -71.499s27 -41.5 27 -57.5
c0 -68.667 -14.5 -127.667 -43.5 -177s-70.167 -86.666 -123.5 -111.999l-18 -92c-1.33301 -9.33301 -4.83301 -17 -10.5 -23s-11.167 -9 -16.5 -9c-3.33301 0 -5.83301 3.5 -7.5 10.5s-2.5 14.167 -2.5 21.5v16l9 58c-30 -8.66699 -63.667 -13.667 -101 -15l-7 -39
c-1.33301 -8.66699 -5 -16.167 -11 -22.5s-11.333 -9.5 -16 -9.5c-3.33301 0 -5.83301 3.5 -7.5 10.5s-2.5 14.167 -2.5 21.5v16zM383.006 423.995l-38.5 42.001l-38.5 42l-38 -219c-14 -78 -29 -157 -45 -237c13.333 0.666992 29.333 4.16699 48 10.5s37 13.166 55 20.499z
M316.006 572.996c10.667 -12.667 22.833 -26 36.5 -40l41.5 -44l34 198c-17.333 0.666992 -34.5 -0.5 -51.5 -3.5s-32.167 -7.16699 -45.5 -12.5zM461.005 296.996c0 11.333 -3.50195 23.5 -10.502 36.5s-16.167 27.167 -27.5 42.5l-23 -132.5
c-8 -45 -16.667 -91.167 -26 -138.5l21 12c14.667 8 26.334 19.167 35.001 33.5s15.334 30 20.001 47s7.66699 34.333 9 52s2 33.5 2 47.5z" />
    <glyph glyph-name="percent" unicode="%" horiz-adv-x="635" 
d="M168 27v6.50098c0 3 0.333008 4.83301 1 5.5l246 428c0.666992 0 1.16699 2.83301 1.5 8.5s0.5 10.167 0.5 13.5c0 21.333 -5 36 -15 44s-27.333 12 -52 12c-46 0 -81.833 -4.83301 -107.5 -14.5s-45 -21.834 -58 -36.501s-22 -30.334 -27 -47.001
s-10.333 -32.334 -16 -47.001s-13.334 -26.834 -23.001 -36.501s-25.834 -14.5 -48.501 -14.5c-16.667 0 -30.5 5.66699 -41.5 17s-16.5 25 -16.5 41c0 37.333 11.167 68.333 33.5 93s49.666 44.167 81.999 58.5s66.333 24.5 102 30.5s67.167 9 94.5 9
c14.667 0 29.834 -0.666992 45.501 -2s29.834 -4.66602 42.501 -9.99902s23 -13.166 31 -23.499s12 -24.5 12 -42.5c0 -19.333 -1 -36.166 -3 -50.499s-5.66699 -32.5 -11 -54.5l-46.5 -94.5l-52 -102.5c-18.333 -34.667 -37.666 -68.5 -57.999 -101.5
s-41.5 -63.167 -63.5 -90.5l-14.5 -18.5c-4.33301 -5.66699 -10.5 -8.5 -18.5 -8.5c-7.33301 0 -12.5 2.83301 -15.5 8.5s-4.5 12.167 -4.5 19.5zM427 77.001c0 19.333 4.49805 36.834 13.498 52.501s20 30.167 33 43.5s27.167 26 42.5 38s29.333 24 42 36
c1.33301 0 3.33301 0.166992 6 0.5s4.66699 0.5 6 0.5c8.66699 0 15.667 -2.16699 21 -6.5s9.5 -9.83301 12.5 -16.5s5 -14 6 -22s1.5 -15.333 1.5 -22c0 -15.333 -3.16699 -32 -9.5 -50s-14.666 -34.833 -24.999 -50.5s-22.666 -28.834 -36.999 -39.501
s-29.5 -16 -45.5 -16c-19.333 0 -35.333 3.5 -48 10.5s-19 20.833 -19 41.5zM549.998 183.002c-14 0 -25.666 -2.83301 -34.999 -8.5s-16.833 -13 -22.5 -22s-9.83398 -19.333 -12.501 -31s-4 -23.167 -4 -34.5c9.33301 0 18.5 3.5 27.5 10.5s17 15.5 24 25.5
s12.5 20.5 16.5 31.5s6 20.5 6 28.5z" />
    <glyph glyph-name="ampersand" unicode="&#x26;" horiz-adv-x="570" 
d="M195 130c-16 0.666992 -34.5039 3.33203 -55.5039 7.99902s-41 11.834 -60 21.501s-35 22.167 -48 37.5s-19.5 34 -19.5 56c0 12 3 21.167 9 27.5s13.5 10.833 22.5 13.5s18.667 4.16699 29 4.5s19.5 0.5 27.5 0.5c22.667 0 40.5 -1.5 53.5 -4.5
s22.833 -7.16699 29.5 -12.5s11.334 -11.333 14.001 -18l9 -22c3.33301 -8 7.83301 -16 13.5 -24s14.834 -15.667 27.501 -23c9.33301 6 18.5 17.333 27.5 34s17.667 35.5 26 56.5s16.5 43 24.5 66s16 44 24 63s15.667 34.667 23 47s15 18.5 23 18.5
c6.66699 0 11.667 -1.83301 15 -5.5s5.5 -8.16699 6.5 -13.5s1.33301 -10.833 1 -16.5s-0.5 -10.5 -0.5 -14.5c0 -3.33301 -0.166992 -8.66602 -0.5 -15.999s-0.833008 -11.666 -1.5 -12.999l-90 -181v-11c22.667 0 45.334 6.16699 68.001 18.5s44 26 64 41l54.5 41.5
c16.333 12.667 29.5 19 39.5 19c0 -21.333 -6 -40.333 -18 -57s-27.167 -31.5 -45.5 -44.5s-38.166 -24.5 -59.499 -34.5s-41.5 -18.833 -60.5 -26.5l-48 -20c-13 -5.66699 -20.167 -11.167 -21.5 -16.5l-38 -130c0 -0.666992 -1.5 -1 -4.5 -1h-6.5
c-3.33301 0 -8 0.666992 -14 2s-12 3.16602 -18 5.49902s-11.167 5.16602 -15.5 8.49902s-6.5 7 -6.5 11v104zM72.9961 250.998c0 -11.333 4.49902 -20.5 13.499 -27.5s19.5 -12.5 31.5 -16.5s24.167 -7 36.5 -9s21.5 -3 27.5 -3c0 0.666992 0.166992 1.66699 0.5 3
s0.5 2.33301 0.5 3c0 11.333 -4.66699 20.333 -14 27s-20.166 11.667 -32.499 15s-24.5 5.5 -36.5 6.5s-21 1.5 -27 1.5z" />
    <glyph glyph-name="quotesingle" unicode="'" horiz-adv-x="282" 
d="M262 486c0 -10 -1.16309 -20.332 -3.49609 -30.999s-6.5 -20.667 -12.5 -30s-14 -17 -24 -23s-22.667 -9 -38 -9c0 9.33301 1 17.833 3 25.5s4.33301 15.334 7 23.001s5 15.667 7 24s3 17.5 3 27.5c0 20 -3.33301 35.833 -10 47.5s-13.834 21 -21.501 28
s-14.834 12.5 -21.501 16.5s-10 8.66699 -10 14c0 6 1.83301 11.667 5.5 17s10.167 8 19.5 8c18 0 33.167 -5.16699 45.5 -15.5s22.166 -22.833 29.499 -37.5s12.666 -29.834 15.999 -45.501s5 -28.834 5 -39.501z" />
    <glyph glyph-name="parenleft" unicode="(" horiz-adv-x="240" 
d="M18 135c0 14.667 2.50293 36.499 7.50293 65.499s11.833 60.833 20.5 95.5s19.167 70 31.5 106s26.166 68.667 41.499 98s31.666 53.5 48.999 72.5s35.666 28.5 54.999 28.5c0 -21.333 -1.66699 -37.333 -5 -48s-7.83301 -19.667 -13.5 -27s-12.167 -15 -19.5 -23
s-15 -20 -23 -36l-33 -73c-10.667 -24.667 -20.5 -49.5 -29.5 -74.5s-16.167 -50.5 -21.5 -76.5s-8 -52.333 -8 -79c0 -23.333 3.5 -42.666 10.5 -57.999s14.667 -28.333 23 -39s16 -19.5 23 -26.5s10.5 -13.833 10.5 -20.5c0 -8 -2.66699 -13.5 -8 -16.5
s-11.333 -4.5 -18 -4.5c-18.667 0 -34 4.5 -46 13.5s-21.5 20.167 -28.5 33.5s-11.833 28 -14.5 44s-4 31 -4 45z" />
    <glyph glyph-name="parenright" unicode=")" horiz-adv-x="331" 
d="M13 13c33.333 21.333 64.3389 45.332 93.0059 71.999s53.5 55.834 74.5 87.501s37.5 65.334 49.5 101.001s18 73.167 18 112.5c0 34 -4.5 66 -13.5 96s-22.167 59.333 -39.5 88c-4 7.33301 -9.16699 12.666 -15.5 15.999l-18.5 9.5c-6 3 -11.167 7 -15.5 12
s-6.5 12.5 -6.5 22.5c38 0 68.333 -10 91 -30s40 -44.667 52 -74s19.833 -61.166 23.5 -95.499s5.5 -65.5 5.5 -93.5c0 -16 -4.83301 -35.5 -14.5 -58.5s-22.334 -47 -38.001 -72s-33.334 -49.833 -53.001 -74.5s-39.834 -46.834 -60.501 -66.501
s-40.834 -35.667 -60.501 -48s-36.834 -18.5 -51.501 -18.5c-5.33301 0 -9.33301 1 -12 3s-5.33398 5.66699 -8.00098 11z" />
    <glyph glyph-name="asterisk" unicode="*" horiz-adv-x="707" 
d="M221 195c-6 -5.33301 -14.001 -11.668 -24.001 -19.001s-20.333 -11 -31 -11c0 13.333 1.83301 25.833 5.5 37.5s7.83398 23.334 12.501 35.001s8.83398 23.5 12.501 35.5s5.5 24.667 5.5 38h-175c-5.33301 0 -9.16602 2.5 -11.499 7.5s-3.5 9.16699 -3.5 12.5v3
c0 0.666992 0.333008 1.66699 1 3c10 0.666992 23.167 1.66699 39.5 3s33.166 3.33301 50.499 6s34.166 6.5 50.499 11.5s30.166 11.167 41.499 18.5v2c0 0.666992 0.166992 1.16699 0.5 1.5s0.5 0.833008 0.5 1.5c0 9.33301 -1.5 17.833 -4.5 25.5s-6.5 15 -10.5 22
s-7.5 13.833 -10.5 20.5s-4.5 13.667 -4.5 21c8 0 15.333 -2.16699 22 -6.5s13 -9.16602 19 -14.499s12.167 -10.166 18.5 -14.499s13.5 -6.5 21.5 -6.5c6 0 11.333 5.16699 16 15.5s9.16699 23.333 13.5 39l14 51c5 18.333 11 35.333 18 51s14.833 28.667 23.5 39
s19.334 15.5 32.001 15.5v-94c8 16 19 28 33 36s29.333 12 46 12c0 -14 -3.5 -28.833 -10.5 -44.5s-15.5 -31 -25.5 -46s-20.333 -29 -31 -42l-26 -32.5c2.66699 0 8.16699 -0.166992 16.5 -0.5s13.833 -0.5 16.5 -0.5c25.333 0 50.833 1.5 76.5 4.5
s51.334 6.16699 77.001 9.5s51.5 6.5 77.5 9.5s52 4.5 78 4.5c0 -6.66699 -6.83301 -13.334 -20.5 -20.001s-31.334 -13.167 -53.001 -19.5s-45.667 -12.333 -72 -18l-77.5 -16.5c-25.333 -5.33301 -48.666 -10.666 -69.999 -15.999s-37.666 -10.333 -48.999 -15
c11.333 -15.333 26.666 -28.833 45.999 -40.5l57 -35.5c18.667 -12 34.834 -25.333 48.501 -40s20.5 -33 20.5 -55c-21.333 0 -41.333 4.66699 -60 14s-36.834 20.5 -54.501 33.5l-53 39.5c-17.667 13.333 -36.5 24 -56.5 32c-4 -9.33301 -6.5 -22 -7.5 -38
s-2.33301 -31.833 -4 -47.5s-4.66699 -29.167 -9 -40.5s-12.5 -17 -24.5 -17c-4 0 -7.83301 1.5 -11.5 4.5s-6.83398 6.66699 -9.50098 11s-5 8.66602 -7 12.999s-3.33301 8.16602 -4 11.499z" />
    <glyph glyph-name="plus" unicode="+" horiz-adv-x="499" 
d="M168 168c0 18 1.99707 35.5029 5.99707 52.5029s6 34.167 6 51.5h-141c-10 0 -17.333 2.83301 -22 8.5s-7 12.167 -7 19.5c0 2 0.333008 4.33301 1 7s1.33398 4 2.00098 4l195 39c4 0.666992 7.5 3.66699 10.5 9s5.66699 11.166 8 17.499s4 12.166 5 17.499l1.5 8
c0.666992 2.66699 1.83398 7.83398 3.50098 15.501s3.16699 15.5 4.5 23.5l4 23c1.33301 7.33301 2 12.666 2 15.999h3c0.666992 0 1.16699 0.166992 1.5 0.5s0.833008 0.5 1.5 0.5c11.333 0 21.833 -4.83301 31.5 -14.5s14.5 -20.167 14.5 -31.5
c0 -4.66699 -1.16699 -10.167 -3.5 -16.5s-5 -12.833 -8 -19.5l-9 -19.5c-3 -6.33301 -5.16699 -11.5 -6.5 -15.5c3.33301 0 9 -0.333008 17 -1s13.333 -1 16 -1c28 0 55.333 2.5 82 7.5s54 7.5 82 7.5c6 0 11.833 -1.66699 17.5 -5s8.5 -8.66602 8.5 -15.999
c0 -4 -3.16699 -7.66699 -9.5 -11s-13.5 -6.5 -21.5 -9.5s-15.5 -5.5 -22.5 -7.5s-11.5 -3 -13.5 -3c-6.66699 -1.33301 -18 -3.33301 -34 -6s-32.833 -5.33398 -50.5 -8.00098l-50.5 -7.5c-16 -2.33301 -27 -3.83301 -33 -4.5l-39 -156c-2 -7.33301 -5.5 -11.5 -10.5 -12.5
s-10.167 -1.5 -15.5 -1.5c-13.333 0 -21.166 3.66699 -23.499 11s-3.5 16.666 -3.5 27.999z" />
    <glyph glyph-name="comma" unicode="," horiz-adv-x="303" 
d="M213 95c0 10 -0.999023 17.834 -2.99902 23.501s-4 10.834 -6 15.501s-4 9.66699 -6 15s-3 12.666 -3 21.999c12 0 24.667 -2 38 -6s23.666 -11.667 30.999 -23c0 -2 0.166992 -5.5 0.5 -10.5l1 -15.5l1 -15.5c0.333008 -5 0.5 -8.5 0.5 -10.5
c0 -24.667 -6.16699 -50 -18.5 -76s-28.666 -49.833 -48.999 -71.5s-43.333 -39.334 -69 -53.001s-51.834 -20.5 -78.501 -20.5c0 9.33301 4 18.666 12 27.999s18 19 30 29l38.5 31.5c13.667 11 26.5 23.167 38.5 36.5s22 28.333 30 45s12 35.334 12 56.001z" />
    <glyph glyph-name="hyphen" unicode="-" horiz-adv-x="419" 
d="M76 260c18 2 37.5 4.50293 58.5 7.50293l64.5 9c22 3 43.833 5.5 65.5 7.5s42.167 3 61.5 3c5.33301 0 11 0.166992 17 0.5s11.833 -0.333984 17.5 -2.00098s10.834 -4.33398 15.501 -8.00098s8 -9.5 10 -17.5c-4 -7.33301 -12 -13.833 -24 -19.5
s-26.333 -10.5 -43 -14.5s-34.334 -7.16699 -53.001 -9.5s-36 -4.33301 -52 -6s-29.833 -2.66699 -41.5 -3s-18.5 -0.5 -20.5 -0.5c-6 0 -13.333 0.5 -22 1.5s-17 2.66699 -25 5s-14.833 5.16602 -20.5 8.49902s-8.5 7 -8.5 11v27z" />
    <glyph glyph-name="period" unicode="." horiz-adv-x="264" 
d="M140 82l25.499 0.000976562c10.333 0 20.5 -1 30.5 -3s18.667 -5.33301 26 -10s11 -12 11 -22c0 -14.667 -4 -26.334 -12 -35.001s-19.333 -13 -34 -13h-10.5c-5 0 -10.167 0.5 -15.5 1.5s-10.166 2.5 -14.499 4.5s-6.5 4.66699 -6.5 8v69z" />
    <glyph glyph-name="slash" unicode="/" horiz-adv-x="454" 
d="M18 34c0 10 1.16797 18.5 3.50098 25.5s10.166 13.167 23.499 18.5l25 43.5l38.5 66.5l45.5 78l46 78l39.5 66.5c11.667 19.667 20.5 34.167 26.5 43.5c6.66699 11.333 16 25.833 28 43.5s25 35.667 39 54s28.667 36.166 44 53.499s30 31.666 44 42.999
c1.33301 0.666992 4 1.5 8 2.5s6.66699 1.5 8 1.5c0 -10 -4.5 -24.667 -13.5 -44s-20.5 -40.833 -34.5 -64.5s-29.667 -48.5 -47 -74.5l-51 -76l-45.5 -69c-13.667 -21.333 -24.167 -38.666 -31.5 -51.999c-8 -14 -17.833 -32.833 -29.5 -56.5s-24.5 -48 -38.5 -73
s-28.5 -49.333 -43.5 -73s-29.833 -42.5 -44.5 -56.5c-2 -2 -6.33301 -4.66699 -13 -8s-10.667 -5 -12 -5c-4 0 -7.16699 1.5 -9.5 4.5s-3.83301 6.33301 -4.5 10s-1 7.33398 -1 11.001v8.5z" />
    <glyph glyph-name="zero" unicode="0" horiz-adv-x="467" 
d="M12 130c0 0.666992 0.166992 2.50195 0.5 5.50195s0.5 5.16699 0.5 6.5l47 145c16.667 50 36.5 98.167 59.5 144.5s49.833 89.666 80.5 129.999s67.334 74.166 110.001 101.499c8 0 13.167 -0.666992 15.5 -2s6.16602 -5.66602 11.499 -12.999
c16.667 -22 31.5 -42.5 44.5 -61.5s23.833 -38.333 32.5 -58s15.334 -40.667 20.001 -63s7 -47.833 7 -76.5c-0.666992 -30 -6.33398 -61.167 -17.001 -93.5s-25.167 -63.5 -43.5 -93.5s-39.833 -58 -64.5 -84s-51.334 -47.833 -80.001 -65.5s-58.667 -30.334 -90 -38.001
s-62.666 -8.16699 -93.999 -1.5c-8.66699 6 -15.5 13.667 -20.5 23s-9 19.5 -12 30.5s-5 22.167 -6 33.5s-1.5 21.333 -1.5 30zM78 96.002c0 -5.33301 1.33496 -9.33398 4.00195 -12.001s6 -4.5 10 -5.5s8.33301 -1.5 13 -1.5h13c38 0 72.833 11.667 104.5 35
s59.167 52.333 82.5 87s41.5 71.5 54.5 110.5s19.5 74.167 19.5 105.5c0 21.333 -0.833008 39.833 -2.5 55.5s-5.33398 30.167 -11.001 43.5s-13.834 26.5 -24.501 39.5s-25 27.167 -43 42.5c-16.667 -12 -33.834 -30.333 -51.501 -55s-34.667 -52.5 -51 -83.5
s-31.666 -64 -45.999 -99s-26.833 -69 -37.5 -102s-19 -63.667 -25 -92s-9 -51.166 -9 -68.499z" />
    <glyph glyph-name="one" unicode="1" horiz-adv-x="279" 
d="M18 26c0 1.33301 0.166016 3.49707 0.499023 6.49707s0.5 5.16699 0.5 6.5l47 133l51 149l51 148.5c16.667 48.333 32.667 92.5 48 132.5c5.33301 11.333 10.833 18.666 16.5 21.999s13.167 5 22.5 5c18 0 27 -9 27 -27c-1.33301 -15.333 -6 -39.666 -14 -72.999
s-20 -74.666 -36 -123.999s-36.167 -105.833 -60.5 -169.5s-53.5 -133.5 -87.5 -209.5c-2.66699 -7.33301 -9.16699 -13.666 -19.5 -18.999s-18.833 -8 -25.5 -8c-7.33301 0 -12.666 2.83301 -15.999 8.5s-5 11.834 -5 18.501z" />
    <glyph glyph-name="two" unicode="2" horiz-adv-x="531" 
d="M24 39c0 2 0.329102 6.16797 0.996094 12.501s1.33398 10.833 2.00098 13.5c38.667 32.667 71.834 63.334 99.501 92.001s53.167 57.834 76.5 87.501s46.333 61.334 69 95.001l78 114.5c16 32 23.5 53.5 22.5 64.5s-7.5 15.167 -19.5 12.5s-28.167 -10 -48.5 -22
l-65 -37.5c-23 -13 -45.833 -24.667 -68.5 -35s-42 -14.833 -58 -13.5c0 10 5.16699 21.167 15.5 33.5s23.666 24.833 39.999 37.5s34.5 25.167 54.5 37.5s39.833 23.333 59.5 33s37.834 17.5 54.501 23.5s30 9 40 9c8 0 15.833 -1.5 23.5 -4.5s14.5 -7.16699 20.5 -12.5
s11 -11.5 15 -18.5s6 -14.5 6 -22.5c0 -23.333 -5.83301 -48 -17.5 -74s-26.167 -51.667 -43.5 -77s-36.166 -50.166 -56.499 -74.499l-56.5 -66.5c-17.333 -20 -31.833 -37.5 -43.5 -52.5s-17.5 -25.833 -17.5 -32.5c24.667 -16.667 48 -31.334 70 -44.001
c18.667 -11.333 36.667 -21.333 54 -30s29.666 -13 36.999 -13c13.333 0 25.5 2.16699 36.5 6.5s21.667 8 32 11s21 4 32 3s23.5 -6.83301 37.5 -17.5c0 -0.666992 -2.5 -3 -7.5 -7l-17.5 -14.5c-6.66699 -5.66699 -13.834 -11.334 -21.501 -17.001l-18.5 -13.5
c-26 -16.667 -50.333 -23.834 -73 -21.501s-44.667 8.83301 -66 19.5s-42.5 23 -63.5 37s-42.5 24.333 -64.5 31c-18 0 -31.167 -4.83301 -39.5 -14.5s-15.666 -20.334 -21.999 -32.001s-13.166 -22.334 -20.499 -32.001s-18.666 -14.5 -33.999 -14.5
c-14.667 0 -24 3.33301 -28 10s-6 16.667 -6 30z" />
    <glyph glyph-name="three" unicode="3" horiz-adv-x="577" 
d="M19 156c0 7.33301 3.50098 11.502 10.501 12.502s12.167 1.5 15.5 1.5c10 0 18.5 -3 25.5 -9s13.5 -13.333 19.5 -22s11.667 -18.334 17 -29.001s11.5 -20.334 18.5 -29.001s15.167 -16 24.5 -22s21 -9 35 -9c34.667 0 67.834 7.5 99.501 22.5s59.5 35 83.5 60
s43.167 53.667 57.5 86s21.5 65.5 21.5 99.5c0 14.667 -3.33301 28.167 -10 40.5s-18.667 18.5 -36 18.5c-0.666992 0 -1.66699 -0.166992 -3 -0.5s-2.33301 -0.5 -3 -0.5c-2 -0.666992 -6.83301 -3 -14.5 -7l-24.5 -13c-8.66699 -4.66699 -16.834 -8.83398 -24.501 -12.501
s-12.5 -5.83398 -14.5 -6.50098c-1.33301 -0.666992 -4.66602 -0.166992 -9.99902 1.5s-10.833 3.83398 -16.5 6.50098s-11 5.5 -16 8.5s-7.83301 5.83301 -8.5 8.5c10 15.333 24.333 32 43 50l58 53.5l56 50.5c17.333 16 29.666 29.667 36.999 41
c0 18 -4.5 27.833 -13.5 29.5s-20.667 -0.166016 -35 -5.49902s-30.333 -12.333 -48 -21s-35.5 -14 -53.5 -16h-3c-0.666992 0 -1.66699 0.333008 -3 1s-3.83301 2.16699 -7.5 4.5l-11.5 7.5l-11.5 7.5c-3.66699 2.33301 -6.16699 4.16602 -7.5 5.49902
c11.333 14 25 27.5 41 40.5s33.167 24.167 51.5 33.5s37 16.833 56 22.5s37.5 8.5 55.5 8.5c13.333 0 25.166 -0.666992 35.499 -2s19 -4.16602 26 -8.49902s12.333 -10.666 16 -18.999s5.5 -19.833 5.5 -34.5c0 -2 -0.666992 -5.16699 -2 -9.5s-5.33301 -12.5 -12 -24.5
s-17.167 -28.833 -31.5 -50.5s-34.5 -50.5 -60.5 -86.5c8 -6 15.833 -13 23.5 -21s14.667 -16.833 21 -26.5s11.5 -19.667 15.5 -30s6 -20.833 6 -31.5c0 -42.667 -8.66699 -84 -26 -124s-40.5 -75.333 -69.5 -106s-62.667 -55.334 -101 -74.001s-78.833 -28 -121.5 -28
c-23.333 0 -45.5 3.33301 -66.5 10s-39.667 16.667 -56 30s-29.333 29.833 -39 49.5s-14.5 42.167 -14.5 67.5z" />
    <glyph glyph-name="four" unicode="4" horiz-adv-x="603" 
d="M169 13c14 17.333 27.6689 37.332 41.002 59.999l39 69.5c12.667 23.667 24.167 46.834 34.5 69.501l27.5 60v3c0 1.33301 0.166992 2.16602 0.5 2.49902s0.5 0.833008 0.5 1.5c0 10.667 -5.16699 18.334 -15.5 23.001s-22.166 7.66699 -35.499 9
s-26.5 1.83301 -39.5 1.5s-22.167 -0.5 -27.5 -0.5c-25.333 0 -44.5 -4.16699 -57.5 -12.5s-23.5 -17.5 -31.5 -27.5l-22.5 -27.5c-7 -8.33301 -17.167 -12.5 -30.5 -12.5c-9.33301 0 -18.333 3 -27 9s-13 14 -13 24c0 4.66699 5.83301 16.667 17.5 36
s26.667 41.833 45 67.5l60.5 81.5c22 28.667 43.5 55.167 64.5 79.5s39.833 44.333 56.5 60s28.667 23.5 36 23.5c0 -18.667 -3.66699 -37.667 -11 -57s-16.5 -39 -27.5 -59s-23 -40.167 -36 -60.5s-24.833 -40.5 -35.5 -60.5c0 -0.666992 3.5 -1.5 10.5 -2.5
s15.333 -2.33301 25 -4s19.5 -3.16699 29.5 -4.5s18.333 -2.33301 25 -3h42c1.33301 0 4.5 -0.333008 9.5 -1s10.333 -0.666992 16 0s10.834 2 15.501 4s7.66699 5.66699 9 11c2 5.33301 5.66699 13.5 11 24.5l18 37l21.5 43l22 43l18.5 36.5l12 24l21.5 39.5
c6.33301 11.667 13.166 21.667 20.499 30s16 14.666 26 18.999s23 6.5 39 6.5c0 -5.33301 -3.16699 -15.166 -9.5 -29.499s-13.5 -29.5 -21.5 -45.5l-23 -45c-7.33301 -14 -12 -23.333 -14 -28c-0.666992 -4.66699 -3.66699 -12.167 -9 -22.5l-18.5 -35l-22 -41
c-7.66699 -14.333 -14.334 -27.5 -20.001 -39.5s-9.5 -22 -11.5 -30s-1 -12.667 3 -14c11.333 0 21.166 2.66699 29.499 8s18.166 8 29.499 8c7.33301 0 14.5 -1.33301 21.5 -4s10.5 -8.66699 10.5 -18c0 -10 -3.5 -17.833 -10.5 -23.5s-15.833 -10.334 -26.5 -14.001
s-22.667 -7.16699 -36 -10.5s-26.333 -7.33301 -39 -12s-24.167 -11 -34.5 -19s-17.833 -18.333 -22.5 -31l-21 -62.5c-8.66699 -26.333 -19.167 -52.166 -31.5 -77.499s-27 -47.333 -44 -66s-36.5 -28 -58.5 -28c-6 0 -11.333 0.5 -16 1.5s-8 5.16699 -10 12.5z" />
    <glyph glyph-name="five" unicode="5" horiz-adv-x="693" 
d="M12 87c0 3.33301 0.161133 9.50391 0.494141 18.5039s1 18.167 2 27.5s2.5 17.666 4.5 24.999s4.66699 11 8 11h25c3.33301 -20 7.5 -36.667 12.5 -50s11.833 -24.166 20.5 -32.499s19.667 -14.333 33 -18s30 -5.5 50 -5.5c31.333 0 61.333 5.5 90 16.5
s53.834 26.333 75.501 46s38.834 43 51.501 70s19 56.833 19 89.5c0 13.333 -0.833008 26.833 -2.5 40.5s-5 26.167 -10 37.5s-12.333 20.666 -22 27.999s-22.5 11 -38.5 11c-17.333 0 -30.666 -4.83301 -39.999 -14.5s-17.833 -20.167 -25.5 -31.5
s-15.5 -21.833 -23.5 -31.5s-19.333 -14.5 -34 -14.5c-11.333 0 -20.833 3.83301 -28.5 11.5s-11.5 17.167 -11.5 28.5v7c0 3.33301 0.333008 5 1 5l135 244l305 120c18.667 7.33301 32.834 7 42.501 -1s14.5 -18.667 14.5 -32c0 -7.33301 -7.66699 -14.5 -23 -21.5
s-34.833 -14.667 -58.5 -23l-79 -28.5c-29 -10.667 -57.167 -23.167 -84.5 -37.5s-52.166 -31 -74.499 -50s-38.5 -40.833 -48.5 -65.5c16.667 1.33301 34.334 1.66602 53.001 0.999023s35.667 -5.33398 51 -14.001c14.667 -13.333 25.667 -25.833 33 -37.5
s12.5 -23.5 15.5 -35.5s4.66699 -24.5 5 -37.5s0.5 -27.5 0.5 -43.5c0 -44 -6.5 -84.333 -19.5 -121s-32.167 -68.334 -57.5 -95.001s-56.333 -47.5 -93 -62.5s-78.667 -22.5 -126 -22.5c-14.667 0 -30.5 0.833008 -47.5 2.5s-33 5.5 -48 11.5s-27.5 14.833 -37.5 26.5
s-15 27.5 -15 47.5z" />
    <glyph glyph-name="six" unicode="6" horiz-adv-x="473" 
d="M18 130c0 12.667 0.667969 23.502 2.00098 32.502s5.66602 19.833 12.999 32.5l259 467h4c1.33301 0 2.5 0.166992 3.5 0.5s2.16699 0.5 3.5 0.5c9.33301 0 18.666 -1.66699 27.999 -5s14 -10.666 14 -21.999c0 -6.66699 -0.5 -11.667 -1.5 -15s-2.66699 -6.5 -5 -9.5
s-5.33301 -6.33301 -9 -10s-7.83398 -9.5 -12.501 -17.5l-94.5 -176.5c-30.333 -57.667 -63.5 -115.834 -99.5 -174.501c-10 -15.333 -19 -30.333 -27 -45s-12 -32.334 -12 -53.001c0 -15.333 2.66699 -27.5 8 -36.5s12.833 -15.833 22.5 -20.5
s20.834 -7.83398 33.501 -9.50098s26 -2.83398 40 -3.50098c-2.66699 4.66699 -4.66699 11.5 -6 20.5s-0.333008 23.5 3 43.5s9.66602 41.833 18.999 65.5s22.5 46 39.5 67s38.333 38.833 64 53.5s56.834 22.667 93.501 24c24 0 40.167 -4.83301 48.5 -14.5
s12.5 -26.167 12.5 -49.5c0 -33.333 -8.66699 -66.333 -26 -99s-39.666 -62 -66.999 -88s-58 -47.167 -92 -63.5s-68 -24.5 -102 -24.5c-23.333 0 -44.666 2.16699 -63.999 6.5s-35.833 11.5 -49.5 21.5s-24.334 23.333 -32.001 40s-11.5 37.334 -11.5 62.001z
M370.001 285.002c-15.333 -2.66699 -30.167 -10.665 -44.5 -23.998s-27 -28.833 -38 -46.5s-19.833 -35.334 -26.5 -53.001s-10 -32.5 -10 -44.5c0 -2 0.166992 -6.5 0.5 -13.5s0.833008 -11.167 1.5 -12.5c16 6 33.167 14.333 51.5 25s35.333 23 51 37s28.667 29.667 39 47
s15.5 35.666 15.5 54.999c0 11.333 -2 20 -6 26s-15.333 7.33301 -34 4z" />
    <glyph glyph-name="seven" unicode="7" horiz-adv-x="538" 
d="M148 20c0 1.33301 0.333984 2.33203 1.00098 2.99902c0 1.33301 0.333008 2.33301 1 3l123 261.5c42 86.333 87.333 172.166 136 257.499c1.33301 2.66699 3.33301 7.5 6 14.5s5.33398 14.667 8.00098 23s5 16.333 7 24s3.33301 13.167 4 16.5h-14
c-6.66699 0 -13.834 0.166992 -21.501 0.5s-15 0.5 -22 0.5h-14.5c-15.333 0 -32.333 -0.833008 -51 -2.5s-37.5 -4.16699 -56.5 -7.5s-37.667 -7.5 -56 -12.5s-34.5 -10.833 -48.5 -17.5c-11.333 -5.33301 -20.166 -11.5 -26.499 -18.5s-11.5 -13.833 -15.5 -20.5
s-7.66699 -13.167 -11 -19.5s-7.66602 -11.833 -12.999 -16.5s-12.5 -8.5 -21.5 -11.5s-21.167 -4.5 -36.5 -4.5h-7c10 10 19.5 22.167 28.5 36.5l27.5 44c9.33301 15 18.833 29.167 28.5 42.5s20.5 24 32.5 32c49.333 22.667 102.333 37.334 159 44.001
s111.667 9.33398 165 8.00098c12.667 -2 22.667 -4.5 30 -7.5s12.666 -7.16699 15.999 -12.5s5.5 -12 6.5 -20s1.5 -18 1.5 -30l-135 -280c-40.667 -80.667 -75.834 -147.834 -105.501 -201.501s-53 -93.167 -70 -118.5s-26.5 -35.666 -28.5 -30.999
c-6.66699 0 -12.834 1.5 -18.501 4.5s-8.5 8.16699 -8.5 15.5v1z" />
    <glyph glyph-name="eight" unicode="8" horiz-adv-x="525" 
d="M18 106c0 24 5.83301 48.8359 17.5 74.5029s25.667 50.334 42 74.001s33.5 46 51.5 67l46 54.5c-1.33301 8 -4 21.833 -8 41.5s-8 40.5 -12 62.5l-11.5 62.5c-3.66699 19.667 -6.16699 33.5 -7.5 41.5c-0.666992 0.666992 -1 1.66699 -1 3v4c0 14 5 27.833 15 41.5
s23 26.5 39 38.5s33.833 23 53.5 33s39.167 18.667 58.5 26s37.333 13 54 17s30.334 6 41.001 6c2.66699 0 9.5 -2 20.5 -6s22.667 -8.66699 35 -14s23.333 -11 33 -17s14.5 -11.333 14.5 -16c-1.33301 -26.667 -3.16602 -48.334 -5.49902 -65.001s-5 -29.667 -8 -39
s-5.66699 -15.833 -8 -19.5s-3.83301 -5.83398 -4.5 -6.50098c-6.66699 -13.333 -19.167 -30 -37.5 -50s-38.166 -40.5 -59.499 -61.5l-63 -61c-20.667 -19.667 -36.334 -35.5 -47.001 -47.5c6.66699 -15.333 12 -29 16 -41s6.66699 -23.833 8 -35.5
s2.16602 -23.667 2.49902 -36s0.5 -25.833 0.5 -40.5c0 -24.667 -2 -48.834 -6 -72.501s-11.333 -44.834 -22 -63.501s-25.334 -33.667 -44.001 -45s-42.334 -17 -71.001 -17c-19.333 0 -37.166 1.83301 -53.499 5.5s-30.333 9.66699 -42 18s-20.667 19.333 -27 33
s-9.5 30.5 -9.5 50.5zM84 123.003c0 -24 4.83496 -39.998 14.502 -47.998s24.834 -12 45.501 -12c14 0 27 4.33301 39 13s22.5 19.667 31.5 33s15.667 27.666 20 42.999s6.16602 29.666 5.49902 42.999c0 4 -1.66699 11 -5 21l-11 31.5c-4 11 -8.16699 21.333 -12.5 31
s-7.83301 16.167 -10.5 19.5c-12 -8 -24.833 -18.667 -38.5 -32s-26.334 -27.833 -38.001 -43.5s-21.334 -32.167 -29.001 -49.5s-11.5 -34 -11.5 -50zM214.002 596.005c0 -28 0.333008 -56.166 1 -84.499s9 -56.166 25 -83.499l181 156c-8.66699 4 -13 10.333 -13 19
c0 6.66699 2.16699 12.167 6.5 16.5s9 8.33301 14 12s9.66699 7.5 14 11.5s6.5 9.66699 6.5 17c0 15.333 -4.83301 23.833 -14.5 25.5s-21.167 2.5 -34.5 2.5c-16 0 -33.167 -2 -51.5 -6s-36 -9.83301 -53 -17.5s-32.667 -17.334 -47 -29.001s-25.833 -24.834 -34.5 -39.501
z" />
    <glyph glyph-name="nine" unicode="9" horiz-adv-x="479" 
d="M180 47v9.50586c0 4.33301 0.333008 7.16602 1 8.49902l168 414v10c-17.333 0 -35.333 -3.83301 -54 -11.5s-37.834 -16.167 -57.501 -25.5s-39.5 -17.833 -59.5 -25.5s-40.333 -11.5 -61 -11.5c-14 0 -26.667 3.66699 -38 11s-21 16.5 -29 27.5
s-14.167 23.167 -18.5 36.5s-6.5 25.666 -6.5 36.999c0 19.333 5.16699 37.833 15.5 55.5s24.166 33.834 41.499 48.501s36.833 27.834 58.5 39.501s43.834 21.667 66.501 30s44.667 14.666 66 18.999s40.333 6.5 57 6.5c8 0 17.833 -0.333008 29.5 -1
s23.5 -2.33398 35.5 -5.00098s23.333 -6.66699 34 -12s19 -12.333 25 -21c0 -2.66699 0.166992 -7.33398 0.5 -14.001s0.666016 -13.834 0.999023 -21.501l1 -22c0.333008 -7 0.5 -11.833 0.5 -14.5c0 -6.66699 -2.66699 -20.5 -8 -41.5s-12.666 -46.5 -21.999 -76.5
l-32 -99.5l-37.5 -110l-39.5 -107.5c-13.333 -34.667 -25.833 -65.334 -37.5 -92.001s-22.167 -48.167 -31.5 -64.5s-16.666 -24.5 -21.999 -24.5c-14.667 0 -26.167 4.66699 -34.5 14s-12.5 20.666 -12.5 33.999zM89 532.006c0 -10.667 0.832031 -18.8311 2.49902 -24.498
s4.5 -9.66699 8.5 -12s9.5 -3.5 16.5 -3.5h26.5c12 0 26.833 1.66699 44.5 5s36.167 8.16602 55.5 14.499s38.5 14.166 57.5 23.499s36 20 51 32s27.167 25.333 36.5 40s14 30.667 14 48c0 6 -2.83301 10.333 -8.5 13s-12.167 4.5 -19.5 5.5s-14.666 1.5 -21.999 1.5h-16
c-9.33301 0 -21.833 -1.66699 -37.5 -5s-32.667 -8 -51 -14s-36.833 -13.333 -55.5 -22s-35.667 -18.167 -51 -28.5s-27.833 -21.833 -37.5 -34.5s-14.5 -25.667 -14.5 -39z" />
    <glyph glyph-name="colon" unicode=":" horiz-adv-x="219" 
d="M94 239c0 24 5.5 39.333 16.5 46s29.167 10 54.5 10c0 -6.66699 0.333008 -15 1 -25s0.5 -19.667 -0.5 -29s-3.66699 -17.333 -8 -24s-11.833 -10 -22.5 -10c-12 0 -21.833 2 -29.5 6s-11.5 12.667 -11.5 26zM108 525c0 17.333 4.83398 29.501 14.501 36.501
s21.5 10.5 35.5 10.5h12.5c5 0 9.66699 -0.666992 14 -2s8 -3.33301 11 -6s4.5 -7 4.5 -13c0 -4 -1.33301 -9 -4 -15s-6 -12 -10 -18s-8.33301 -11.5 -13 -16.5s-9 -7.83301 -13 -8.5c-3.33301 -0.666992 -7.83301 -0.333984 -13.5 0.999023s-11.334 3.5 -17.001 6.5
s-10.667 6.66699 -15 11s-6.5 8.83301 -6.5 13.5z" />
    <glyph glyph-name="semicolon" unicode=";" horiz-adv-x="244" 
d="M134 -39c0 0.666992 0.669922 3 2.00293 7s2.66602 8.83301 3.99902 14.5l4 17c1.33301 5.66699 2.33301 10.167 3 13.5v7c0 6 -1.33301 11.5 -4 16.5s-5.83398 9.83301 -9.50098 14.5s-6.83398 9.5 -9.50098 14.5s-4 11.167 -4 18.5s1 14.833 3 22.5
s7.66699 11.5 17 11.5c14 0 25.667 -3.83301 35 -11.5s16.833 -17.167 22.5 -28.5s9.66699 -23.5 12 -36.5s3.5 -24.833 3.5 -35.5c0 -22 -6.16699 -44.333 -18.5 -67s-28 -43.167 -47 -61.5s-40 -33.333 -63 -45s-45.5 -17.5 -67.5 -17.5v17zM173.003 402
c15.333 0 26.002 -2.66699 32.002 -8s9 -15.333 9 -30c0 -24.667 -7.66699 -41 -23 -49s-34.333 -12 -57 -12v86c0 2.66699 1.66699 5 5 7s7.16602 3.33301 11.499 4s8.66602 1.16699 12.999 1.5s7.5 0.5 9.5 0.5z" />
    <glyph glyph-name="less" unicode="&#x3c;" horiz-adv-x="415" 
d="M5 227c0 7.33301 2.99902 13.668 8.99902 19.001s12 10 18 14l31.5 19l48 29.5l56.5 35l56.5 35l48 29.5c14.333 8.66699 24.833 15.334 31.5 20.001l21 14c6 4 12 7.16699 18 9.5s12.5 4.16602 19.5 5.49902s15.833 2 26.5 2c0 -16.667 -4.33301 -30 -13 -40
s-19.667 -20 -33 -30l-43.5 -28.5l-66.5 -43l-66 -43c-20.667 -13.667 -35.334 -22.834 -44.001 -27.501c-9.33301 -5.33301 -14 -12.333 -14 -21v-3c0 -0.666992 0.333008 -1.33398 1 -2.00098l246 -39c0 -1.33301 0.333008 -2.66602 1 -3.99902
c0 -1.33301 0.166992 -2.5 0.5 -3.5s0.5 -1.83301 0.5 -2.5c0 -18.667 -9.33301 -32.667 -28 -42h-12.5c-6.33301 0 -13 -0.166992 -20 -0.5s-13.5 -0.5 -19.5 -0.5h-13c-8.66699 0 -21.167 0.5 -37.5 1.5s-34.166 3 -53.499 6s-39 6.83301 -59 11.5
s-38.167 10.667 -54.5 18s-29.666 16 -39.999 26s-15.5 21.667 -15.5 35z" />
    <glyph glyph-name="equal" unicode="=" horiz-adv-x="389" 
d="M366 173c0 -6.66699 -1.1709 -12.6689 -3.50391 -18.002s-6.83301 -9.66602 -13.5 -12.999c-6.66699 -1.33301 -17 -3 -31 -5s-30 -4.16699 -48 -6.5s-36.833 -5 -56.5 -8s-38.334 -5.66699 -56.001 -8s-33.667 -4.66602 -48 -6.99902s-24.833 -3.83301 -31.5 -4.5
c-2 -0.666992 -7.16699 -1.16699 -15.5 -1.5s-13.166 -0.5 -14.499 -0.5c0 16 4.83301 28.5 14.5 37.5s21.5 15.5 35.5 19.5s28.5 6.5 43.5 7.5s28.167 1.83301 39.5 2.5c6.66699 0.666992 18.834 1.16699 36.501 1.5s36.334 0.833008 56.001 1.5s38.334 1.16699 56.001 1.5
s29.834 0.5 36.501 0.5zM50.9961 284.998c0.666992 0.666992 9.49902 2 26.499 4s37.167 4.5 60.5 7.5s47.5 5.83301 72.5 8.5s45.5 4.66699 61.5 6h34c4 0 8.5 0.166992 13.5 0.5s9.83301 0 14.5 -1s8.5 -2.83301 11.5 -5.5s4.5 -7 4.5 -13
c0 -1.33301 -0.166992 -2.66602 -0.5 -3.99902s-0.5 -2.33301 -0.5 -3c-40 -14.667 -83.833 -27.334 -131.5 -38.001s-93.167 -16 -136.5 -16c-11.333 0 -22.166 0.833008 -32.499 2.5s-17.833 10.167 -22.5 25.5z" />
    <glyph glyph-name="greater" unicode="&#x3e;" horiz-adv-x="440" 
d="M26 91c4.66699 12.667 13.1689 24.668 25.502 36.001s27 22 44 32s35.5 19 55.5 27s39.667 15.167 59 21.5s37.833 11.666 55.5 15.999s32.5 7.5 44.5 9.5c0 0.666992 0.166992 1.83398 0.5 3.50098s0.5 2.83398 0.5 3.50098c0 8.66699 -5 15.667 -15 21s-18 9 -24 11
c-8.66699 3.33301 -24 8.66602 -46 15.999l-70.5 23.5l-70.5 23.5c-22 7.33301 -37.333 12.333 -46 15c-10.667 13.333 -15.5 24.833 -14.5 34.5s5.5 17.167 13.5 22.5s18.167 8.66602 30.5 9.99902s24.666 0.833008 36.999 -1.5s23.166 -6.83301 32.499 -13.5
s15.333 -15.334 18 -26.001l232 -90c27.333 -11.333 41 -28.666 41 -51.999c0 -10.667 -3.5 -18.667 -10.5 -24s-15.5 -9 -25.5 -11s-20.167 -3.16699 -30.5 -3.5s-18.833 -0.5 -25.5 -0.5l-272 -117c-1.33301 0 -2.5 -0.166992 -3.5 -0.5s-2.16699 -0.5 -3.5 -0.5
c-6 0 -11.5 1.16699 -16.5 3.5s-10.167 5.83301 -15.5 10.5z" />
    <glyph glyph-name="question" unicode="?" horiz-adv-x="457" 
d="M113 45c0 10 3.49805 16.165 10.498 18.498s14.167 3.5 21.5 3.5c4.66699 0 10.834 -0.666992 18.501 -2s14.834 -3.66602 21.501 -6.99902s12.167 -7.66602 16.5 -12.999s5.5 -11.666 3.5 -18.999c-2.66699 -10.667 -8 -17.834 -16 -21.501s-15.667 -5.5 -23 -5.5
c-12.667 0 -24.667 4.5 -36 13.5s-17 19.833 -17 32.5zM189.998 341.998c0 36 6.66504 72.3379 19.998 109.005s29.833 72.667 49.5 108s40.834 69.333 63.501 102l63 91c0 0.666992 0.166992 1.66699 0.5 3s0.5 2.66602 0.5 3.99902c0 12 -5.16699 20.5 -15.5 25.5
s-20.166 7.5 -29.499 7.5c-16 0 -30.5 -2.83301 -43.5 -8.5s-25.667 -10.834 -38 -15.501s-25.166 -7.16699 -38.499 -7.5s-28 5.16699 -44 16.5c0 1.33301 3.5 4.66602 10.5 9.99902l25 18.5l30 21c10.333 7 18.833 12.5 25.5 16.5c11.333 6 24 9.66699 38 11
s27.333 2 40 2c28 0 50.333 -5.66699 67 -17s25 -32 25 -62c-2 -18.667 -9 -40.334 -21 -65.001s-26.167 -50.834 -42.5 -78.501l-52 -86c-18.333 -29.667 -34.333 -58.667 -48 -87s-24 -55.333 -31 -81s-7.16699 -48.5 -0.5 -68.5
c-6.66699 -4 -12.334 -7.16699 -17.001 -9.5s-10 -3.5 -16 -3.5s-10.5 1.66699 -13.5 5s-5 7.33301 -6 12s-1.5 9.5 -1.5 14.5v12.5z" />
    <glyph glyph-name="at" unicode="@" horiz-adv-x="726" 
d="M18 258c0 41.333 7.16895 81.3301 21.502 119.997s33.666 75 57.999 109s53 65.167 86 93.5s68.333 52.833 106 73.5s76.5 37.334 116.5 50.001s79.667 20 119 22c55.333 3.33301 99.666 -6.83398 132.999 -30.501s50 -61.5 50 -113.5
c0 -21.333 -2.5 -44.666 -7.5 -69.999s-12.167 -51 -21.5 -77s-21 -51.167 -35 -75.5s-29.833 -46 -47.5 -65s-37.334 -34.167 -59.001 -45.5s-45.167 -17 -70.5 -17c-14.667 0 -28 2.5 -40 7.5s-25 7.5 -39 7.5c-9.33301 0 -18.166 -2.83301 -26.499 -8.5
s-16.666 -11.667 -24.999 -18s-17.166 -12.333 -26.499 -18s-19.666 -8.5 -30.999 -8.5c-22.667 0 -39.334 4.16699 -50.001 12.5s-16 23.5 -16 45.5c0 29.333 7.66699 59.833 23 91.5s35.5 60.5 60.5 86.5s52.833 47.5 83.5 64.5s61.667 25.5 93 25.5
c10.667 0 20 -0.5 28 -1.5s16 -5.16699 24 -12.5c0 -2 0.166992 -5.5 0.5 -10.5l1 -15.5l1 -15.5c0.333008 -5 0.5 -8.5 0.5 -10.5c0 -18.667 -4 -34.167 -12 -46.5s-16.833 -23.666 -26.5 -33.999s-18.5 -21 -26.5 -32s-12 -24.5 -12 -40.5c33.333 0 63.5 8.66699 90.5 26
s50 39.5 69 66.5s33.5 56.833 43.5 89.5s15 64.667 15 96c0 40 -10.333 68.167 -31 84.5s-52 24.5 -94 24.5c-36.667 0 -74 -4.83301 -112 -14.5s-74.333 -23.667 -109 -42s-67.334 -40.166 -98.001 -65.499s-57.334 -53.666 -80.001 -84.999s-40.5 -65.166 -53.5 -101.499
s-19.5 -74.5 -19.5 -114.5c0 -35.333 7.33301 -66.333 22 -93s34 -49 58 -67s51.167 -31.667 81.5 -41s61.166 -14 92.499 -14c18.667 0 37 2.16699 55 6.5s36 9.16602 54 14.499s35.833 10.166 53.5 14.499s35.5 6.5 53.5 6.5c0 -19.333 -9.83301 -35 -29.5 -47
s-42.667 -21.333 -69 -28s-52.666 -11.334 -78.999 -14.001s-46.166 -4 -59.499 -4c-36 0 -71.333 6.16699 -106 18.5s-65.334 29.833 -92.001 52.5s-48.167 49.834 -64.5 81.501s-24.5 67.167 -24.5 106.5zM473.002 469.997c-25.333 0 -49.8359 -6.49805 -73.5029 -19.498
s-44.667 -29.833 -63 -50.5s-33 -43.667 -44 -69s-16.5 -50.333 -16.5 -75c17.333 0 32.333 3.83301 45 11.5s23.834 17.667 33.501 30s18.5 26.166 26.5 41.499s16.333 30.333 25 45s18.334 28.167 29.001 40.5s23.334 22.166 38.001 29.499v16z" />
    <glyph glyph-name="A" unicode="A" horiz-adv-x="878" 
d="M660 45c0 16.667 1.16602 33.3311 3.49902 49.998s5 33.167 8 49.5s5.66699 33 8 50s3.5 34.167 3.5 51.5c-22 0 -41 -1 -57 -3l-47 -6c-15.333 -2 -31.666 -3.5 -48.999 -4.5s-38.333 -0.833008 -63 0.5c-18 -20 -38.5 -41.333 -61.5 -64s-47.5 -43.667 -73.5 -63
s-53.333 -35.5 -82 -48.5s-57.667 -19.5 -87 -19.5c-20 0 -39.167 3.33301 -57.5 10s-34.5 16 -48.5 28s-25 26.5 -33 43.5s-12 35.833 -12 56.5c0 10.667 1.83301 18.834 5.5 24.501s11.5 8.5 23.5 8.5c6 0 11.333 -5.5 16 -16.5s10.834 -23.333 18.501 -37
s17.5 -26 29.5 -37s28.333 -16.5 49 -16.5c25.333 0 50.166 4.83301 74.499 14.5s47.666 22 69.999 37s43.333 31.833 63 50.5s37.5 37 53.5 55c-2 16.667 -8 29 -18 37l-31.5 24c-11 8 -20.833 18.667 -29.5 32s-13 34.333 -13 63c0 40.667 12.333 72.5 37 95.5
s58.334 34.5 101.001 34.5c12.667 0 25.167 -1.33301 37.5 -4s24.833 -5.83398 37.5 -9.50098s25.167 -6.83398 37.5 -9.50098s24.833 -4 37.5 -4c8 0 14.5 1 19.5 3s9.5 5 13.5 9s8.33301 9.33301 13 16s10.667 14.667 18 24l18.5 25.5l27.5 39l32 45.5l32 46l27 39
c8 11.333 13.667 20 17 26c7.33301 6 14 9.83301 20 11.5s13 2.5 21 2.5s14 -2.83301 18 -8.5s6.5 -12.5 7.5 -20.5s1.33301 -16.167 1 -24.5s-0.5 -14.833 -0.5 -19.5v-9.5c0 -4.33301 -0.166992 -8.83301 -0.5 -13.5s-0.5 -9.16699 -0.5 -13.5v-8.5
c-2 -6.66699 -5.16699 -16.667 -9.5 -30l-14.5 -45.5l-16.5 -53.5l-16 -54l-13.5 -46c-4 -13.333 -6.66699 -23.333 -8 -30c-0.666992 -3.33301 -1.66699 -8.66602 -3 -15.999s-2.66602 -15.166 -3.99902 -23.499s-2.66602 -16.166 -3.99902 -23.499s-2 -12.333 -2 -15
c6 -1.33301 12 -3.33301 18 -6s9 -7 9 -13c0 -6.66699 -2.5 -12 -7.5 -16s-10.833 -7.66699 -17.5 -11s-12.834 -7.33301 -18.501 -12s-8.83398 -11.334 -9.50098 -20.001l-7 -43.5c-3.33301 -21 -7.16602 -43.333 -11.499 -67l-12 -66.5
c-3.66699 -20.667 -6.5 -35 -8.5 -43c-0.666992 -2 -2 -5.66699 -4 -11s-4.33301 -10.666 -7 -15.999s-5.33398 -10.333 -8.00098 -15s-4.66699 -8 -6 -10c-16 3.33301 -29 7.5 -39 12.5s-15 15.833 -15 32.5zM642.999 428.997c-8 0 -19.166 -5.66211 -33.499 -16.9951
s-28.5 -24.5 -42.5 -39.5s-26.333 -30 -37 -45s-16 -26.167 -16 -33.5c4 0 11.833 0.166992 23.5 0.5s24 0.666016 37 0.999023s25.333 0.833008 37 1.5s19.834 1 24.501 1c2.66699 0 6.83398 0.666992 12.501 2l16.5 4c5.33301 1.33301 10.166 2.66602 14.499 3.99902
s6.83301 2.33301 7.5 3c0.666992 0 1 2.16699 1 6.5v10.5c0 5.33301 -0.833008 13.666 -2.5 24.999s-4.33398 22.666 -8.00098 33.999s-8.33398 21.166 -14.001 29.499s-12.5 12.5 -20.5 12.5zM362 428.002c0 -9.33301 3.33105 -19.998 9.99805 -31.998s15 -23.333 25 -34
s20.667 -19.667 32 -27s22 -11 32 -11c9.33301 0 20.333 5.66699 33 17s24.834 24.5 36.501 39.5s21.5 29.5 29.5 43.5s12 23.667 12 29c0 11.333 -3.83301 19.833 -11.5 25.5s-16.667 9.66699 -27 12s-21.166 3.5 -32.499 3.5h-28c-9.33301 0 -20.5 -0.833008 -33.5 -2.5
s-25.167 -4.83398 -36.5 -9.50098s-21 -11.334 -29 -20.001s-12 -20 -12 -34zM661.998 479.004c14.667 -17.333 28.333 -36 41 -56s24.667 -40.333 36 -61l89 320z" />
    <glyph glyph-name="B" unicode="B" horiz-adv-x="707" 
d="M233 -1c-12 2.66699 -25.3398 4.16895 -40.0068 4.50195s-29.667 1.16602 -45 2.49902s-30.166 3.5 -44.499 6.5s-26.666 8 -36.999 15s-18.166 16.5 -23.499 28.5s-6.66602 27.667 -3.99902 47l-5 15l-8.5 25l-8.5 24c-2.66699 7.33301 -4 12 -4 14
c-0.666992 4.66699 0.333008 9.33398 3 14.001s6 8.66699 10 12s8.33301 6.16602 13 8.49902s9 3.83301 13 4.5c0.666992 -2 1.83398 -6.5 3.50098 -13.5s4 -14.333 7 -22s6.5 -14.667 10.5 -21s8 -9.5 12 -9.5c2.66699 0 5.33398 1.33301 8.00098 4s6.5 8.66699 11.5 18
l20.5 40l35 69l55.5 107l82.5 153c6 10 16.833 22.833 32.5 38.5s34 32 55 49s43.667 34.167 68 51.5s48.333 33 72 47s45.834 25.333 66.501 34s37.667 13 51 13c5.33301 0 11.5 -0.166992 18.5 -0.5s11.5 -4.5 13.5 -12.5v-8.5c0 -4.33301 0.166992 -9 0.5 -14
s0.5 -9.66699 0.5 -14v-8.5c0 -24.667 -4 -46.834 -12 -66.501s-18.667 -37.667 -32 -54s-28.833 -32 -46.5 -47l-54.5 -46.5c0 -0.666992 -0.166992 -1.66699 -0.5 -3s-0.5 -2.66602 -0.5 -3.99902c0 -0.666992 4.16699 -5.83398 12.5 -15.501s17.333 -22 27 -37
s18.667 -32 27 -51s12.5 -38.5 12.5 -58.5c0 -42 -12.167 -83.167 -36.5 -123.5s-55 -76.5 -92 -108.5s-77.5 -57.667 -121.5 -77s-86 -29 -126 -29zM140.993 91.002c0 -9.33301 3.66992 -16.166 11.0029 -20.499s15.666 -7 24.999 -8s18.833 -1.16699 28.5 -0.5
s16.5 1 20.5 1c42 0 80 6.16699 114 18.5s64 30 90 53s48.5 50.5 67.5 82.5s34.833 67.667 47.5 107c0 1.33301 0.166992 4.5 0.5 9.5s0.5 8.16699 0.5 9.5c0 26 -3.83301 46.167 -11.5 60.5s-18.334 25 -32.001 32s-30.167 11.5 -49.5 13.5s-40.666 3.66699 -63.999 5
c-3.33301 0.666992 -8.16602 4.16699 -14.499 10.5s-9.83301 11.166 -10.5 14.499c-1.33301 3.33301 -0.333008 8.33301 3 15s6.33301 10.667 9 12c26.667 0.666992 54 6.5 82 17.5s53.5 25.833 76.5 44.5s41.833 40.667 56.5 66s22 52.666 22 81.999
c-24.667 0 -50.834 -8.5 -78.501 -25.5s-54.334 -37.667 -80.001 -62s-48.834 -50.166 -69.501 -77.499s-36.667 -51.333 -48 -72l-22.5 -43l-35 -66l-40.5 -78l-40 -78l-34 -67l-22 -44c-0.666992 -1.33301 -1.16699 -3.33301 -1.5 -6s-0.5 -4.66699 -0.5 -6z" />
    <glyph glyph-name="C" unicode="C" horiz-adv-x="442" 
d="M13 111c4.66699 38.667 13.0059 75.5 25.0059 110.5s26.667 69 44 102s36.666 65.5 57.999 97.5s44 64.333 68 97c14 18 29.333 36.333 46 55s34.667 35.667 54 51s40.166 27.833 62.499 37.5s45.833 14.5 70.5 14.5c13.333 0 23.666 -0.833008 30.999 -2.5
s12.833 -5 16.5 -10s5.83398 -12.167 6.50098 -21.5s0.666992 -21.333 0 -36c0 -16.667 -3 -33.667 -9 -51s-14.333 -33.666 -25 -48.999s-23.334 -28.833 -38.001 -40.5s-30.334 -20.167 -47.001 -25.5v14c0 14 3.16699 27.333 9.5 40s13.5 25.5 21.5 38.5
s15.167 26.5 21.5 40.5s9.5 29 9.5 45c-7.33301 0 -13.666 0.5 -18.999 1.5s-10.166 1.66699 -14.499 2s-8.66602 -0.333984 -12.999 -2.00098s-9.5 -5.16699 -15.5 -10.5c-32.667 -26.667 -66.167 -57.834 -100.5 -93.501s-65.5 -74.167 -93.5 -115.5
s-50.833 -84.5 -68.5 -129.5s-26.5 -90.167 -26.5 -135.5c0 -2 0.166992 -5.33301 0.5 -10l1 -14c0.333008 -4.66699 0.833008 -9 1.5 -13s1 -6.33301 1 -7c7.33301 -7.33301 16.166 -11.666 26.499 -12.999s18.166 -2 23.499 -2c28.667 0 55.5 5 80.5 15
s49.5 20.833 73.5 32.5s48.167 22.5 72.5 32.5s50.166 15 77.499 15c0 -10.667 -6.16699 -22.5 -18.5 -35.5s-28.333 -25.833 -48 -38.5s-41.5 -24.834 -65.5 -36.501s-47.5 -22.167 -70.5 -31.5s-44 -16.666 -63 -21.999s-33.5 -8 -43.5 -8
c-14.667 0 -29.334 2.83301 -44.001 8.5s-27.834 13.5 -39.501 23.5s-21.167 21.833 -28.5 35.5s-11 28.5 -11 44.5z" />
    <glyph glyph-name="D" unicode="D" horiz-adv-x="752" 
d="M6 26c0 10 3.33496 21.165 10.002 33.498s14.5 24 23.5 35s17.667 20.833 26 29.5s14.5 14.667 18.5 18l220 403c6.66699 5.33301 12.667 12.166 18 20.499s10.833 16.333 16.5 24s12 14.167 19 19.5s15.5 8 25.5 8c0 -10.667 -1.16699 -23.5 -3.5 -38.5
s-5.83301 -26.167 -10.5 -33.5l-189 -337c20 8 38.5 10.5 55.5 7.5s32.833 -8.83301 47.5 -17.5s28.5 -19.167 41.5 -31.5l37 -35.5c11.667 -11.333 22.834 -21 33.501 -29s21.334 -12 32.001 -12c23.333 0 46 11.667 68 35s43 53.333 63 90s38.333 77.334 55 122.001
s31 88.167 43 130.5s21.333 81 28 116s10 61.167 10 78.5c0 9.33301 -0.833008 19.5 -2.5 30.5s-4.83398 21 -9.50098 30s-10.834 16.5 -18.501 22.5s-17.5 9 -29.5 9c-18 0 -34.333 -7.66699 -49 -23s-28 -35 -40 -59s-22.5 -50.833 -31.5 -80.5s-16.667 -58.5 -23 -86.5
s-11 -53.667 -14 -77s-4.5 -41 -4.5 -53c0 -13.333 1.5 -26 4.5 -38s6.5 -23.667 10.5 -35s7.5 -22.833 10.5 -34.5s4.5 -23.834 4.5 -36.501c-18.667 0 -33.5 4.66699 -44.5 14s-19.167 21 -24.5 35s-8.83301 29.167 -10.5 45.5s-2.5 31.5 -2.5 45.5
c0 16 2.16699 38.333 6.5 67s10.666 59.5 18.999 92.5s18.666 66.5 30.999 100.5s26.666 64.833 42.999 92.5s34.666 50.334 54.999 68.001s42.5 26.5 66.5 26.5c2 0 6.5 -0.333008 13.5 -1s11.5 -1 13.5 -1c10.667 -13.333 20 -26 28 -38s14.833 -24 20.5 -36
s9.83398 -24.667 12.501 -38s4 -28.333 4 -45c0 -20.667 -3.16699 -50.667 -9.5 -90s-15.5 -82.5 -27.5 -129.5s-26.667 -95 -44 -144s-37.333 -93.5 -60 -133.5s-47.667 -72.833 -75 -98.5s-56.666 -38.5 -87.999 -38.5c-21.333 0 -39.5 3.33301 -54.5 10
s-28.167 14.834 -39.5 24.501s-21.666 20.334 -30.999 32.001s-19 22.334 -29 32.001s-21 17.834 -33 24.501s-26.667 10 -44 10c-18 0 -33.667 -5.66699 -47 -17s-25 -25.333 -35 -42s-18.667 -34 -26 -52l-19 -47c-1.33301 0 -3.5 -0.166992 -6.5 -0.5
s-5.16699 -0.5 -6.5 -0.5c-3.33301 0 -7.83301 0.666992 -13.5 2s-11.334 3.16602 -17.001 5.49902s-10.667 5.16602 -15 8.49902s-6.5 7 -6.5 11z" />
    <glyph glyph-name="E" unicode="E" horiz-adv-x="435" 
d="M12 131c2 32 11.668 62.167 29.001 90.5s37.833 54.833 61.5 79.5s48.667 47.5 75 68.5s49.5 40.5 69.5 58.5c0 4 -1.83301 9.33301 -5.5 16s-6.5 18.334 -8.5 35.001c0 29.333 6.66699 56.166 20 80.499s30.833 45 52.5 62s46 30.167 73 39.5s54.5 14 82.5 14
c12 0 22 -4.5 30 -13.5s14.333 -19.833 19 -32.5s7.83398 -25.667 9.50098 -39s2.5 -24.333 2.5 -33h-35c0 7.33301 -0.833008 15 -2.5 23s-4.33398 15.167 -8.00098 21.5s-8.33398 11.666 -14.001 15.999s-12.834 6.5 -21.501 6.5c-15.333 0 -32 -4.16699 -50 -12.5
s-34.833 -19 -50.5 -32s-28.834 -27.833 -39.501 -44.5s-16 -33.334 -16 -50.001c0 -8.66699 2.83301 -14.834 8.5 -18.501s13 -6.16699 22 -7.5s18.5 -2 28.5 -2s19.5 -0.5 28.5 -1.5s16.333 -3.5 22 -7.5s8.5 -10.333 8.5 -19c0 -5.33301 -0.666992 -10.5 -2 -15.5
s-5.33301 -9.16699 -12 -12.5c-38.667 -10 -73.5 -21.833 -104.5 -35.5s-59.167 -30 -84.5 -49s-48.833 -41.5 -70.5 -67.5s-42.834 -57 -63.501 -93c0 -1.33301 -0.166992 -4.66602 -0.5 -9.99902s-0.5 -8.66602 -0.5 -9.99902c0 -24 6.83301 -42.167 20.5 -54.5
s31.834 -18.5 54.501 -18.5c25.333 0 53.833 4 85.5 12s62.5 16.667 92.5 26l82.5 26c25 8 43.5 12 55.5 12c-0.666992 -14.667 -7 -28.667 -19 -42s-27.667 -25.5 -47 -36.5s-41.166 -20.833 -65.499 -29.5s-49 -15.667 -74 -21s-49.333 -9 -73 -11s-44.5 -2 -62.5 0
c-17.333 0 -32.5 4 -45.5 12s-23.667 18.333 -32 31s-14.666 26.834 -18.999 42.501s-6.5 31.167 -6.5 46.5z" />
    <glyph glyph-name="F" unicode="F" horiz-adv-x="703" 
d="M12 91l0.00390625 14.9941c0 6 0.666992 11.833 2 17.5s3.33301 10.5 6 14.5s6.66699 6 12 6s11.166 -4.83301 17.499 -14.5s14.5 -20.334 24.5 -32.001s22.5 -22.334 37.5 -32.001s33.833 -14.5 56.5 -14.5c17.333 0 38 2.66699 62 8s48.833 12.833 74.5 22.5
s51 21.334 76 35.001s47.5 28.667 67.5 45s36.167 33.666 48.5 51.999s18.5 37.5 18.5 57.5c-24 0 -47 -2.66699 -69 -8s-46.333 -8 -73 -8c0 6 1 11.833 3 17.5s6.33301 9.83398 13 12.501l181 77l27 27c2.66699 6.66699 7.66699 18 15 34l23.5 50.5l23.5 50.5
c7.33301 16 12.666 27 15.999 33c0 0.666992 1.33301 3 4 7l8.5 12.5l8 12c2.33301 3.66699 3.83301 6.16699 4.5 7.5c0 5.33301 -0.333008 10 -1 14s-4.66699 8.33301 -12 13l-183 -64.5c-58.667 -19.667 -118.334 -41.5 -179.001 -65.5
c-0.666992 0 -1.83398 -0.166992 -3.50098 -0.5s-3.16699 -0.5 -4.5 -0.5c-5.33301 0 -9.83301 2 -13.5 6s-5.5 8.66699 -5.5 14c0 6.66699 11.167 16.834 33.5 30.501s50.5 28.334 84.5 44.001s71.5 31.834 112.5 48.501s80.167 31.834 117.5 45.501
s70.333 24.834 99 33.501s48 13 58 13c14 0 26.333 -3.33301 37 -10s16 -18.667 16 -36c0 -5.33301 -1.5 -9.66602 -4.5 -12.999s-6.66699 -6.16602 -11 -8.49902s-8.66602 -4.33301 -12.999 -6s-7.83301 -3.5 -10.5 -5.5c-4 -3.33301 -9.33301 -8.33301 -16 -15l-20.5 -20
c-7 -6.66699 -13.167 -12.834 -18.5 -18.501s-8.33301 -9.16699 -9 -10.5c-6 -10 -13.5 -23.833 -22.5 -41.5s-17.5 -35.5 -25.5 -53.5l-21 -48.5c-6 -14.333 -9 -22.833 -9 -25.5v-19c2.66699 0 7.5 0.833008 14.5 2.5s14.167 2.83398 21.5 3.50098
s13.833 -0.333008 19.5 -3s8.5 -8.33398 8.5 -17.001c0 -8 -4.33301 -14.667 -13 -20c-3.33301 -1.33301 -9.16602 -3.83301 -17.499 -7.5l-27 -11.5l-27.5 -11.5l-18 -7.5c-29.333 -48 -60.166 -92 -92.499 -132s-68 -74.167 -107 -102.5s-82.333 -50.5 -130 -66.5
s-100.834 -24 -159.501 -24c-12.667 0 -26.834 1.66699 -42.501 5s-30.334 8.83301 -44.001 16.5s-25.167 17.334 -34.5 29.001s-14 25.5 -14 41.5z" />
    <glyph glyph-name="G" unicode="G" horiz-adv-x="699" 
d="M71 52l-10.4961 20.4961l-16 31c-5.66699 11 -10.834 21.5 -15.501 31.5l-10 21c-2 4 -4.66699 11 -8 21s-5 16 -5 18c0 7.33301 1.83301 15.666 5.5 24.999s8.5 18 14.5 26s13 14.667 21 20s16 8 24 8c1.33301 0 3.5 -0.333008 6.5 -1s5.16699 -1 6.5 -1
c-10.667 -13.333 -18 -25.166 -22 -35.499s-6 -22.166 -6 -35.499c0 -6.66699 2.33301 -15.5 7 -26.5s10.667 -21.833 18 -32.5s15.333 -19.834 24 -27.501s16.667 -11.5 24 -11.5h7l28.5 22.5l43.5 35.5l43 35.5l28 23.5c4.66699 4 13 12 25 24l38.5 39l39 40l26.5 27
c1.33301 0.666992 3.33301 2.83398 6 6.50098s5.33398 7.66699 8.00098 12l7.5 12c2.33301 3.66699 3.83301 6.5 4.5 8.5v6c0 10.667 -2.33301 20.167 -7 28.5s-7 18.166 -7 29.499c0 20 6.33301 45.667 19 77s29.334 64.833 50.001 100.5s44.167 71.5 70.5 107.5
s53 68.5 80 97.5s53.167 52.667 78.5 71s47.666 27.5 66.999 27.5c13.333 0 23.166 -4.66699 29.499 -14s9.5 -19.666 9.5 -30.999c0 -14.667 -4.66699 -31.834 -14 -51.501s-20.5 -39.5 -33.5 -59.5l-39 -58c-13 -18.667 -23.167 -34 -30.5 -46l-19.5 -28.5l-33.5 -49
l-33 -49.5l-19 -29c-1.33301 -1.33301 -3.5 -5.33301 -6.5 -12s-4.83301 -11 -5.5 -13c24.667 9.33301 49.667 23 75 41s47.666 34.667 66.999 50h13c12 0 21.667 -2.16699 29 -6.5s11 -13.166 11 -26.499c0 -2 -0.166992 -5.66699 -0.5 -11s-0.833008 -8.33301 -1.5 -9
l-154 -350c-14.667 -32.667 -33.5 -59.334 -56.5 -80.001s-48.667 -37.167 -77 -49.5s-58.5 -21 -90.5 -26s-64.333 -8.16699 -97 -9.5s-64.834 -1.83301 -96.501 -1.5s-61.167 -0.166992 -88.5 -1.5c-1.33301 0 -4.5 -0.666992 -9.5 -2s-10.5 -2.66602 -16.5 -3.99902
s-11.5 -2.83301 -16.5 -4.5s-8.16699 -2.5 -9.5 -2.5c-2 0 -5.66699 -0.166992 -11 -0.5s-11 -0.666016 -17 -0.999023s-11.667 -0.666016 -17 -0.999023s-9 -0.5 -11 -0.5c0 16 2.33301 25.833 7 29.5s10 5.83398 16 6.50098s12.167 1.5 18.5 2.5s11.166 6.5 14.499 16.5z
M240.004 102.996c-11.333 -3.33301 -21.168 -8.33301 -29.501 -15s-16.166 -14.334 -23.499 -23.001h78c37.333 0 71.666 2 102.999 6s60.333 12 87 24s51 29 73 51s42.667 51 62 87c4 8 10.5 22.333 19.5 43l28 66.5l26.5 67c8 21 13.333 35.833 16 44.5h-3h-2
c-0.666992 0 -1 0.333008 -1 1c-22 0 -44.5 -4.66699 -67.5 -14s-45.167 -21.166 -66.5 -35.499s-41.166 -30 -59.499 -47s-33.833 -32.833 -46.5 -47.5l-22 -24l-34 -36.5l-40.5 -43.5l-40.5 -43.5l-34.5 -36.5c-10.333 -10.667 -17.833 -18.667 -22.5 -24z
M745.002 867.996c-14 -12 -29.667 -27.1689 -47 -45.502s-35.166 -38.833 -53.499 -61.5s-36.333 -46.5 -54 -71.5s-33.334 -49.667 -47.001 -74s-24.667 -47.666 -33 -69.999s-12.5 -42.166 -12.5 -59.499c0 -1.33301 0.166992 -4.5 0.5 -9.5s0.5 -8.16699 0.5 -9.5
c4.66699 5.33301 12.5 15.333 23.5 30l35 46.5l35 47.5c11 15.333 18.5 26 22.5 32c10 14.667 22.333 34 37 58l42.5 71.5l35.5 61.5c10 17.333 15 27 15 29v25z" />
    <glyph glyph-name="H" unicode="H" horiz-adv-x="1013" 
d="M4 70c0 5.33301 1.66699 11.002 5 17.002s7.66602 11.667 12.999 17s11 9.66602 17 12.999s11.667 5 17 5h6.5c3 0 5.16699 -0.333008 6.5 -1c-8 -8.66699 -12.5 -17.334 -13.5 -26.001s-1.5 -18 -1.5 -28c0 -15.333 3.5 -27.833 10.5 -37.5s15.833 -17.334 26.5 -23.001
s22.5 -9.66699 35.5 -12s25.5 -3.5 37.5 -3.5c50 0 96 6.83301 138 20.5s80.5 32.334 115.5 56.001s66.833 51.667 95.5 84s55.167 67.333 79.5 105s46.666 76.834 66.999 117.501s39.5 81.667 57.5 123h-3h-2c-0.666992 0 -1 0.333008 -1 1c-20 0 -39.333 -5.5 -58 -16.5
s-37.334 -23.333 -56.001 -37s-37.667 -26 -57 -37s-39.333 -16.5 -60 -16.5c0 5.33301 7.83301 15.333 23.5 30s35.5 31.667 59.5 51l77.5 61l77 58.5l59.5 44l24 17.5c12.667 0 21.667 -5.16699 27 -15.5s8 -20.833 8 -31.5c0 -2 -0.166992 -5.33301 -0.5 -10
s-0.833008 -7.33398 -1.5 -8.00098l-73 -158l-47 -101l-26.5 -56.5c-5.66699 -12.333 -9.33398 -20.5 -11.001 -24.5s-2 -5.5 -1 -4.5s2.5 1.83301 4.5 2.5c6.66699 2.66699 19.834 6.16699 39.501 10.5l63 13.5c22.333 4.66699 43.333 8.83398 63 12.501l40.5 7.5l12 12
l90.5 182.5l91.5 181.5c12.667 10.667 21 13.167 25 7.5s5.83301 -14.834 5.5 -27.501s-2.5 -26.167 -6.5 -40.5s-7.66699 -24.833 -11 -31.5l-246 -543c-6 -13.333 -12.333 -21.333 -19 -24s-15 -4 -25 -4c-6 0 -12.667 0.333008 -20 1s-12 5 -14 13
c12.667 11.333 24.5 25.833 35.5 43.5s20.5 36 28.5 55s14.167 38 18.5 57s6.5 35.833 6.5 50.5c-1.33301 0 -3.16602 0.333008 -5.49902 1s-4.16602 0.666992 -5.49902 0c-20.667 -6.66699 -42.667 -11.834 -66 -15.501s-46.666 -7.66699 -69.999 -12
s-45.666 -10.166 -66.999 -17.499s-40 -18 -56 -32l-100 -87.5c-28 -25.667 -56.667 -47.5 -86 -65.5s-62.333 -31.667 -99 -41s-82.334 -14 -137.001 -14c-22 0 -42.667 2.16699 -62 6.5s-36.5 11.5 -51.5 21.5s-26.833 23.333 -35.5 40s-13 37.667 -13 63z" />
    <glyph glyph-name="I" unicode="I" horiz-adv-x="821" 
d="M13 233c-0.666992 2.66699 -0.664062 6.49219 0.00292969 11.4922s1.66699 10.333 3 16s3 10.834 5 15.501s4 7.66699 6 9c0 0.666992 2.16699 1.5 6.5 2.5s7.83301 1.5 10.5 1.5c10.667 0 19 -3 25 -9s11.833 -12.5 17.5 -19.5s12.334 -13.5 20.001 -19.5
s18.5 -9 32.5 -9c37.333 0 71.833 6.33301 103.5 19s61.334 26.5 89.001 41.5l79 41.5c25 12.667 49.5 19 73.5 19c0 -9.33301 -4.16699 -19.333 -12.5 -30s-18.333 -21 -30 -31s-23.667 -19 -36 -27s-22.166 -14 -29.499 -18c-22 -13.333 -42 -24.5 -60 -33.5
s-36.333 -16.667 -55 -23s-38.334 -11.166 -59.001 -14.499s-44.667 -5.66602 -72 -6.99902c2.66699 -3.33301 7.66699 -8.66602 15 -15.999l23.5 -23.5l23.5 -23.5c7.33301 -7.33301 12.666 -12.333 15.999 -15c6 -5.33301 13 -9.16602 21 -11.499
s16.167 -3.66602 24.5 -3.99902s16.666 -0.166016 24.999 0.500977s16.166 1 23.499 1c16.667 0 36.167 1.16699 58.5 3.5s44.166 6.66602 65.499 12.999s40.5 15.5 57.5 27.5s28.833 28 35.5 48c1.33301 4 3.83301 12.333 7.5 25s8.16699 27.334 13.5 44.001l17 54l17 54
l14.5 44l8.5 25c12 24 26.167 49.167 42.5 75.5s34.5 51 54.5 74s41.333 43.333 64 61s46.334 29.834 71.001 36.501c23.333 0 40.166 -8 50.499 -24s15.5 -34 15.5 -54c0 -50 -10.333 -98.667 -31 -146s-46.834 -92.333 -78.501 -135s-66.667 -82 -105 -118
s-75.166 -67.333 -110.499 -94c0 -2 -0.5 -4.83301 -1.5 -8.5s-2.16699 -7.5 -3.5 -11.5l-4 -11.5c-1.33301 -3.66699 -2.33301 -6.16699 -3 -7.5c-0.666992 -0.666992 -1.33398 -1 -2.00098 -1h-3c-1.33301 0 -2.83301 0.166992 -4.5 0.5s-2.83398 0.5 -3.50098 0.5
c-3.33301 0.666992 -9.83301 2.66699 -19.5 6s-16.167 5.66602 -19.5 6.99902c-6 -2 -16.333 -5.66699 -31 -11s-30.334 -10.666 -47.001 -15.999l-47 -15l-31 -10c-1.33301 -0.666992 -4.66602 -1.5 -9.99902 -2.5l-18.5 -3.5l-20.5 -4l-15 -3h-7
c-30.667 0 -59.667 7.5 -87 22.5s-52.166 34 -74.499 57s-42.333 48.167 -60 75.5s-32.5 53.333 -44.5 78zM848.003 600.992c-22 0 -43.8311 -7.50586 -65.498 -22.5059s-42.334 -34.5 -62.001 -58.5s-37.834 -51.167 -54.501 -81.5s-31.167 -60.666 -43.5 -90.999
s-22 -59.666 -29 -87.999s-10.5 -52.166 -10.5 -71.499c0 -1.33301 0.166992 -2.66602 0.5 -3.99902s0.5 -2.33301 0.5 -3c38 22.667 73 48.834 105 78.501s59.833 62.5 83.5 98.5s42.167 74.333 55.5 115s20 83.334 20 128.001z" />
    <glyph glyph-name="J" unicode="J" horiz-adv-x="641" 
d="M-30 -322c-4.66699 1.33301 -8.99805 3.5 -12.998 6.5s-6.83301 6.5 -8.5 10.5s-2 8 -1 12s4.5 7.33301 10.5 10c29.333 10 57.333 20.667 84 32s51.5 24.833 74.5 40.5s44 34.5 63 56.5s35.5 48.333 49.5 79l364 777h-13c-1.33301 0 -8.66602 -3 -21.999 -9l-46.5 -21
l-54.5 -25c-18.667 -8.66699 -33.667 -16 -45 -22c-16 -8 -34.5 -19.167 -55.5 -33.5s-42.667 -30.833 -65 -49.5s-44.166 -38.834 -65.499 -60.501s-40.5 -43.667 -57.5 -66s-30.667 -44.5 -41 -66.5s-15.5 -42.333 -15.5 -61c0 -7.33301 1.5 -13.666 4.5 -18.999
s6.5 -10.5 10.5 -15.5s7.5 -10.333 10.5 -16s4.5 -11.834 4.5 -18.501c-14 0 -26 2.5 -36 7.5s-18.167 11.667 -24.5 20s-11 17.833 -14 28.5s-4.5 21.667 -4.5 33c0 17.333 3 33.833 9 49.5s13.833 30.667 23.5 45s20.5 28 32.5 41l37 38.5l43 41.5l54 50.5l48 43.5
c14 12.333 22 19.166 24 20.499l311 168c14.667 8.66699 27.5 21 38.5 37l33 47.5c11 15.667 23.5 29.334 37.5 41.001s31.667 17.5 53 17.5c6 0 11.333 -1.16699 16 -3.5s10 -5.5 16 -9.5c0.666992 -2.66699 1.16699 -8.16699 1.5 -16.5s0.5 -13.833 0.5 -16.5v-20.5
c0 -5 -0.833008 -9.33301 -2.5 -13s-4.33398 -7.16699 -8.00098 -10.5s-9.5 -8 -17.5 -14l-31.5 -24c-15 -11.333 -31.167 -24.5 -48.5 -39.5s-33.833 -30.667 -49.5 -47s-26.5 -31.5 -32.5 -45.5l-227 -453c-0.666992 -3.33301 -2.5 -9.83301 -5.5 -19.5
s-5.16699 -16.167 -6.5 -19.5l-20.5 -42.5l-27 -57l-30 -63l-29 -60.5l-23.5 -48.5c-6.66699 -13.667 -11.334 -22.5 -14.001 -26.5c-11.333 -22 -27.5 -46.667 -48.5 -74s-44.833 -52.666 -71.5 -75.999s-55.334 -42 -86.001 -56s-61.334 -19 -92.001 -15z" />
    <glyph glyph-name="K" unicode="K" horiz-adv-x="490" 
d="M310 -246c0 52 0.833984 101.331 2.50098 147.998s5.5 96.667 11.5 150c-2 20 -4.33301 41.833 -7 65.5s-6.83398 47 -12.501 70s-13.334 44.167 -23.001 63.5s-22.167 34.333 -37.5 45c-30.667 -36.667 -55.834 -70.167 -75.501 -100.5s-35.667 -57 -48 -80
s-22.166 -42 -29.499 -57s-14 -25.5 -20 -31.5s-12.333 -7 -19 -3s-15.334 13.333 -26.001 28l46 75.5l61.5 103.5l70.5 120.5l73.5 125l69.5 117.5l59 98c6 2.66699 10.833 4 14.5 4s6.33398 -0.666992 8.00098 -2s2.66699 -2.83301 3 -4.5s0.5 -2.83398 0.5 -3.50098
c0 -18 -4.5 -39.667 -13.5 -65s-20 -51.166 -33 -77.499s-26.333 -51 -40 -74s-25.5 -40.833 -35.5 -53.5c20 4.66699 41.5 13.334 64.5 26.001s46 27 69 43s45.667 33 68 51l63 49c19.667 14.667 37.5 26.834 53.5 36.501s29.333 14.5 40 14.5
c3.33301 0 6.66602 -1.66699 9.99902 -5s6.33301 -7.5 9 -12.5s4.83398 -10 6.50098 -15s2.5 -8.83301 2.5 -11.5c-11.333 0 -26.666 -5.83301 -45.999 -17.5s-44.666 -28.5 -75.999 -50.5l-114.5 -79.5c-45 -31 -98.5 -65.5 -160.5 -103.5c7.33301 -10 15.5 -22 24.5 -36
s17.333 -28.667 25 -44s14.167 -31 19.5 -47s8 -31 8 -45c3.33301 -68 2.33301 -135.667 -3 -203s-9 -133.333 -11 -198c27.333 -6 46.5 -12.5 57.5 -19.5s16.167 -13.333 15.5 -19s-5.83398 -10.167 -15.501 -13.5s-21 -4.5 -34 -3.5s-26.5 4.66699 -40.5 11
s-25.667 16.5 -35 30.5z" />
    <glyph glyph-name="L" unicode="L" horiz-adv-x="689" 
d="M424 205c-9.33301 0 -18.668 -5.16992 -28.001 -15.5029s-19.5 -23.166 -30.5 -38.499l-36.5 -50.5c-13.333 -18.333 -28.5 -35.166 -45.5 -50.499s-36.167 -28.166 -57.5 -38.499s-45.666 -15.5 -72.999 -15.5c-12.667 0 -27.167 0.5 -43.5 1.5
s-31.666 3.66699 -45.999 8s-26.333 11.333 -36 21s-14.5 23.167 -14.5 40.5c0 23.333 7.16699 44.5 21.5 63.5s33 36.167 56 51.5s48.667 28.666 77 39.999s56.5 21 84.5 29s54.333 14.5 79 19.5s44.667 8.83301 60 11.5l195 311c8.66699 14 20.334 28.667 35.001 44
s30.667 29.5 48 42.5s35.5 23.833 54.5 32.5s37.167 13 54.5 13c3.33301 0 9.5 -0.666992 18.5 -2s18 -6 27 -14s17 -21 24 -39s10.5 -43.667 10.5 -77c-4.66699 -1.33301 -9 -3.5 -13 -6.5s-8.5 -6 -13.5 -9s-10.667 -5.66699 -17 -8s-13.5 -3.5 -21.5 -3.5
c10.667 22 14.5 39.5 11.5 52.5s-9.83301 21.833 -20.5 26.5s-24 5.66699 -40 3s-32 -8.16699 -48 -16.5s-30.5 -19.166 -43.5 -32.499s-22.167 -28.333 -27.5 -45l-169 -286v-13c27.333 -19.333 48.166 -40.333 62.499 -63s25.333 -45.5 33 -68.5s13.5 -45.5 17.5 -67.5
s9.16699 -41.833 15.5 -59.5s15.333 -32.334 27 -44.001s29.167 -18.834 52.5 -21.501c0 -0.666992 0.166992 -1.66699 0.5 -3s0.5 -2.33301 0.5 -3c0 -8 -3.16699 -14.167 -9.5 -18.5s-13.833 -7.66602 -22.5 -9.99902s-17.5 -3.83301 -26.5 -4.5s-16.167 -1 -21.5 -1
c-14 12 -25.5 28 -34.5 48s-16.833 41.5 -23.5 64.5s-12.834 46.333 -18.501 70s-12.167 45 -19.5 64s-16 34.833 -26 47.5s-23 19.334 -39 20.001zM66.998 80.9971c0 -8 2.83301 -14.333 8.5 -19s12.5 -8 20.5 -10s16.167 -3.33301 24.5 -4s14.833 -1 19.5 -1
c18 0 38 4.83301 60 14.5s42.5 22.167 61.5 37.5s35 32.5 48 51.5s19.5 38.167 19.5 57.5c-52 0 -100.5 -9.16699 -145.5 -27.5s-83.5 -49.5 -115.5 -93.5c0 -0.666992 -0.166992 -1.66699 -0.5 -3s-0.5 -2.33301 -0.5 -3z" />
    <glyph glyph-name="M" unicode="M" horiz-adv-x="954" 
d="M758 46c0 38.667 5.16699 77.8359 15.5 117.503s23.333 78.834 39 117.501s32.5 76.167 50.5 112.5l51 102.5v13l-34.5 -37.5l-53 -57.5l-62 -67.5l-62 -67.5l-52.5 -57.5l-34 -37.5c-7.33301 -8 -14.333 -19.833 -21 -35.5s-14 -31.5 -22 -47.5s-16.833 -30 -26.5 -42
s-20.5 -18 -32.5 -18c-10 0 -17.833 1 -23.5 3s-9.83398 5.16699 -12.501 9.5s-4.33398 9.83301 -5.00098 16.5s-1 14.667 -1 24c0 49.333 7.16699 97.166 21.5 143.499l45.5 141.5v13c-1.33301 -1.33301 -3.66602 -3.5 -6.99902 -6.5s-5.33301 -5.16699 -6 -6.5
c-16 -24 -32.333 -49.833 -49 -77.5s-34 -55 -52 -82s-37.333 -52.833 -58 -77.5s-43 -46.5 -67 -65.5s-50.167 -34.167 -78.5 -45.5s-59.5 -17 -93.5 -17c-7.33301 0 -17.166 0.333008 -29.499 1s-24.333 2.66699 -36 6s-21.667 8.66602 -30 15.999
s-12.5 17.666 -12.5 30.999c0 5.33301 3.16699 12.166 9.5 20.499s11.833 14.166 16.5 17.499c9.33301 -15.333 17.166 -25.5 23.499 -30.5s15.5 -7.5 27.5 -7.5c20 0 41.167 3.16699 63.5 9.5s44 14.833 65 25.5s40.833 23 59.5 37s34.334 28.667 47.001 44
c10 13.333 22.167 30.5 36.5 51.5l46 69l50.5 76.5l50.5 74.5l45.5 63.5c14 18.667 26 32.667 36 42c9.33301 0 16.333 -1.5 21 -4.5s8 -7.16699 10 -12.5s3 -11.666 3 -18.999v-23c0 -28 -4.16699 -55.333 -12.5 -82s-17.5 -52.5 -27.5 -77.5s-19.167 -49.5 -27.5 -73.5
s-12.5 -47.667 -12.5 -71c0 -1.33301 0.166992 -3.66602 0.5 -6.99902s0.5 -5.66602 0.5 -6.99902l162 180l115.5 129.5l77.5 87c20 22.333 36 39.666 48 51.999s21.167 20.833 27.5 25.5s11.5 7 15.5 7c6.66699 0 11.667 -2 15 -6s5.5 -8.66699 6.5 -14s1.33301 -11 1 -17
s-0.5 -11 -0.5 -15c0 -28 -5.16699 -56.5 -15.5 -85.5s-23.333 -58.667 -39 -89s-32.667 -61 -51 -92s-35.333 -62.833 -51 -95.5s-28.667 -65.834 -39 -99.501s-15.5 -68.167 -15.5 -103.5c0 -18 0.333008 -31.167 1 -39.5s2.66699 -15.333 6 -21
s8.66602 -11.667 15.999 -18s17.666 -16.5 30.999 -30.5c-15.333 -8.66699 -30.166 -12.167 -44.499 -10.5s-26.666 7.5 -36.999 17.5s-17.833 23.667 -22.5 41s-5 37 -1 59z" />
    <glyph glyph-name="N" unicode="N" horiz-adv-x="891" 
d="M602 56c0 36.667 1.3291 73.502 3.99609 110.502s5.83398 73.833 9.50098 110.5s6.83398 73.5 9.50098 110.5s4 74.167 4 111.5v71c-1.33301 -1.33301 -3.33301 -3.83301 -6 -7.5l-8.5 -11.5c-3 -4 -5.66699 -7.83301 -8 -11.5s-3.83301 -6.5 -4.5 -8.5l-15.5 -28.5
l-27.5 -51l-34 -62.5l-34 -62.5l-28.5 -51l-16.5 -28.5l-43 -75c-15.333 -27.333 -32.5 -53 -51.5 -77s-40.5 -44 -64.5 -60s-51.333 -24 -82 -24c-31.333 0 -59.166 6.83301 -83.499 20.5s-45.166 31.667 -62.499 54s-30.5 47.5 -39.5 75.5s-13.5 56.667 -13.5 86
c0 3.33301 1.66699 9.83301 5 19.5s6 15.834 8 18.501c10.667 -8.66699 20 -19.5 28 -32.5s15.5 -26.833 22.5 -41.5l21 -43.5c7 -14.333 15 -27.333 24 -39s19.5 -21.167 31.5 -28.5s26.667 -11 44 -11c22.667 0 42.5 4.16699 59.5 12.5s32.5 19.333 46.5 33
s27.667 29 41 46s28.333 34.5 45 52.5l24.5 42l37.5 64l43.5 75.5l42.5 75l36 64l24 42.5c1.33301 2.66699 4.5 9.66699 9.5 21l16 37l16 37c5 11.333 8.16699 18.666 9.5 21.999c4 8.66699 10.333 13 19 13c12 0 20.5 -6.33301 25.5 -19s8.16699 -27 9.5 -43
s1.5 -31 0.5 -45s-1.5 -22.333 -1.5 -25c0 -47.333 -2.33301 -94.333 -7 -141s-7 -94 -7 -142v-85l22 52l34 82l40 97.5l40.5 97.5l34.5 81.5c10 23.667 17.667 40.5 23 50.5c10 19.333 22.333 41.166 37 65.499s31.167 47.166 49.5 68.499s38.833 39.166 61.5 53.499
s47 21.5 73 21.5c-38 -25.333 -73.333 -60.833 -106 -106.5s-62.667 -96.667 -90 -153s-52.5 -115.166 -75.5 -176.499s-44 -120 -63 -176l-52 -152.5c-15.667 -45.667 -30 -80.5 -43 -104.5s-24.667 -35 -35 -33s-19.833 22.667 -28.5 62z" />
    <glyph glyph-name="O" unicode="O" horiz-adv-x="505" 
d="M84 -1c-18 0.666992 -32.167 5.16992 -42.5 13.5029s-17.5 18.666 -21.5 30.999s-5.83301 26.166 -5.5 41.499s1.83301 30.333 4.5 45c34.667 105.333 68 194.5 100 267.5s62.333 132.667 91 179s55.667 81.333 81 105s48.833 39.167 70.5 46.5
s41.334 8.16602 59.001 2.49902s33.5 -14.5 47.5 -26.5s25.833 -25.5 35.5 -40.5s17.167 -28.167 22.5 -39.5c-2.66699 -66.667 -15.334 -132.667 -38.001 -198s-53.5 -126 -92.5 -182s-85 -105.333 -138 -148s-110.833 -75 -173.5 -97zM343 635.003
c-14.667 -3.33301 -31.168 -17.0049 -49.501 -41.0049s-37 -54 -56 -90s-37.833 -75.833 -56.5 -119.5s-35.667 -86.167 -51 -127.5s-28.666 -79.666 -39.999 -114.999s-19 -62.666 -23 -81.999c24.667 0 51.834 7.33301 81.501 22s57.834 32.834 84.501 54.501
s50 44.834 70 69.501s33.333 46.667 40 66v3c0 1.33301 0.166992 2.16602 0.5 2.49902s0.5 0.833008 0.5 1.5s-0.166992 1.33398 -0.5 2.00098s-0.5 1.33398 -0.5 2.00098v2c-14.667 26 -25.834 54 -33.501 84s-11.5 60.333 -11.5 91s3.66699 61 11 91s18.666 58 33.999 84z
M459.999 662.998c-36 -10.667 -62.8311 -29.168 -80.498 -55.501s-28.834 -56 -33.501 -89s-4 -67 2 -102s15 -66.167 27 -93.5c71.333 78 108.666 171.333 111.999 280c0 6 0.166992 12.333 0.5 19s0 12.834 -1 18.501s-3.5 10.667 -7.5 15s-10.333 6.83301 -19 7.5z" />
    <glyph glyph-name="P" unicode="P" horiz-adv-x="390" 
d="M5 26c0 24.667 6.83398 51.334 20.501 80.001s28.667 57.5 45 86.5s31.333 57.5 45 85.5s20.5 54 20.5 78c0 9.33301 -2.16699 18.166 -6.5 26.499s-9 16.666 -14 24.999s-9.5 16.666 -13.5 24.999s-6 17.5 -6 27.5c0 11.333 4.5 22.333 13.5 33s19.167 16 30.5 16
c0 -6 0.333008 -13.167 1 -21.5s2.16699 -16.5 4.5 -24.5s5.83301 -15.167 10.5 -21.5s11 -10.833 19 -13.5c6.66699 18 16.834 41.5 30.501 70.5s30 60 49 93s39.667 66 62 99s45.333 62.833 69 89.5s47.5 48.334 71.5 65.001s46.667 25 68 25
c16 0 29.833 -3.33301 41.5 -10s21.167 -15.5 28.5 -26.5s12.666 -23.5 15.999 -37.5s5 -28.333 5 -43c0 -54 -11.5 -104.5 -34.5 -151.5s-53.333 -88.333 -91 -124s-80.5 -64.667 -128.5 -87s-97.333 -35.833 -148 -40.5l-27 -39l-116 -285
c-5.33301 -11.333 -10.833 -18.666 -16.5 -21.999s-12.834 -5 -21.501 -5c-18.667 0 -28 9 -28 27zM512.001 805c-18.667 0 -37.8359 -6.83398 -57.5029 -20.501s-39.167 -31.5 -58.5 -53.5s-37.666 -46.667 -54.999 -74s-32.666 -54.5 -45.999 -81.5
s-23.833 -52.5 -31.5 -76.5s-11.5 -43.667 -11.5 -59c0 -1.33301 0.166992 -5.33301 0.5 -12s0.5 -11 0.5 -13c42 2 81.333 13.5 118 34.5s68.334 47.833 95.001 80.5s47.667 69.167 63 109.5s23 80.5 23 120.5c0 18.667 -2 30.834 -6 36.501s-15.333 8.5 -34 8.5z" />
    <glyph glyph-name="Q" unicode="Q" horiz-adv-x="590" 
d="M304 130c-27.333 -22 -57.6602 -40.6689 -90.9932 -56.002s-68 -23 -104 -23c-30.667 0 -53.5 10 -68.5 30s-22.5 43 -22.5 69c0 30.667 5.16699 63.334 15.5 98.001s24.166 69.834 41.499 105.501s37.666 70.834 60.999 105.501s48 67.834 74 99.501
s52.667 60.667 80 87s54 48.833 80 67.5v11c-8 3.33301 -16.5 2.5 -25.5 -2.5s-17.333 -10.333 -25 -16s-14.334 -9.33398 -20.001 -11.001s-8.83398 2.5 -9.50098 12.5c0 20.667 7 35.667 21 45s30 14 48 14c30 0 57.5 -6.33301 82.5 -19s46.667 -29.334 65 -50.001
s32.666 -44.167 42.999 -70.5s15.5 -53.5 15.5 -81.5c0 -32 -5.33301 -63.167 -16 -93.5s-24.334 -59.5 -41.001 -87.5s-35 -55 -55 -81l-58 -75c-5.33301 -23.333 -8.83301 -42.833 -10.5 -58.5s-2.5 -33.834 -2.5 -54.501c0 -12 1.16699 -21.5 3.5 -28.5s6 -12.667 11 -17
s11.667 -8.16602 20 -11.499l30.5 -12c0 -0.666992 0.333008 -1.66699 1 -3v-3c0 -0.666992 0.333008 -1 1 -1c0 -5.33301 -2.33301 -9.5 -7 -12.5s-10 -5 -16 -6s-12.167 -1.5 -18.5 -1.5h-14.5c-16 0 -29.833 4.16699 -41.5 12.5s-21.334 19 -29.001 32
s-13 27.167 -16 42.5s-3.83301 30 -2.5 44zM71.0059 155.998c0 -15.333 2.66992 -25.832 8.00293 -31.499s15.333 -8.5 30 -8.5c17.333 0 38.666 3.5 63.999 10.5s49.833 16.667 73.5 29s43.834 27.166 60.501 44.499s25 36.666 25 57.999
c0 16.667 -4.16699 27.667 -12.5 33s-17.5 9.33301 -27.5 12s-19.167 6.16699 -27.5 10.5s-12.5 14.166 -12.5 29.499c12 14.667 24.667 22.834 38 24.501s26.333 -0.666016 39 -6.99902s24.667 -15.333 36 -27s21.333 -23.5 30 -35.5
c1.33301 0.666992 3.66602 2.66699 6.99902 6l7 7c10.667 20 22.667 39.833 36 59.5l37.5 57.5c11.667 18.667 21.5 36.667 29.5 54s12.333 33.666 13 48.999v7c0 12.667 -2.83301 28.167 -8.5 46.5s-13.334 35.833 -23.001 52.5s-20.834 31 -33.501 43
s-25.667 18.667 -39 20l-16 -37.5l-9 -20c-2 -4.33301 -3.5 -7 -4.5 -8s-1.83301 -1.5 -2.5 -1.5c-4 0 -6.83301 1.5 -8.5 4.5s-3 6.5 -4 10.5s-2.33301 7.5 -4 10.5s-4.5 4.5 -8.5 4.5c-10.667 0 -25.334 -11.167 -44.001 -33.5s-38.834 -50.833 -60.501 -85.5
s-43.667 -72.667 -66 -114s-42.666 -80.666 -60.999 -117.999s-33.166 -70.333 -44.499 -99s-17 -47.667 -17 -57z" />
    <glyph glyph-name="R" unicode="R" horiz-adv-x="589" 
d="M484 -106c-30 0 -53.9932 7 -71.9932 21s-31.833 32.5 -41.5 55.5s-16.167 49.167 -19.5 78.5s-5.5 59.333 -6.5 90s-1.66699 60.5 -2 89.5s-2.5 54.5 -6.5 76.5s-10.5 39.5 -19.5 52.5s-22.833 18.5 -41.5 16.5l-20.5 -39l-31.5 -59l-37.5 -70l-37.5 -70l-32.5 -59.5
l-21.5 -39.5c-5.33301 -9.33301 -9 -16.5 -11 -21.5s-4.16699 -9 -6.5 -12s-5.33301 -4.83301 -9 -5.5s-9.16699 -1 -16.5 -1c-13.333 0 -22.666 2.16699 -27.999 6.5s-8 13.166 -8 26.499c11.333 42.667 26.5 85.167 45.5 127.5s40.167 84.333 63.5 126s48 83 74 124
l77 121.5l56 83.5c21.333 31.667 45.166 61.667 71.499 90s55 52.166 86 71.499s64.167 29 99.5 29c12.667 0.666992 24.5 -1.16602 35.5 -5.49902s20.167 -10.833 27.5 -19.5s12.666 -18.667 15.999 -30s3.66602 -23.666 0.999023 -36.999
c0 -32.667 -6.83301 -64.167 -20.5 -94.5s-30.834 -58.5 -51.501 -84.5s-42.834 -49.667 -66.501 -71s-45.834 -39.666 -66.501 -54.999s-37.834 -27.5 -51.501 -36.5s-20.5 -13.833 -20.5 -14.5c0 -8 0.166992 -23.167 0.5 -45.5s1.33301 -47.833 3 -76.5
s4.16699 -58.834 7.5 -90.501s7.83301 -61.334 13.5 -89.001s13 -51.167 22 -70.5s19.833 -31.333 32.5 -36c2 -0.666992 6.66699 -1.66699 14 -3l24.5 -4.5c9 -1.66699 17.333 -3 25 -4s12.5 -1.83301 14.5 -2.5c1.33301 -0.666992 3.66602 -2.66699 6.99902 -6
s5.33301 -5.66602 6 -6.99902c-15.333 -12 -28 -19.333 -38 -22s-23 -4 -39 -4zM313.007 462c0 -10 1.66309 -17.501 4.99609 -22.501s8 -8.5 14 -10.5s12.833 -3.16699 20.5 -3.5s15.834 -0.5 24.501 -0.5c26.667 0 53.334 9.5 80.001 28.5s50.834 42.333 72.501 70
s39.167 57.167 52.5 88.5s20 59 20 83v20c0 6.66699 -0.666992 12.834 -2 18.501s-4 10.167 -8 13.5s-10.333 5 -19 5c-15.333 0 -32.333 -5.16699 -51 -15.5s-37.667 -23.833 -57 -40.5s-38.166 -35.5 -56.499 -56.5s-34.5 -42.333 -48.5 -64s-25.333 -42.5 -34 -62.5
s-13 -37 -13 -51z" />
    <glyph glyph-name="S" unicode="S" horiz-adv-x="589" 
d="M5 221c0 10.667 0.663086 22.501 1.99609 35.501s4.33301 24.833 9 35.5s11.5 19.667 20.5 27s21.167 11 36.5 11c0 -8.66699 -0.833008 -16.667 -2.5 -24s-3.66699 -14.666 -6 -21.999s-4.33301 -15.166 -6 -23.499s-2.5 -17.5 -2.5 -27.5c0 -25.333 3.33301 -49 10 -71
s16.834 -41.167 30.501 -57.5s30.667 -29.166 51 -38.499s44.5 -14 72.5 -14c12 0 26.667 2.66699 44 8s34.666 11.666 51.999 18.999s33.333 14.666 48 21.999s25 12.666 31 15.999c14.667 8 26.334 19.167 35.001 33.5s15.334 30 20.001 47s7.66699 34.333 9 52
s2 33.5 2 47.5c0 22.667 -2.16699 44.834 -6.5 66.501s-9 43.167 -14 64.5s-9.66699 42.666 -14 63.999s-6.5 43 -6.5 65c7.33301 20.667 18.833 39.5 34.5 56.5s33.667 31.667 54 44s42.166 22.166 65.499 29.499s46 11.666 68 12.999c18 -4.66699 31.667 -10.5 41 -17.5
s15.833 -14.5 19.5 -22.5s4.5 -15.667 2.5 -23s-5.33301 -14 -10 -20c-7.33301 16 -16.833 26.667 -28.5 32s-24.667 7 -39 5s-28.833 -7 -43.5 -15s-28.667 -17 -42 -27s-25 -20.5 -35 -31.5s-17.333 -20.5 -22 -28.5c0 -20 2.16699 -39.5 6.5 -58.5s9 -38 14 -57
s9.66699 -38 14 -57s6.5 -38.5 6.5 -58.5c0 -48 -7.5 -91.833 -22.5 -131.5s-36.667 -73.667 -65 -102s-62.666 -50.166 -102.999 -65.499s-85.5 -23 -135.5 -23c-31.333 0 -59.166 6.33301 -83.499 19s-44.666 29.5 -60.999 50.5s-28.833 44.833 -37.5 71.5
s-13 53.667 -13 81z" />
    <glyph glyph-name="T" unicode="T" horiz-adv-x="498" 
d="M134 25c0 15.333 3.33398 31.501 10.001 48.501s12.667 31.5 18 43.5l22 43.5l34 66.5l40.5 78l40.5 78l34.5 66.5l22.5 43.5c0.666992 0.666992 2.16699 3 4.5 7s5 8 8 12l8.5 11.5c2.66699 3.66699 4.33398 6.16699 5.00098 7.5s0.333984 2.66602 -0.999023 3.99902
s-2 2.66602 -2 3.99902c-28.667 -3.33301 -58.5 -7.66602 -89.5 -12.999s-61.667 -11.5 -92 -18.5s-59.5 -15 -87.5 -24s-53.333 -19.167 -76 -30.5c-7.33301 0 -14 1.33301 -20 4s-9 8 -9 16v3c0 0.666992 0.333008 1.66699 1 3l6.5 15.5c3 7 5.16699 10.833 6.5 11.5
l91 39l609 155c7.33301 -18.667 6.83301 -33.5 -1.5 -44.5s-21.5 -20 -39.5 -27s-38.833 -13 -62.5 -18s-47.334 -11 -71.001 -18s-45.5 -16.333 -65.5 -28s-35 -27.167 -45 -46.5l-133.5 -257c-45.667 -85.333 -87.5 -172.333 -125.5 -261
c-0.666992 -0 -1.83398 -0.166992 -3.50098 -0.5s-2.83398 -0.5 -3.50098 -0.5c-8.66699 0 -16.5 2 -23.5 6s-10.5 10.667 -10.5 20z" />
    <glyph glyph-name="U" unicode="U" horiz-adv-x="554" 
d="M18 84c0 25.333 3.99707 50.665 11.9971 75.998s17.333 49.666 28 72.999l19.5 46l27.5 67l30.5 76l29 73l23.5 58.5c6.66699 16.333 11.334 26.833 14.001 31.5c24 11.333 39.333 12.333 46 3s7.66699 -25.5 3 -48.5s-13.5 -50.5 -26.5 -82.5s-27.333 -64.833 -43 -98.5
l-47 -98c-15.667 -31.667 -28.167 -58.167 -37.5 -79.5c-17.333 -38.667 -27 -66.334 -29 -83.001s2.83301 -24.167 14.5 -22.5s29.334 11.5 53.001 29.5s52.334 42.5 86.001 73.5l114 110l137.5 139.5c11.333 15.333 22.5 33.5 33.5 54.5l32.5 63.5l31 60.5
c10 19 20.167 34 30.5 45s20.5 16.5 30.5 16.5s20.333 -8 31 -24c-13.333 -37.333 -31.333 -77.666 -54 -120.999l-67.5 -134.5c-22.333 -46.333 -41.5 -93 -57.5 -140s-24 -92.5 -24 -136.5c0 -12 3.66699 -19.833 11 -23.5s16 -5.33398 26 -5.00098s20.5 1 31.5 2
s20.5 -0.166992 28.5 -3.5c-3.33301 -6 -6 -12.167 -8 -18.5s-4.33301 -12.166 -7 -17.499s-5.83398 -9.66602 -9.50098 -12.999s-9.16699 -5 -16.5 -5c-13.333 -6.66699 -28.5 -6.33398 -45.5 0.999023s-32 21.333 -45 42s-21.833 47.834 -26.5 81.501s-1 73.5 11 119.5
l-30 -27l-46 -41l-54 -48.5l-53.5 -48.5l-46 -41c-13.667 -12 -23.5 -21 -29.5 -27c-3.33301 -2 -8 -5.33301 -14 -10s-12.5 -9.16699 -19.5 -13.5s-14 -8.16602 -21 -11.499s-12.833 -5 -17.5 -5c-11.333 0 -20.666 2.66699 -27.999 8s-13.5 12.333 -18.5 21
s-8.5 17.834 -10.5 27.501s-3 19.167 -3 28.5z" />
    <glyph glyph-name="V" unicode="V" horiz-adv-x="373" 
d="M45 13l-0.00292969 8.5c0 4.33301 -0.166992 8.83301 -0.5 13.5s-0.5 9.16699 -0.5 13.5v9.5c0 30 2.16699 59.5 6.5 88.5s9 58 14 87s9.66699 58 14 87s6.5 58.5 6.5 88.5v16v25.5c0 9 -0.166992 17.5 -0.5 25.5s-0.5 13.667 -0.5 17
c-4 6.66699 -9.83301 11.334 -17.5 14.001l-22.5 8c-7.33301 2.66699 -13.833 6 -19.5 10s-8.5 10.333 -8.5 19c0 6 1.66699 10.833 5 14.5s7.5 6.5 12.5 8.5s10.333 3.16699 16 3.5s11.167 0.5 16.5 0.5c32 0 56 -10.333 72 -31s24 -47 24 -79
c0 -30 -2.66699 -59.5 -8 -88.5s-11.333 -57.833 -18 -86.5s-12.667 -57.5 -18 -86.5s-8 -58.5 -8 -88.5v-8l13.5 13l20 19.5l19.5 20c6 6.33301 10 10.833 12 13.5c36.667 44 69.667 90.167 99 138.5s56.333 94.833 81 139.5l69 124.5
c21.333 38.333 42.666 70.166 63.999 95.499s43.333 42.166 66 50.499s47.667 4.83301 75 -10.5c0 -8 -2.83301 -13.833 -8.5 -17.5s-12.167 -6.5 -19.5 -8.5s-14.666 -4.16699 -21.999 -6.5s-12.666 -6.5 -15.999 -12.5c-63.333 -113.333 -131.5 -225.166 -204.5 -335.499
s-151.5 -214.833 -235.5 -313.5c-7.33301 -6 -13.666 -9.83301 -18.999 -11.5s-12 -2.5 -20 -2.5s-14.667 0.833008 -20 2.5s-11.666 5.5 -18.999 11.5z" />
    <glyph glyph-name="W" unicode="W" horiz-adv-x="689" 
d="M37 57c0 4 0.334961 10.3359 1.00195 19.0029s1 13.667 1 15l33.5 139l22.5 98l14 64c3.33301 16 5.66602 28.5 6.99902 37.5s2.16602 15.333 2.49902 19s0.5 6.5 0.5 8.5c0 4 0.166992 11 0.5 21s-0.166992 20.167 -1.5 30.5s-3.83301 19.333 -7.5 27
s-9.83398 11.5 -18.501 11.5s-15.834 -2.83301 -21.501 -8.5l-16.5 -17c-5.33301 -5.66699 -11.166 -10.5 -17.499 -14.5s-14.166 -4.33301 -23.499 -1c9.33301 28 21.166 48 35.499 60s35.5 18 63.5 18c16.667 0 29.167 -3.16699 37.5 -9.5s14 -14.666 17 -24.999
s4.5 -22.166 4.5 -35.499v-41c0 -25.333 -2.16699 -50.333 -6.5 -75s-9.16602 -49.334 -14.499 -74.001s-10.166 -49.334 -14.499 -74.001s-6.5 -49.667 -6.5 -75c0 -1.33301 0.166992 -4.5 0.5 -9.5s0.5 -8.16699 0.5 -9.5l13 13l131.5 190l78.5 114.5
c19.333 27.667 34.333 46.5 45 56.5s20.667 15 30 15c8.66699 0 15.5 -2.33301 20.5 -7s8.83301 -10.334 11.5 -17.001s4.5 -13.834 5.5 -21.501s1.5 -14.5 1.5 -20.5v-310h13l349 531c18 26.667 36.667 44.167 56 52.5s44 8.16602 74 -0.500977l-103 -104l-141.5 -223.5
l-96 -161l-62 -108c-15.667 -27.667 -28.834 -49.334 -39.501 -65.001s-20 -26.334 -28 -32.001s-17.333 -8.5 -28 -8.5c-18 0 -31.167 5.66699 -39.5 17s-14 24.833 -17 40.5s-4.33301 31.834 -4 48.501s0.5 30.334 0.5 41.001c0 24 0.166992 45.833 0.5 65.5
s1 39.167 2 58.5s2.33301 39.5 4 60.5s4.16699 45.167 7.5 72.5l-147.5 -222c-38.333 -56.667 -69.5 -100.667 -93.5 -132s-42.833 -52.5 -56.5 -63.5s-26.167 -16.5 -37.5 -16.5c-18 0 -29.667 2.83301 -35 8.5s-8 15.167 -8 28.5z" />
    <glyph glyph-name="X" unicode="X" horiz-adv-x="687" 
d="M71 23c0 1.33301 0.331055 2.32715 0.998047 2.99414l38 40.5l45.5 49.5l46 53c15 18 27.833 35 38.5 51c2 3.33301 4.66699 8.33301 8 15s5 10.667 5 12c-10.667 29.333 -18.5 60.833 -23.5 94.5s-8.5 67.5 -10.5 101.5s-3.16699 67.5 -3.5 100.5
s-0.833008 63.5 -1.5 91.5c-7.33301 14.667 -19.166 23 -35.499 25s-34 1.16699 -53 -2.5s-37.667 -8.16699 -56 -13.5s-32.833 -8.33301 -43.5 -9h-7c5.33301 16.667 15.5 31.167 30.5 43.5s32.333 22 52 29s40.334 10.833 62.001 11.5s41.667 -2.16602 60 -8.49902
s33.833 -16.666 46.5 -30.999s20 -33.166 22 -56.499l12 -312c12 8 25.333 20 40 36s29.834 34.333 45.501 55l48 66.5l47.5 69l43 62.5c13.333 19.333 25.333 35.333 36 48c10 14 18.667 23 26 27s13.333 4.83301 18 2.5s7.66699 -7.33301 9 -15s1.33301 -16.334 0 -26.001
s-4.33301 -19.167 -9 -28.5s-10.667 -17.333 -18 -24l-104.5 -138l-70 -95l-42.5 -60c-10 -14.667 -17.333 -25.834 -22 -33.501s-7.33398 -12.667 -8.00098 -15s-1 -3.83301 -1 -4.5c0 -25.333 5.16699 -47.666 15.5 -66.999s24 -36.166 41 -50.499s36.5 -26.5 58.5 -36.5
s44.5 -18.167 67.5 -24.5s45.667 -11.166 68 -14.499s42.833 -5.33301 61.5 -6c-8 -8 -12.833 -14.667 -14.5 -20l-4 -13c-1 -3.33301 -3.16699 -5.66602 -6.5 -6.99902s-10 -2 -20 -2c-60.667 0 -117.667 13.167 -171 39.5s-98 61.5 -134 105.5
c-2.66699 4 -7.16699 9.33301 -13.5 16s-10.166 10.334 -11.499 11.001c-4.66699 1.33301 -11.167 -2 -19.5 -10s-18 -18.167 -29 -30.5l-35 -41c-12.333 -15 -24.833 -29 -37.5 -42s-25.334 -23.833 -38.001 -32.5s-24.667 -13 -36 -13
c-5.33301 -0 -8.83301 2.33301 -10.5 7s-2.5 8.66699 -2.5 12v4z" />
    <glyph glyph-name="Y" unicode="Y" horiz-adv-x="602" 
d="M-245 -748c53.333 15.333 103.5 43.1699 150.5 83.5029s91 88.333 132 144s79 116.167 114 181.5s67 131 96 197s55.167 129.667 78.5 191l61.5 161.5c17.667 46.333 30 77.166 37 92.499s18.833 33.666 35.5 54.999c-16.667 -18 -37.834 -39.333 -63.501 -64
s-53.5 -48 -83.5 -70s-61 -40.667 -93 -56s-62.333 -23 -91 -23c-18.667 0 -33.834 4.16699 -45.501 12.5s-20.834 19 -27.501 32s-11.167 27.667 -13.5 44s-3.5 32.833 -3.5 49.5c0 14 3.66699 34.167 11 60.5s17 55.166 29 86.499s25.333 63.333 40 96
s29.667 62.334 45 89.001s29.833 48.5 43.5 65.5s25.167 25.5 34.5 25.5c8.66699 0 16.334 -2 23.001 -6s10 -10.667 10 -20c0 -12.667 -3.33301 -24.167 -10 -34.5s-17 -16.5 -31 -18.5c-9.33301 -10.667 -19.833 -26.167 -31.5 -46.5s-23.167 -43 -34.5 -68
s-22 -51.167 -32 -78.5s-17.5 -53.333 -22.5 -78s-7.16699 -47 -6.5 -67s6 -35 16 -45s25 -14 45 -12s46.667 12.667 80 32c34 24.667 66 51.667 96 81s57.667 59 83 89s48 59.167 68 87.5s37.333 54 52 77s26.334 42.167 35.001 57.5s14.334 25 17.001 29
c7.33301 10.667 13.666 19.5 18.999 26.5s11.166 12.5 17.499 16.5s13.833 6.66699 22.5 8s20.334 2 35.001 2c-5.33301 -18 -12.666 -37.833 -21.999 -59.5s-22.166 -49.667 -38.499 -84l-61.5 -131l-89.5 -201l-123 -292.5l-162.5 -406c-14 -28 -33.833 -59 -59.5 -93
s-53.667 -67.167 -84 -99.5s-61.666 -61.833 -93.999 -88.5s-62.333 -47 -90 -61s-51.834 -19.333 -72.501 -16s-34.334 18.666 -41.001 45.999z" />
    <glyph glyph-name="Z" unicode="Z" horiz-adv-x="873" 
d="M582 -1c-24.667 1.33301 -48.1699 5.17285 -70.5029 11.5059s-44.5 13.833 -66.5 22.5l-66 26.5c-22 9 -44.833 16.667 -68.5 23s-48.667 10.666 -75 12.999s-54.833 0.833008 -85.5 -4.5c-8.66699 -2 -17.834 -6.66699 -27.501 -14s-18.834 -15.333 -27.501 -24
s-16.334 -16.834 -23.001 -24.501s-11.334 -12.834 -14.001 -15.501c-1.33301 0 -3.5 -0.166992 -6.5 -0.5s-5.16699 -0.5 -6.5 -0.5c-18 0 -27 9 -27 27c0 1.33301 0.166992 3.5 0.5 6.5s0.5 5.16699 0.5 6.5l128 126.5c42.667 42.333 82.834 86.166 120.501 131.499
s71.334 93.166 101.001 143.499s52.834 104.5 69.501 162.5c-26.667 -2 -55.167 -4.66699 -85.5 -8s-60.5 -8.5 -90.5 -15.5s-58.667 -16.333 -86 -28s-51.333 -27.167 -72 -46.5c-10 0 -16 3.83301 -18 11.5s-3 15.167 -3 22.5c0 6 0.166992 10.5 0.5 13.5
s1.33301 5.33301 3 7s4.33398 3.16699 8.00098 4.5s9.16699 3.66602 16.5 6.99902l80 33c28 12 56.5 23.167 85.5 33.5s58.333 19.166 88 26.499s59.5 11 89.5 11h9.5c4.33301 0 8.83301 -0.166992 13.5 -0.5s9.16699 -0.5 13.5 -0.5h8.5c14 -5.33301 22 -12.333 24 -21
s3 -18.334 3 -29.001c0 -20 -2 -37.5 -6 -52.5s-11 -32.833 -21 -53.5l-68 -94.5l-77.5 -102.5l-82.5 -101.5c-28 -33 -55.667 -63.167 -83 -90.5c10 0.666992 24.333 1.5 43 2.5s38.834 1.33301 60.501 1s43 -1.66602 64 -3.99902s38.833 -6.16602 53.5 -11.499
c16.667 -6.66699 31.834 -13.834 45.501 -21.501s27 -14.667 40 -21s26.5 -11.666 40.5 -15.999s29.667 -6.5 47 -6.5c30 0 59.333 3.66699 88 11s57 15.166 85 23.499l81.5 23.5c26.333 7.33301 51.833 11 76.5 11v-17c0 -0.666992 -3.5 -3.16699 -10.5 -7.5l-24.5 -15
c-9.33301 -5.66699 -19.166 -11.167 -29.499 -16.5l-25.5 -13c-41.333 -19.333 -80.833 -35.166 -118.5 -47.499s-78.5 -18.5 -122.5 -18.5z" />
    <glyph glyph-name="bracketleft" unicode="[" horiz-adv-x="642" 
d="M18 104c3.33301 8 7.83594 15.1699 13.5029 21.5029s12.334 16 20.001 29s17 31.167 28 54.5s23.667 56.333 38 99s30.5 96.667 48.5 162s38.333 146.333 61 243l5 34.5c2 13.667 4.83301 27.334 8.5 41.001s8.66699 26.667 15 39s14.166 21.5 23.499 27.5
c4.66699 0 12.667 0.166992 24 0.5s23.5 0.666016 36.5 0.999023s25.333 0.5 37 0.5h24.5h32.5c13.667 0 27 -0.166992 40 -0.5s24.5 -0.666016 34.5 -0.999023s15.667 -0.5 17 -0.5c6 0 15 -0.333008 27 -1s23.833 -2.33398 35.5 -5.00098s21.834 -7 30.501 -13
s13 -14.333 13 -25c0 -10 -2.33301 -20.333 -7 -31s-13.667 -16 -27 -16c-0.666992 0 -1.83398 0.166992 -3.50098 0.5s-2.83398 0.5 -3.50098 0.5c-3.33301 2.66699 -14.166 5.16699 -32.499 7.5s-39.833 3.83301 -64.5 4.5s-50.667 0.166992 -78 -1.5
s-51.833 -4.83398 -73.5 -9.50098s-38.834 -11.334 -51.501 -20.001s-16.334 -19.667 -11.001 -33c-30 -93.333 -57.667 -188 -83 -284l-73 -287c0 -0.666992 -0.166992 -3.33398 -0.5 -8.00098s-0.5 -8.33398 -0.5 -11.001v-8c0 -3.33301 0.333008 -6.83301 1 -10.5
s2 -6.83398 4 -9.50098s5 -4 9 -4h285c7.33301 0 11.5 -3.33301 12.5 -10s1.5 -12 1.5 -16c0 -1.33301 -0.166992 -3.5 -0.5 -6.5s-0.5 -5.16699 -0.5 -6.5c-42 -14.667 -85.667 -27.167 -131 -37.5s-90 -15.5 -134 -15.5c-17.333 0 -34.833 1.33301 -52.5 4
s-33.834 7.83398 -48.501 15.501s-26.667 18.334 -36 32.001s-14 31.5 -14 53.5z" />
    <glyph glyph-name="backslash" unicode="\" horiz-adv-x="265" 
d="M12 713c0 6.66699 1.16699 15 3.5 25s8.16602 15 17.499 15h3.5c1.66699 0 2.5 -0.333008 2.5 -1c2 -1.33301 4.33301 -3.16602 7 -5.49902s5.5 -5 8.5 -8l8 -8c2.33301 -2.33301 3.5 -3.83301 3.5 -4.5l181 -674v-52c-27.333 9.33301 -44.666 26.666 -51.999 51.999
l-182 648c-0.666992 1.33301 -1 3 -1 5v8z" />
    <glyph glyph-name="bracketright" unicode="]" horiz-adv-x="660" 
d="M44 39c0 2.66699 1.66406 7.33691 4.99707 14.0039s6 10.667 8 12c6 7.33301 20.667 12.666 44 15.999s50.833 5.33301 82.5 6s65.5 0.5 101.5 -0.5s69.333 -1.83301 100 -2.5s56.5 -0.666992 77.5 0s32.833 3 35.5 7c6.66699 14.667 10.834 30.5 12.501 47.5
s2.33398 34 2.00098 51s-1 33.667 -2 50s-0.833008 31.5 0.5 45.5c1.33301 13.333 3.5 33.833 6.5 61.5l10.5 94c4 35 8.5 71.833 13.5 110.5l14 110l11.5 93.5c3.33301 27.667 6 48.167 8 61.5v27h-311c-4 0 -9 1.66699 -15 5s-11.667 7.16602 -17 11.499
s-10 9.16602 -14 14.499s-6 10 -6 14c0 3.33301 1.5 7 4.5 11s6.66699 7.66699 11 11s8.66602 6 12.999 8s8.16602 3 11.499 3h386l-76 -752v-143c0 -3.33301 -3.16699 -8.33301 -9.5 -15s-11.5 -10.334 -15.5 -11.001c-1.33301 0 -4.66602 0.5 -9.99902 1.5
s-11 2.33301 -17 4s-11.5 3.33398 -16.5 5.00098s-8.16699 2.5 -9.5 2.5c-12.667 4 -30.5 5.5 -53.5 4.5s-48.5 -2.66699 -76.5 -5l-88.5 -7.5c-31 -2.66699 -60.667 -3.66699 -89 -3s-54.166 3.66699 -77.499 9s-41.666 14.666 -54.999 27.999z" />
    <glyph glyph-name="asciicircum" unicode="^" horiz-adv-x="395" 
d="M39 757c0 5.33301 3.16504 13.832 9.49805 25.499s14.5 24.667 24.5 39s21.167 29 33.5 44s24.333 28.5 36 40.5s22.5 22 32.5 30s17.667 12 23 12c10.667 0 21.834 -3.33301 33.501 -10s23.334 -15.5 35.001 -26.5s22.834 -23 33.501 -36s20 -26 28 -39
s14.5 -25 19.5 -36s7.5 -19.5 7.5 -25.5c-0.666992 -14 -4.5 -20.333 -11.5 -19s-15.5 7 -25.5 17s-20.667 22.5 -32 37.5l-32 43c-10 13.667 -18.667 24.5 -26 32.5s-11.666 10 -12.999 6c-4.66699 0 -7.83398 -0.666992 -9.50098 -2s-4.16699 -3.66602 -7.5 -6.99902
c-14 -6 -26.833 -14.667 -38.5 -26s-22.167 -23.333 -31.5 -36s-18 -25 -26 -37s-15.5 -21.667 -22.5 -29s-13.833 -11.333 -20.5 -12s-13.334 4 -20.001 14z" />
    <glyph glyph-name="underscore" unicode="_" horiz-adv-x="472" 
d="M66 82c10 0 27.9971 -0.169922 53.9971 -0.50293s53.833 -0.666016 83.5 -0.999023s57.667 -0.833008 84 -1.5s44.5 -1 54.5 -1c3.33301 0 9.33301 -0.666992 18 -2s17.834 -2.66602 27.501 -3.99902s18.834 -2.66602 27.501 -3.99902s14.667 -2.33301 18 -3
c0.666992 -1.33301 1 -4.66602 1 -9.99902v-10v-8c0 -3.33301 -0.333008 -6.83301 -1 -10.5s-2 -6.83398 -4 -9.50098s-5 -4 -9 -4h-337c-1.33301 0 -3.66602 1.83301 -6.99902 5.5s-5 6.16699 -5 7.5c-0.666992 2 -1.33398 5.66699 -2.00098 11s-1.16699 11 -1.5 17
s-0.666016 11.667 -0.999023 17s-0.5 9 -0.5 11z" />
    <glyph glyph-name="grave" unicode="`" horiz-adv-x="237" 
d="M90 840c9.33301 -5.33301 20.665 -15.1699 33.998 -29.5029s26.333 -29.833 39 -46.5s24 -32.667 34 -48s16.333 -26.666 19 -33.999c-1.33301 -8 -7.16602 -9.66699 -17.499 -5s-22.166 12.834 -35.499 24.501s-26.833 25.334 -40.5 41.001s-25 30.667 -34 45
s-14 26.5 -15 36.5s4.5 15.333 16.5 16z" />
    <glyph glyph-name="a" unicode="a" horiz-adv-x="432" 
d="M18 65c6 38 17.333 73.0029 34 105.003s35.834 59.833 57.501 83.5s45.167 43.167 70.5 58.5s50 25.166 74 29.499s46.167 3.16602 66.5 -3.50098s36.833 -20 49.5 -40c0 -15.333 -3.5 -30 -10.5 -44s-14.667 -28 -23 -42s-16 -28.333 -23 -43
s-10.5 -30.334 -10.5 -47.001c0 -17.333 3.83301 -31.166 11.5 -41.499s21.167 -15.5 40.5 -15.5c16 0 31.5 2.33301 46.5 7s30.167 7 45.5 7c2.66699 0 7.16699 -0.166992 13.5 -0.5s10.5 -0.5 12.5 -0.5c-8 -11.333 -18.333 -21 -31 -29s-26 -14.833 -40 -20.5
s-28.5 -9.83398 -43.5 -12.501s-28.833 -4 -41.5 -4c-12 0 -22.667 2.66699 -32 8s-17.333 12.333 -24 21s-11.834 18.5 -15.501 29.5s-5.5 21.833 -5.5 32.5l-32.5 -35.5c-11.667 -12.333 -24 -23.5 -37 -33.5s-27 -18.333 -42 -25s-30.5 -10 -46.5 -10
c-17.333 0 -32.333 6.5 -45 19.5s-19 28.5 -19 46.5zM84 96.0029c0 -5.33301 0.166992 -11.3359 0.5 -18.0029s4.5 -11 12.5 -13c16.667 4 35.667 12.833 57 26.5s41.333 29.667 60 48s34.334 38 47.001 59s19 41.167 19 60.5c0 1.33301 -0.166992 3.5 -0.5 6.5
s-0.5 5.16699 -0.5 6.5c-22.667 0 -45.667 -4.66699 -69 -14s-44.333 -22.166 -63 -38.499s-33.834 -35.166 -45.501 -56.499s-17.5 -43.666 -17.5 -66.999z" />
    <glyph glyph-name="b" unicode="b" horiz-adv-x="447" 
d="M5 91c0 8.66699 2.16602 18.498 6.49902 29.498s11.166 18.167 20.499 21.5c1.33301 0.666992 3.16602 1.16699 5.49902 1.5s4.5 0.833008 6.5 1.5c2.66699 0.666992 5 1 7 1v-55c4 4 10.167 11.333 18.5 22l26 34.5l25 35.5c7.66699 11.333 12.834 19.666 15.501 24.999
l233 454l5.5 6c3.66699 4 8 6.83301 13 8.5s10.5 0.833984 16.5 -2.49902s11.667 -12 17 -26l-142 -286v-12c18.667 -2.66699 36 -6.5 52 -11.5s29.833 -12.167 41.5 -21.5s20.834 -20.833 27.501 -34.5s10 -30.167 10 -49.5c0 -32.667 -8.5 -63.167 -25.5 -91.5
s-38.833 -53 -65.5 -74s-56.167 -37.667 -88.5 -50s-63.5 -18.5 -93.5 -18.5c-13.333 0 -27.666 1.83301 -42.999 5.5s-29.5 9.33398 -42.5 17.001s-24 17.334 -33 29.001s-13.5 25.167 -13.5 40.5zM289.999 286.998c-9.33301 0 -19.499 -4.33008 -30.499 -12.9971
s-21.833 -19.834 -32.5 -33.501s-21 -29 -31 -46s-18.833 -33.833 -26.5 -50.5s-13.834 -32.334 -18.501 -47.001s-7 -26.334 -7 -35.001c18.667 0 39.667 4.33301 63 13s45.166 20.167 65.499 34.5s37.333 31 51 50s20.5 38.833 20.5 59.5c0 18 -3.66699 33.833 -11 47.5
s-21.666 20.5 -42.999 20.5z" />
    <glyph glyph-name="c" unicode="c" horiz-adv-x="348" 
d="M253 362c-15.333 -2 -33 -11.501 -53 -28.501s-39.167 -37.667 -57.5 -62s-33.833 -50.666 -46.5 -78.999s-19 -54.5 -19 -78.5c0 -19.333 5 -32.833 15 -40.5s24.333 -11.5 43 -11.5c20 0 39.5 2.5 58.5 7.5s38 10.333 57 16s38 11 57 16s38.5 7.5 58.5 7.5
c0 -9.33301 -1.33301 -17.166 -4 -23.499s-6.66699 -13.166 -12 -20.499c-34.667 -16.667 -70.334 -31.834 -107.001 -45.501s-75 -20.5 -115 -20.5c-12 0 -24.667 2.16699 -38 6.5s-25.666 10.5 -36.999 18.5s-20.833 17.667 -28.5 29s-11.5 24 -11.5 38
c0 30 4.33301 59.167 13 87.5s20.667 55.166 36 80.499s33.833 48.666 55.5 69.999s45.167 40 70.5 56v1c10 6 21.5 11.833 34.5 17.5s25.167 9 36.5 10s20.833 -1.66699 28.5 -8s11.5 -18.166 11.5 -35.499c0 -8 -0.666992 -18.5 -2 -31.5s-5 -22.167 -11 -27.5
c-5.33301 -3.33301 -12.333 -6.33301 -21 -9c-4 -1.33301 -8 -2.33301 -12 -3v63z" />
    <glyph glyph-name="d" unicode="d" horiz-adv-x="520" 
d="M12 99c0 33.333 9.50293 66.002 28.5029 98.002s43.167 60.333 72.5 85s61.666 44.5 96.999 59.5s69 22.5 101 22.5c12.667 0 24.667 -2.33301 36 -7s23.333 -7 36 -7h6c3.33301 7.33301 9.83301 20.333 19.5 39l31 59l31.5 58.5c10 18.333 17.333 31.166 22 38.499
c7.33301 12.667 17.333 28.5 30 47.5l37.5 55.5l32.5 46c9.33301 12.667 14.666 19 15.999 19l39 -39c0 -1.33301 -2.5 -7.33301 -7.5 -18l-19.5 -41.5l-27.5 -56.5l-31.5 -62l-30.5 -59.5c-9.66699 -19 -18.167 -34.833 -25.5 -47.5l-62.5 -95.5
c-21 -32.333 -37.667 -62.333 -50 -90s-18.333 -51.834 -18 -72.501s11.5 -35 33.5 -43c40 7.33301 70 10.333 90 9s32.5 -4.83301 37.5 -10.5s4.16699 -12.334 -2.5 -20.001s-17.167 -14.5 -31.5 -20.5s-30.833 -10 -49.5 -12s-37.334 0 -56.001 6s-35.667 17 -51 33
s-27 39 -35 69l-155 -129l-7.5 -2c-5 -1.33301 -11 -2.66602 -18 -3.99902l-21.5 -4c-7.33301 -1.33301 -13.333 -2.33301 -18 -3h-6c-15.333 -0 -27.833 2.83301 -37.5 8.5s-17.167 13 -22.5 22s-8.83301 19.5 -10.5 31.5s-2.5 24.333 -2.5 37zM77.0029 110.002
c0 -4 -0.167969 -8.66895 -0.500977 -14.002s0 -10.166 1 -14.499s3 -8.16602 6 -11.499s7.5 -5 13.5 -5c8.66699 0 19.167 3.16699 31.5 9.5s24.5 13.833 36.5 22.5s23.167 17.334 33.5 26.001l22.5 19l26 25.5l39.5 39.5l38.5 39c12 12 20.333 20.667 25 26v3
c0 1.33301 0.166992 2.16602 0.5 2.49902s0.5 0.833008 0.5 1.5c0 6 -1.83301 10.5 -5.5 13.5s-8 5 -13 6s-10.167 1.33301 -15.5 1s-9.66602 -0.5 -12.999 -0.5c-24 0 -49.333 -5 -76 -15s-51.167 -23.5 -73.5 -40.5s-40.833 -37 -55.5 -60s-22 -47.5 -22 -73.5z" />
    <glyph glyph-name="e" unicode="e" 
d="M16 52c-11.333 25.333 -16.333 50.166 -15 74.499s6.83301 47.333 16.5 69s22.334 41.334 38.001 59.001s32.5 33 50.5 46s36.167 22.833 54.5 29.5s34.5 9.5 48.5 8.5s25 -6.16699 33 -15.5s10.667 -23.666 8 -42.999c0 -26 -8.16699 -48.667 -24.5 -68
s-34.333 -36.666 -54 -51.999l-54 -41.5c-16.333 -12.333 -24.5 -23.833 -24.5 -34.5c0 -6 3.5 -10.667 10.5 -14s15.167 -5.83301 24.5 -7.5s18.666 -2.83398 27.999 -3.50098s16 -1.33398 20 -2.00098c62.667 13.333 109.667 21.5 141 24.5s51 2.66699 59 -1
s6.5 -9.33398 -4.5 -17.001s-27.833 -15.667 -50.5 -24s-49 -15.833 -79 -22.5s-59.667 -10.5 -89 -11.5s-56.5 1.83301 -81.5 8.5s-43.5 19.334 -55.5 38.001zM191 280c-13.333 0 -25.999 -3.66797 -37.999 -11.001s-22.833 -16.5 -32.5 -27.5s-17.834 -23 -24.501 -36
s-11.667 -25.167 -15 -36.5c1.33301 -0.666992 2.33301 -1 3 -1h3c9.33301 0 20 4 32 12s23.333 17.833 34 29.5s19.667 23.834 27 36.501s11 24 11 34z" />
    <glyph glyph-name="f" unicode="f" horiz-adv-x="464" 
d="M-228 -318c37.333 0 71.3281 10.6641 101.995 31.9971s58.334 47.833 83.001 79.5s46 65.334 64 101.001s32.667 67.834 44 96.501c4.66699 12 10.667 28.5 18 49.5l21.5 62c7 20.333 13 38.5 18 54.5s7.5 25.333 7.5 28v4c-11.333 9.33301 -22.666 12.833 -33.999 10.5
s-22.166 -5.66602 -32.499 -9.99902s-19.833 -7 -28.5 -8s-16.334 4.83301 -23.001 17.5c0 11.333 3 20.333 9 27s13.667 12 23 16s19.666 7 30.999 9s22.333 4.33301 33 7s20.334 6.33398 29.001 11.001s15 11.334 19 20.001l103 233c8.66699 18.667 20.667 36.167 36 52.5
s32.666 30.166 51.999 41.499s39.666 20.333 60.999 27s42 10 62 10c28.667 0 48.334 -7.66699 59.001 -23s16 -38.333 16 -69c0 -6 -2.16699 -13.667 -6.5 -23s-9.83301 -18.333 -16.5 -27s-14 -16 -22 -22s-15.667 -9 -23 -9c0 8.66699 1.66699 16.834 5 24.501
s6.83301 15.167 10.5 22.5s7.16699 14.833 10.5 22.5s5 16.167 5 25.5c0 10.667 -1 19.667 -3 27s-10.333 11 -25 11c-19.333 0 -38.833 -4.83301 -58.5 -14.5s-38.667 -22.667 -57 -39s-35.666 -35 -51.999 -56s-30.333 -42.5 -42 -64.5s-21 -43.833 -28 -65.5
s-10.5 -41.167 -10.5 -58.5c0 -1.33301 0.166992 -3.5 0.5 -6.5s0.5 -5.16699 0.5 -6.5l43.5 14c16.333 5.33301 33.333 10.166 51 14.499s35.334 8 53.001 11s34.5 4.5 50.5 4.5c0 -10.667 -5.33301 -20.334 -16 -29.001s-24.167 -16.667 -40.5 -24
s-34.333 -14.333 -54 -21l-55.5 -19.5c-17.333 -6.33301 -32.5 -13 -45.5 -20s-21.167 -14.167 -24.5 -21.5c-3.33301 -20 -10.5 -47.667 -21.5 -83s-25.167 -73.666 -42.5 -114.999s-37.166 -83.333 -59.499 -126s-46.666 -81.334 -72.999 -116.001s-54 -63 -83 -85
s-58.833 -33 -89.5 -33c-4 0 -9.16699 0.333008 -15.5 1s-12.333 2 -18 4s-10.5 5 -14.5 9s-6 9 -6 15z" />
    <glyph glyph-name="g" unicode="g" horiz-adv-x="451" 
d="M-176 -531c0 38 6.5 72.001 19.5 102.001s30.167 57.833 51.5 83.5s45.666 49.334 72.999 71.001s55.333 42.667 84 63l84 61.5c27.333 20.667 51.666 42.667 72.999 66s38.5 48.666 51.5 75.999s19.5 57.666 19.5 90.999v9.5c0 5 -0.333008 8.16699 -1 9.5
c-4.66699 -4 -13.667 -9.83301 -27 -17.5l-42.5 -24c-15 -8.33301 -29.5 -15.833 -43.5 -22.5s-24 -11 -30 -13c-0.666992 0 -3.16699 -0.333008 -7.5 -1s-9.33301 -1.33398 -15 -2.00098s-11.167 -1.16699 -16.5 -1.5s-9.66602 -0.5 -12.999 -0.5
c-30 5.33301 -50 15.833 -60 31.5s-12.667 34.167 -8 55.5s15.167 44.166 31.5 68.499s36 47.666 59 69.999s48 42.333 75 60s53.333 30.334 79 38.001s49.334 9.33398 71.001 5.00098s38.5 -17.5 50.5 -39.5c4 -28 4 -54.167 0 -78.5s-9.33301 -48.166 -16 -71.499
l-20 -70.5c-6.66699 -23.667 -10.667 -49.5 -12 -77.5h9l20.5 21l31 31.5l31.5 31l21 20.5c2 2 6.16699 4.66699 12.5 8s10.833 5 13.5 5v-3v-2c0 -0.666992 0.333008 -1 1 -1c0 -24 -6.83301 -46 -20.5 -66s-30.167 -38.667 -49.5 -56s-39.333 -33.5 -60 -48.5
s-38 -29.5 -52 -43.5c-11.333 -23.333 -23.666 -52.5 -36.999 -87.5l-44 -112c-16 -39.667 -33.833 -80 -53.5 -121s-41.667 -78.833 -66 -113.5s-51.166 -64.5 -80.499 -89.5s-62 -41.167 -98 -48.5c-17.333 0 -31.833 4.33301 -43.5 13s-20.834 19.5 -27.501 32.5
s-11.334 27.333 -14.001 43s-4 30.5 -4 44.5zM-123 -584.999c5.33301 -12.667 11.668 -20.335 19.001 -23.002s15.666 -4 24.999 -4c17.333 0 36.333 9 57 27s41.5 41.167 62.5 69.5s41.167 59.833 60.5 94.5s36.5 68.334 51.5 101.001s27 62.5 36 89.5
s13.5 47.167 13.5 60.5c0 1.33301 -0.166992 3.5 -0.5 6.5s-0.5 5.16699 -0.5 6.5c-2 -1.33301 -6.5 -3.5 -13.5 -6.5s-11.167 -5.16699 -12.5 -6.5l-94.5 -68.5c-35 -25 -67.667 -52.5 -98 -82.5s-55.833 -62.5 -76.5 -97.5s-31 -72.833 -31 -113.5v-11
c0 -5.33301 0.166992 -10.666 0.5 -15.999l1 -15.5c0.333008 -5 0.5 -8.5 0.5 -10.5zM318.002 297c-10.667 0 -24.667 -3.5 -42 -10.5s-35.833 -16.5 -55.5 -28.5s-39.5 -25.667 -59.5 -41s-38.167 -31.333 -54.5 -48s-29.5 -33.334 -39.5 -50.001s-15 -32 -15 -46
c14 0 31 2.83301 51 8.5s40.833 13.334 62.5 23.001s43.167 21 64.5 34s40.5 26.833 57.5 41.5s30.833 29.667 41.5 45s16 30.333 16 45c0 18 -9 27 -27 27z" />
    <glyph glyph-name="h" unicode="h" horiz-adv-x="473" 
d="M354 -1c-16.667 -2.66699 -31.835 0.168945 -45.502 8.50195s-24.5 19.333 -32.5 33s-12.667 28.667 -14 45s2 31.166 10 44.499c29.333 38 49.333 68.167 60 90.5s14.5 38 11.5 47s-11.333 12.667 -25 11s-30.167 -7.66699 -49.5 -18s-40.166 -23.833 -62.499 -40.5
s-43.166 -35 -62.499 -55s-36.166 -40.833 -50.499 -62.5s-23.5 -42.834 -27.5 -63.501c-6.66699 -4 -12.334 -7.16699 -17.001 -9.5s-10 -3.5 -16 -3.5c-10 0 -16 3.33301 -18 10s-3 13.667 -3 21c0 16.667 5.16699 33.834 15.5 51.501s22.333 34.334 36 50.001
s26.834 30 39.501 43s21.667 23.5 27 31.5c16.667 27.333 33.334 56.833 50.001 88.5l50 97l51.5 98c17.667 32.333 36.167 63.166 55.5 92.499c3.33301 5.33301 6.16602 9 8.49902 11s5.83301 3 10.5 3c5.33301 0 9.33301 -1 12 -3s5.33398 -5.66699 8.00098 -11
c0 -2.66699 -0.5 -7 -1.5 -13s-2 -12.5 -3 -19.5s-2.33301 -13.5 -4 -19.5s-2.83398 -10 -3.50098 -12l-20 -42l-30.5 -64l-31.5 -66.5l-22 -48.5c10 6.66699 19 11.834 27 15.501s15.833 6.33398 23.5 8.00098s15.667 2.66699 24 3s17.5 0.5 27.5 0.5
c24 -6 39.833 -15 47.5 -27s10 -25.833 7 -41.5s-9.5 -32.834 -19.5 -51.501l-31.5 -56.5c-11 -19 -20.833 -37.333 -29.5 -55s-12.667 -33.834 -12 -48.501c0 -6 1.33301 -10.333 4 -13s6 -4.66699 10 -6s8.33301 -2 13 -2h13c14 0 27.5 2.16699 40.5 6.5
s25.833 9.16602 38.5 14.499s25.5 10.166 38.5 14.499s26.5 6.5 40.5 6.5c0 -12.667 -6.33301 -24.667 -19 -36s-27.834 -21.166 -45.501 -29.499s-36.167 -15 -55.5 -20s-35.333 -7.5 -48 -7.5z" />
    <glyph glyph-name="i" unicode="i" horiz-adv-x="237" 
d="M5 65c0 9.33301 0.996094 17.5039 2.99609 24.5039s5.66699 16.167 11 27.5l25.5 38l39 59l39 58.5l25.5 38.5c6 8.66699 10.667 13.334 14 14.001s9.66602 1 18.999 1c6 0 12.5 -0.333008 19.5 -1s11.5 -5.33398 13.5 -14.001
c-9.33301 -22.667 -21.833 -44.167 -37.5 -64.5l-46 -60.5c-15 -20 -28.167 -40.5 -39.5 -61.5s-17 -43.5 -17 -67.5c2.66699 0 6.83398 -0.333008 12.501 -1s11.834 -1.33398 18.501 -2.00098s12.834 -1.33398 18.501 -2.00098s9.83398 -0.666992 12.501 0
c4 0.666992 10.833 2.16699 20.5 4.5l31 7.5l31.5 8c10 2.66699 17 4.66699 21 6c0 -1.33301 0.166992 -3.5 0.5 -6.5s0.5 -5.16699 0.5 -6.5c0 -13.333 -6.16699 -24.333 -18.5 -33s-26.666 -15.5 -42.999 -20.5s-33 -8.33301 -50 -10s-30.167 -2.5 -39.5 -2.5
c-10 0 -20.167 1.16699 -30.5 3.5s-19.5 6.16602 -27.5 11.499s-14.5 12.166 -19.5 20.499s-7.5 18.5 -7.5 30.5zM295.996 651.004c8.66699 0 16.6709 -0.333008 24.0039 -1s13.666 -2.33398 18.999 -5.00098s9.66602 -6.66699 12.999 -12s5 -12.666 5 -21.999v-13
c0 -4.66699 -0.5 -9.16699 -1.5 -13.5s-2.83301 -8 -5.5 -11s-7 -4.5 -13 -4.5c-9.33301 0 -16.833 3.33301 -22.5 10s-9.83398 14.5 -12.501 23.5s-4.33398 18.167 -5.00098 27.5s-1 16.333 -1 21z" />
    <glyph glyph-name="j" unicode="j" horiz-adv-x="269" 
d="M-357 -455c0 28 4.66699 54.6689 14 80.002s21.333 49.333 36 72s31.334 44.167 50.001 64.5s37.334 39.5 56.001 57.5c6.66699 6.66699 17.334 16.5 32.001 29.5l50 44l59 51l59.5 50.5l51 43l33.5 28c2 6.66699 5.66699 16.667 11 30l18.5 46l21.5 54l21.5 53.5
l19 45.5l12.5 30c3.33301 8 7.5 16.5 12.5 25.5s10.667 17.5 17 25.5s13.666 14.667 21.999 20s17.5 8 27.5 8c0 -21.333 -3.5 -45 -10.5 -71s-15.5 -51.667 -25.5 -77s-20.167 -49 -30.5 -71l-25.5 -54c1.33301 0 3.5 -0.166992 6.5 -0.5s5.16699 -0.5 6.5 -0.5
c17.333 0 33.833 2.33301 49.5 7s32.167 7 49.5 7c5.33301 0 11.166 -0.333008 17.499 -1s10.5 -4.66699 12.5 -12c-7.33301 -14.667 -18.666 -25 -33.999 -31s-31.833 -11 -49.5 -15s-34.334 -9 -50.001 -15s-26.834 -16 -33.501 -30l-18.5 -37.5l-28 -57l-33 -67
l-32.5 -67.5l-27 -58c-8 -17.333 -13.667 -30 -17 -38c-11.333 -24 -23.5 -52.333 -36.5 -85s-28.667 -63.834 -47 -93.501s-40.166 -54.834 -65.499 -75.501s-55.666 -31 -90.999 -31c-16.667 0 -31.834 3.16699 -45.501 9.5s-25.334 14.833 -35.001 25.5
s-17.167 23 -22.5 37s-8 28.667 -8 44zM-306 -438.998c0 -10 0.500977 -19.6709 1.50098 -29.0039s3.33301 -17.833 7 -25.5s9 -13.834 16 -18.501s16.833 -7 29.5 -7c24.667 0 48 8.83301 70 26.5s41.833 38.667 59.5 63s33.167 49.833 46.5 76.5s23.666 49 30.999 67
l16 40.5l19 49.5l20 51.5l17.5 45.5l12.5 33c3.33301 8.66699 5 13.334 5 14.001v26c-1.33301 -1.33301 -4 -3.16602 -8 -5.49902s-8 -4.83301 -12 -7.5l-11.5 -7.5c-3.66699 -2.33301 -6.16699 -4.16602 -7.5 -5.49902c-5.33301 -4.66699 -13.833 -12.5 -25.5 -23.5
l-39 -36.5l-45.5 -42.5l-45.5 -43l-39 -37l-25.5 -24.5c-9.33301 -15.333 -19.333 -29.666 -30 -42.999s-20.5 -27 -29.5 -41s-16.667 -28.667 -23 -44s-9.5 -32.666 -9.5 -51.999zM343.001 771.998c0 4.66699 1.66895 8.83398 5.00195 12.501s7.5 7 12.5 10
s10.167 5.33301 15.5 7s9.66602 2.5 12.999 2.5c10 0 16 -3.83301 18 -11.5s3 -15.167 3 -22.5c0 -12.667 -3.5 -23.5 -10.5 -32.5s-17.167 -13.5 -30.5 -13.5c-6 0 -10.833 1.5 -14.5 4.5s-6.33398 7 -8.00098 12s-2.66699 10.167 -3 15.5s-0.5 10.666 -0.5 15.999z" />
    <glyph glyph-name="k" unicode="k" horiz-adv-x="479" 
d="M150 142c-8 -10.667 -14.665 -22.666 -19.998 -35.999s-11.333 -26 -18 -38s-14.667 -22 -24 -30s-21.666 -12 -36.999 -12c-12.667 0 -21.334 2.16699 -26.001 6.5s-7 13.166 -7 26.499c0 16 4.5 33.667 13.5 53s19.833 38.166 32.5 56.499s25.667 35.5 39 51.5l33 39
l185 400c4.66699 11.333 13.167 22 25.5 32s25.166 15 38.499 15v-33l-106 -245v-24c11.333 0 22 1.83301 32 5.5s20 7.83398 30 12.501s20.5 8.83398 31.5 12.501s23.167 5.5 36.5 5.5c12 -8 18.333 -17.833 19 -29.5s-2.33301 -24.334 -9 -38.001
s-15.834 -27.5 -27.501 -41.5s-23.834 -27.5 -36.501 -40.5s-24.834 -24.5 -36.501 -34.5l-26.5 -23c-10 -8 -19.167 -13.5 -27.5 -16.5s-15.5 -5.83301 -21.5 -8.5s-10.5 -6.66699 -13.5 -12s-4.5 -14.333 -4.5 -27c0 -18.667 5 -33.834 15 -45.501
s23.167 -20.834 39.5 -27.501s34.666 -11.167 54.999 -13.5s40.833 -3.5 61.5 -3.5s40.334 0.833008 59.001 2.5s34.667 3.5 48 5.5l12 -12c-7.33301 -10 -18.5 -19.5 -33.5 -28.5s-31.333 -17 -49 -24s-35.167 -12.667 -52.5 -17s-31.666 -6.5 -42.999 -6.5
c-21.333 0 -42 3.5 -62 10.5s-38.333 16.833 -55 29.5s-31.167 27.834 -43.5 45.501s-21.166 36.834 -26.499 57.501zM347.002 367.001c-6 0 -14.999 -2.33203 -26.999 -6.99902s-24 -10.667 -36 -18s-22.333 -15.333 -31 -24s-13 -17.334 -13 -26.001v-7l24.5 10
c11.667 4.66699 23.667 10.5 36 17.5s23.166 15.167 32.499 24.5s14 19.333 14 30z" />
    <glyph glyph-name="l" unicode="l" horiz-adv-x="255" 
d="M6 91c0 4.66699 0.499023 11.8291 1.49902 21.4961s2.16699 19.167 3.5 28.5s2.66602 17.833 3.99902 25.5s2.66602 12.5 3.99902 14.5l182 364c2.66699 5.33301 7.83398 12.833 15.501 22.5s16 19.667 25 30s18 20 27 29s16.5 16.167 22.5 21.5
c4.66699 -1.33301 8 -3.66602 10 -6.99902s3.33301 -7.16602 4 -11.499s0.833984 -8.5 0.500977 -12.5s-0.5 -7.33301 -0.5 -10v-14c0 -6 -0.333008 -9 -1 -9c-6.66699 -18 -17 -39.333 -31 -64l-47 -79l-53.5 -87.5c-18.333 -30.333 -35 -60.333 -50 -90
s-27.333 -58.167 -37 -85.5s-14.5 -52.333 -14.5 -75c0 -12 3.5 -21.5 10.5 -28.5s14.5 -13.167 22.5 -18.5s15.5 -10.666 22.5 -15.999s10.5 -12.666 10.5 -21.999c0 -6 -2.66699 -10.5 -8 -13.5s-11.666 -4.5 -18.999 -4.5c-28 -0 -52.333 7.83301 -73 23.5
s-31 38.167 -31 67.5z" />
    <glyph glyph-name="m" unicode="m" horiz-adv-x="683" 
d="M493 -1c-12.667 0 -24.1699 2.32715 -34.5029 6.99414s-18.833 11.334 -25.5 20.001s-11.334 18.5 -14.001 29.5s-2.33398 22.833 0.999023 35.5c0 21.333 3.83301 41.166 11.5 59.499s16.334 36 26.001 53s18.334 34 26.001 51s11.5 35.167 11.5 54.5
c-14.667 0 -30.334 -4.66699 -47.001 -14s-33.5 -21.666 -50.5 -36.999s-33.667 -32.5 -50 -51.5s-31.666 -38 -45.999 -57s-26.666 -37.167 -36.999 -54.5s-18.166 -31.666 -23.499 -42.999c-1.33301 -0.666992 -4.66602 -1.16699 -9.99902 -1.5
s-8.66602 -0.5 -9.99902 -0.5c-10.667 -5.33301 -17.167 -5.16602 -19.5 0.500977s-2.33301 14.5 0 26.5s6.16602 25.5 11.499 40.5l15.5 43c5 13.667 8.83301 25 11.5 34s3 13.5 1 13.5c2 2.66699 4.33301 7 7 13s5.33398 12.333 8.00098 19s5 12.834 7 18.501
s3 10.167 3 13.5c0 6 -2.16699 9.83301 -6.5 11.5s-8.5 2.5 -12.5 2.5c-12 6.66699 -24.833 2.83398 -38.5 -11.499s-28.334 -34.666 -44.001 -60.999l-51 -90c-18.333 -33.667 -38.5 -66.167 -60.5 -97.5c-15.333 0 -27 2 -35 6s-12 14 -12 30
c5.33301 7.33301 13.333 21.166 24 41.499l36 67.5l42.5 75c15 25.333 29.333 46.833 43 64.5s26 29.667 37 36s19.833 3.16602 26.5 -9.50098c11.333 7.33301 23.833 13.666 37.5 18.999s27.5 8 41.5 8c9.33301 0 17.166 -2.83301 23.499 -8.5s11.333 -12.667 15 -21
s6.5 -17 8.5 -26s3 -16.833 3 -23.5c7.33301 4.66699 19.5 12.834 36.5 24.501s35.333 23.5 55 35.5s39 22.5 58 31.5s34.5 13.5 46.5 13.5c10.667 0 19.834 -3.83301 27.501 -11.5s11.5 -17.167 11.5 -28.5l-56.5 -141c-13.667 -35.333 -22.667 -62.833 -27 -82.5
s-4.33301 -33.667 0 -42s12.166 -14.833 23.499 -19.5c18 0 35.333 3 52 9s33.167 12.667 49.5 20s32.833 14 49.5 20s34.334 9 53.001 9c0 -7.33301 -1.83301 -14.166 -5.5 -20.499s-9.16699 -11.166 -16.5 -14.499c-5.33301 -3.33301 -14.833 -8.5 -28.5 -15.5l-44.5 -22
l-45.5 -22.5c-14.333 -7.33301 -24.5 -12.333 -30.5 -15c-13.333 -6 -23.5 -9.83301 -30.5 -11.5s-16.5 -2.5 -28.5 -2.5z" />
    <glyph glyph-name="n" unicode="n" horiz-adv-x="445" 
d="M25 45l-0.00195312 14.0039c0 3.33301 0.5 6.5 1.5 9.5s2.5 6.16699 4.5 9.5l8 13c5.33301 9.33301 15.333 25.666 30 48.999l47 74l47.5 74l31.5 49c0.666992 0.666992 2.5 1 5.5 1h6.5h7c3.33301 0 5.33301 -0.333008 6 -1s2.16699 -2.33398 4.5 -5.00098
s5 -5.5 8 -8.5s5.66699 -5.83301 8 -8.5s4.16602 -4 5.49902 -4c6 0 12.333 2 19 6s13.5 8.5 20.5 13.5s14.167 9.5 21.5 13.5s15 6 23 6c8.66699 0 16.667 -2 24 -6s13.666 -9 18.999 -15s9.5 -12.667 12.5 -20s4.5 -14.666 4.5 -21.999c0 -15.333 -2.16699 -30 -6.5 -44
s-9.16602 -27.833 -14.499 -41.5s-10.166 -27.334 -14.499 -41.001s-6.5 -27.834 -6.5 -42.501s1.66699 -25.167 5 -31.5s12.666 -9.5 27.999 -9.5c18 0 35.167 2.66699 51.5 8s33.166 8 50.499 8c0 -16 -4.83301 -29.333 -14.5 -40s-21.667 -19.167 -36 -25.5
s-29.666 -10.666 -45.999 -12.999s-31.166 -3.5 -44.499 -3.5c-25.333 0 -43.833 7.16699 -55.5 21.5s-17.5 33.5 -17.5 57.5c0 16 2.83301 31 8.5 45s12 27.667 19 41s13.5 26.666 19.5 39.999s9 27.666 9 42.999c0 4 -0.666992 9.33301 -2 16s-5.66602 10 -12.999 10
c-22 0 -41.833 -7 -59.5 -21s-33.667 -31.667 -48 -53s-27.333 -44.333 -39 -69l-33 -69c-10.333 -21.333 -20.166 -39 -29.499 -53s-19 -21 -29 -21c-14 0 -25.333 4.33301 -34 13s-13 19.667 -13 33z" />
    <glyph glyph-name="o" unicode="o" 
d="M18 84c0 2.66699 0.167969 8.16699 0.500977 16.5s0.5 13.833 0.5 16.5c21.333 48.667 48.666 93.667 81.999 135s71 78 113 110c1.33301 0 3.5 0.5 6.5 1.5s5.16699 1.5 6.5 1.5c18 0 32.833 -3.83301 44.5 -11.5s21 -17.667 28 -30s11.833 -26 14.5 -41
s4 -29.5 4 -43.5c0 -26 -6 -53.167 -18 -81.5s-28.167 -54.333 -48.5 -78s-43.5 -43 -69.5 -58s-53 -22.5 -81 -22.5s-48.833 7.5 -62.5 22.5s-20.5 35.833 -20.5 62.5zM96.001 96c0 -7.33301 3 -12.3359 9 -15.0029s12 -4 18 -4c16.667 0 32.834 4.5 48.501 13.5
s29.667 20.333 42 34s22.166 28.834 29.499 45.501s11 32.667 11 48c0 7.33301 -0.5 15.5 -1.5 24.5s-3.16699 17 -6.5 24s-8.5 12.5 -15.5 16.5s-16.833 4.66699 -29.5 2c-9.33301 -2 -20 -10.667 -32 -26s-23.5 -33.166 -34.5 -53.499s-20.167 -40.666 -27.5 -60.999
s-11 -36.5 -11 -48.5z" />
    <glyph glyph-name="p" unicode="p" horiz-adv-x="512" 
d="M-112 -280c0 0.666992 0.166016 2.00195 0.499023 4.00195s0.5 3.33301 0.5 4c0.666992 2 1.66699 4.83301 3 8.5l4 11.5l4 11.5c1.33301 3.66699 2.33301 6.16699 3 7.5l20 44.5l32 69l37.5 80.5l37.5 80.5l32.5 69l21.5 45.5c8.66699 14 20.834 30.333 36.501 49
s33.167 37.667 52.5 57s40.166 38.166 62.499 56.499s44.333 34.666 66 48.999s42.834 26 63.501 35s39 13.5 55 13.5c24 0 41 -4.33301 51 -13s15 -26.334 15 -53.001c0 -28.667 -5.5 -57.167 -16.5 -85.5s-25.833 -55.166 -44.5 -80.499s-40.5 -48.333 -65.5 -69
s-51.333 -37.667 -79 -51s-56.167 -22.5 -85.5 -27.5s-57.666 -4.16699 -84.999 2.5l-13 -13l-130 -324c-2 -6 -7.66699 -9.83301 -17 -11.5s-17 -2.5 -23 -2.5c-8.66699 0 -17.334 2.83301 -26.001 8.5s-13 13.5 -13 23.5zM355.999 207.002
c31.333 33.333 51.666 59.8311 60.999 79.498s11.333 33.5 6 41.5s-16 11 -32 9s-34 -7.66699 -54 -17s-40.167 -21.666 -60.5 -36.999s-37.166 -32 -50.499 -50c-6 -6.66699 -13.333 -15.5 -22 -26.5l-25.5 -33c-8.33301 -11 -15.5 -20.833 -21.5 -29.5s-9 -13.667 -9 -15
v-21c46 0 85.333 6.83301 118 20.5s62.667 39.834 90 78.501z" />
    <glyph glyph-name="q" unicode="q" horiz-adv-x="467" 
d="M12 -611c0 36.667 3.99609 73.498 11.9961 110.498s18.167 73.833 30.5 110.5s26.333 72.5 42 107.5l46.5 100.5v26h-54c0 12.667 3 22.834 9 30.501s13.667 13.834 23 18.501s19.5 8.16699 30.5 10.5s21.167 4.16602 30.5 5.49902l65 117v10
c-11.333 0 -22.5 -2 -33.5 -6l-33 -12.5c-11 -4.33301 -22.333 -8.5 -34 -12.5s-23.834 -6 -36.501 -6c-30 0 -51.667 7.16699 -65 21.5s-20 35.833 -20 64.5c4 26 14.667 53.333 32 82s38.833 55.5 64.5 80.5s53.667 46.167 84 63.5s60.333 27.666 90 30.999
s57.334 -2.16699 83.001 -16.5s46.834 -41.166 63.501 -80.499c0 -15.333 -2.66699 -30.333 -8 -45s-12.166 -28.834 -20.499 -42.501s-18 -26.334 -29 -38.001s-22.5 -21.5 -34.5 -29.5l-103 -207c0 -0.666992 -0.166992 -1.66699 -0.5 -3s-0.5 -2.66602 -0.5 -3.99902
c0 -8.66699 2.16699 -17 6.5 -25s9.33301 -16 15 -24l17 -24c5.66699 -8 10.167 -16 13.5 -24c15.333 -44 21.333 -88 18 -132s-13.666 -86.5 -30.999 -127.5s-40.666 -79.167 -69.999 -114.5s-62 -66 -98 -92c-6.66699 -6 -13 -9.83301 -19 -11.5s-12.667 -2.5 -20 -2.5
c-12.667 0 -23.167 2.66699 -31.5 8s-15 12.333 -20 21s-8.66699 18.334 -11 29.001s-3.5 21.334 -3.5 32.001zM77.9961 -628.002c18.667 0 36.332 5.66895 52.999 17.002s32.334 26.333 47.001 45s27.834 39.5 39.501 62.5s21.667 46.333 30 70s14.666 46.167 18.999 67.5
s6.5 39.666 6.5 54.999c0 25.333 -6 49.166 -18 71.499s-27.667 41.5 -47 57.5zM89.9941 96c0 -12.667 2.33398 -21.334 7.00098 -26.001s13.667 -7 27 -7c15.333 0 36.5 5.83301 63.5 17.5s53.667 26.334 80 44.001s49.166 37.167 68.499 58.5s29 41.666 29 60.999
s-4.83301 33.166 -14.5 41.499s-25.167 12.5 -46.5 12.5c-10.667 0 -23.167 -3.33301 -37.5 -10s-29.5 -15.667 -45.5 -27s-31.833 -24.166 -47.5 -38.499s-29.667 -29 -42 -44s-22.333 -29.667 -30 -44s-11.5 -27.166 -11.5 -38.499z" />
    <glyph glyph-name="r" unicode="r" horiz-adv-x="389" 
d="M232 77c0 20 4.16797 38.5098 12.501 55.5098s17.5 33.167 27.5 48.5s19.167 30.666 27.5 45.999s12.5 31.666 12.5 48.999c0 4 -0.166992 8.83301 -0.5 14.5s-1 11.167 -2 16.5s-3 9.83301 -6 13.5s-6.83301 5.5 -11.5 5.5
c-0.666992 0 -1.83398 -0.166992 -3.50098 -0.5s-2.5 -0.833008 -2.5 -1.5c-9.33301 -12.667 -20.5 -26.834 -33.5 -42.501s-26.833 -31.167 -41.5 -46.5l-43 -44c-14 -14 -26.667 -25.667 -38 -35l-32.5 -30l-41 -37.5l-36 -32.5c-10.333 -9.33301 -16.166 -14 -17.499 -14
l-46 39c6 0 11.833 1.33301 17.5 4s11.167 5.66699 16.5 9c40 26.667 76.167 57.334 108.5 92.001s64.166 72 95.499 112c1.33301 2 4.83301 7.83301 10.5 17.5l18.5 33l20 37c6.66699 12.333 11.667 22.166 15 29.499c4 8.66699 6.5 15.667 7.5 21s2 9.5 3 12.5
s2.83301 5.16699 5.5 6.5s8.33398 2 17.001 2c1.33301 0 4.5 -0.333008 9.5 -1s8.16699 -1.33398 9.5 -2.00098l23 -48c6.66699 -14 12.334 -27.167 17.001 -39.5s8.16699 -24.833 10.5 -37.5s3.5 -26.667 3.5 -42c-8.66699 -22 -18.334 -44.5 -29.001 -67.5
s-19.667 -44.833 -27 -65.5s-11.833 -39.334 -13.5 -56.001s2 -29.834 11 -39.501s24.333 -14.834 46 -15.501s52.5 5 92.5 17c10.667 -5.33301 11.667 -11.833 3 -19.5s-21.834 -14.834 -39.501 -21.501s-37 -12.167 -58 -16.5s-38.5 -5.5 -52.5 -3.5
c-12.667 0 -23.167 2.16699 -31.5 6.5s-15 10.166 -20 17.499s-8.66699 15.666 -11 24.999s-3.5 19 -3.5 29z" />
    <glyph glyph-name="s" unicode="s" horiz-adv-x="479" 
d="M12 111c0 12.667 1.83008 23.668 5.49707 33.001s13.167 14 28.5 14c1.33301 0 4.5 -0.166992 9.5 -0.5s8.5 -0.833008 10.5 -1.5c-0.666992 -31.333 4.33301 -54.833 15 -70.5s30.667 -23.5 60 -23.5c24 0 47.667 3.66699 71 11s44.5 18.166 63.5 32.499
s34.333 31.833 46 52.5s17.5 44 17.5 70c0 16 -5.5 27.333 -16.5 34s-23.167 12 -36.5 16s-25.5 8.5 -36.5 13.5s-16.5 13.833 -16.5 26.5c0 15.333 9.33301 30 28 44s40.667 26.5 66 37.5s50.5 19.667 75.5 26s44.167 9.5 57.5 9.5c0 -19.333 -4.16699 -33 -12.5 -41
s-18.5 -14.333 -30.5 -19s-24.167 -9.16699 -36.5 -13.5s-22.5 -12.5 -30.5 -24.5c10.667 -8.66699 19.5 -16.5 26.5 -23.5s12.5 -14.5 16.5 -22.5s6.66699 -16.833 8 -26.5s2 -21.167 2 -34.5c0 -34.667 -7.5 -66.167 -22.5 -94.5s-34.5 -52.666 -58.5 -72.999
s-51.333 -36 -82 -47s-62 -16.5 -94 -16.5c-17.333 0 -34.166 2.16699 -50.499 6.5s-30.666 11.166 -42.999 20.499s-22.166 21 -29.499 35s-11 30.667 -11 50z" />
    <glyph glyph-name="t" unicode="t" horiz-adv-x="264" 
d="M6 97c0 19.333 3.6709 38.666 11.0039 57.999s16 38.5 26 57.5l30.5 56.5c10.333 18.667 18.166 37 23.499 55c-12.667 -7.33301 -23.5 -11.5 -32.5 -12.5s-19.833 -1.5 -32.5 -1.5c-1.33301 0 -5.5 0.166992 -12.5 0.5s-11.5 0.5 -13.5 0.5
c4 14.667 11.333 27.834 22 39.501s22.834 21.667 36.501 30s28 15.333 43 21s28.5 10.167 40.5 13.5c20 31.333 36.333 62.833 49 94.5l38.5 93c13 30.333 28.333 59.333 46 87s41.5 53.167 71.5 76.5l5 -38l-125 -293c7.33301 2 16.333 4 27 6l32.5 6
c11 2 21.667 3.83301 32 5.5s19.166 3.5 26.499 5.5c0.666992 0 2.66699 0.166992 6 0.5s6 0.5 8 0.5c9.33301 0 17 -1.66699 23 -5s11 -10.666 15 -21.999c-45.333 -13.333 -86.333 -27.333 -123 -42s-68.5 -33.834 -95.5 -57.501s-49 -53.667 -66 -90
s-28.833 -82.833 -35.5 -139.5c0 -12 0.666992 -23 2 -33s9.66602 -16 24.999 -18c15.333 0 29.666 3 42.999 9s26.333 12.5 39 19.5s25.5 13.5 38.5 19.5s27.167 9 42.5 9c0 -16 -7 -30.667 -21 -44s-30.833 -25 -50.5 -35s-39.834 -17.667 -60.501 -23s-37.667 -8 -51 -8
s-25.333 2.66699 -36 8s-19.5 12.5 -26.5 21.5s-12.333 19.5 -16 31.5s-5.5 24.333 -5.5 37z" />
    <glyph glyph-name="u" unicode="u" horiz-adv-x="486" 
d="M18 50c0 10 3.00195 24.1641 9.00195 42.4971s13.833 38.166 23.5 59.499s20.667 43 33 65s24.833 42 37.5 60s24.667 32.667 36 44s21.333 17 30 17c18.667 0 28 -9 28 -27c0 -8 -1.5 -14.667 -4.5 -20s-6.5 -10.333 -10.5 -15s-8.33301 -9.16699 -13 -13.5
s-8.66699 -9.5 -12 -15.5c-6 -10 -13.333 -23.667 -22 -41l-25.5 -50.5l-21.5 -43.5c-6 -12.667 -9 -19.667 -9 -21v-13c26 4.66699 51 15.834 75 33.501s46.833 38.5 68.5 62.5s42.334 49.167 62.001 75.5l55.5 73c17.333 22.333 33.666 40.833 48.999 55.5
s29.666 22 42.999 22c0 -24.667 -5 -47 -15 -67s-20.833 -39.667 -32.5 -59s-22.5 -39.166 -32.5 -59.499s-15 -43.166 -15 -68.499c0 -10.667 6.5 -20.167 19.5 -28.5s28 -15.333 45 -21s33.5 -10.167 49.5 -13.5s27 -5.33301 33 -6v-26
c-15.333 -0.666992 -34.333 -0.833984 -57 -0.500977s-45.334 2.83301 -68.001 7.5s-43.167 12.5 -61.5 23.5s-30.5 27.167 -36.5 48.5c-17.333 -11.333 -34 -24.666 -50 -39.999s-32.5 -29.666 -49.5 -42.999s-34.833 -24.666 -53.5 -33.999s-39 -14 -61 -14
c-13.333 0 -24.5 5.66699 -33.5 17s-13.5 22.666 -13.5 33.999z" />
    <glyph glyph-name="v" unicode="v" horiz-adv-x="401" 
d="M12 63c0 2 0.165039 4.83496 0.498047 8.50195s0.5 5.83398 0.5 6.50098c2 20 4.33301 45.5 7 76.5s5.5 60.833 8.5 89.5s5.5 53.5 7.5 74.5l3 31.5l27 26c11.333 -3.33301 19.666 -7.83301 24.999 -13.5s9 -11.834 11 -18.501s3 -14 3 -22v-24
c0 -28 -2.5 -55.167 -7.5 -81.5s-7.5 -53.166 -7.5 -80.499c0 -1.33301 0.166992 -4.5 0.5 -9.5s0.5 -8.16699 0.5 -9.5l246 259c0.666992 0.666992 2.5 1 5.5 1h6.5c6.66699 0 13 -1.33301 19 -4s9 -8.33398 9 -17.001c0 -0.666992 -0.166992 -1.16699 -0.5 -1.5
s-0.5 -0.833008 -0.5 -1.5v-3c-3.33301 -5.33301 -9.16602 -14 -17.499 -26l-27 -39l-27.5 -39.5l-18 -25.5l-39.5 -50c-15 -19.333 -31 -38.833 -48 -58.5s-34.667 -38.334 -53 -56.001s-36.5 -31.834 -54.5 -42.501c-3.33301 -2 -8.16602 -4.66699 -14.499 -8
s-9.83301 -5 -10.5 -5c-7.33301 0 -14.166 2.16699 -20.499 6.5s-12 9.83301 -17 16.5s-9 13.5 -12 20.5s-4.5 13.5 -4.5 19.5z" />
    <glyph glyph-name="w" unicode="w" horiz-adv-x="662" 
d="M13 65c2.66699 27.333 10.165 52.501 22.498 75.501s27 45 44 66s34.667 41 53 60s34.833 38.167 49.5 57.5c11.333 0 18.833 -2.5 22.5 -7.5s5.5 -11.167 5.5 -18.5c-5.33301 -6 -13.666 -16.833 -24.999 -32.5s-22.833 -32.5 -34.5 -50.5s-22 -35 -31 -51
s-14.167 -27.333 -15.5 -34c-5.33301 -20 -5.16602 -32.5 0.500977 -37.5s15 -5 28 0s28.5 14 46.5 27s36.5 27.5 55.5 43.5s37.5 32.667 55.5 50l47 46h44c0 -11.333 -1.66699 -22.166 -5 -32.499s-7 -20.5 -11 -30.5s-7.66699 -20 -11 -30s-5 -20.333 -5 -31
c0 -15.333 4.83301 -24.666 14.5 -27.999s20.834 -5 33.501 -5c17.333 0 35.5 3.5 54.5 10.5s36.5 16.667 52.5 29s29.167 26.666 39.5 42.999s15.5 34.166 15.5 53.499c0 17.333 -2.5 33.166 -7.5 47.499s-7.5 30.166 -7.5 47.499c0 20.667 11.333 31 34 31
c10 0 18.667 -4.33301 26 -13s13.5 -19 18.5 -31s8.66699 -24.333 11 -37s3.5 -23 3.5 -31c0 -34.667 -8.33301 -65.334 -25 -92.001s-38 -49 -64 -67s-54.833 -31.667 -86.5 -41s-62.5 -14 -92.5 -14c-25.333 0 -45.333 9.16699 -60 27.5s-22.334 39.833 -23.001 64.5
c-19.333 -6 -37 -16.167 -53 -30.5l-48 -44c-16 -15 -32.667 -28.167 -50 -39.5s-36.333 -17 -57 -17c-5.33301 0 -11.833 2.33301 -19.5 7s-15 10.334 -22 17.001s-12.833 13.834 -17.5 21.501s-6.66699 14.5 -6 20.5z" />
    <glyph glyph-name="x" unicode="x" horiz-adv-x="512" 
d="M175 208c7.33301 7.33301 11.3291 15.332 11.9961 23.999s1 17.667 1 27c0 41.333 -8.16699 69.833 -24.5 85.5s-44.5 23.5 -84.5 23.5c0 6 3.16699 10.667 9.5 14s13.666 5.5 21.999 6.5s16.166 1.5 23.499 1.5h14c16 0 30.333 -3.5 43 -10.5s23.5 -14.5 32.5 -22.5
s16.333 -15.5 22 -22.5s9.83398 -10.5 12.501 -10.5c6 0 11.833 1.33301 17.5 4s10.834 5.66699 15.501 9c4.66699 4 13.334 10.833 26.001 20.5l39.5 31l39 31c12.333 9.66699 20.833 16.5 25.5 20.5c2 0.666992 5.5 1.66699 10.5 3s10.167 2.83301 15.5 4.5
s10.5 3.16699 15.5 4.5s8.5 2 10.5 2h3c0.666992 0 1.33398 0.166992 2.00098 0.5s1.33398 0.5 2.00098 0.5c5.33301 0 10 -2.33301 14 -7s6 -9.66699 6 -15c0 -6.66699 -3.33301 -11.167 -10 -13.5s-14.5 -4.16602 -23.5 -5.49902l-26.5 -4
c-8.66699 -1.33301 -15 -4.33301 -19 -9l-142 -168v-130h133c0 -14 -3.66699 -24.667 -11 -32s-16.333 -12.5 -27 -15.5s-22.334 -4.66699 -35.001 -5s-24 -0.5 -34 -0.5c-30.667 0 -55.667 10.333 -75 31s-33.666 45.667 -42.999 75
c-7.33301 -12 -17.166 -26.5 -29.499 -43.5s-26 -33.333 -41 -49s-31 -29 -48 -40s-33.5 -16.5 -49.5 -16.5v45z" />
    <glyph glyph-name="y" unicode="y" horiz-adv-x="534" 
d="M-55 -302c21.333 34.667 46.002 65.501 74.002 92.501s56.833 52.5 86.5 76.5l88.5 70c29.333 22.667 56.5 47 81.5 73s46.5 54.833 64.5 86.5s30.333 68.5 37 110.5c0 1.33301 -0.166992 3.5 -0.5 6.5s-0.5 5.16699 -0.5 6.5c-15.333 -18 -33.833 -38.333 -55.5 -61
s-45 -44 -70 -64s-51.167 -36.667 -78.5 -50s-54 -20 -80 -20c-6.66699 0 -15.167 0.5 -25.5 1.5s-20.5 3.16699 -30.5 6.5s-18.667 8 -26 14s-11 14 -11 24c0 8.66699 2.33301 22 7 40s11 38 19 60s17 44.333 27 67s20.667 43.334 32 62.001s22.5 34 33.5 46
s21.167 18 30.5 18s17.333 -2 24 -6s10 -10.667 10 -20c0 -16.667 -6 -33.334 -18 -50.001l-39 -53.5c-14 -19 -27 -39.5 -39 -61.5s-18 -47 -18 -75c44 0 83.667 9.16699 119 27.5s67.333 41.166 96 68.499s54 57 76 89s41.5 61.667 58.5 89l44 68.5
c12.333 18.333 22.833 27.5 31.5 27.5c12.667 0 20.167 -3.83301 22.5 -11.5s3.5 -17.167 3.5 -28.5c-6 -20.667 -14.333 -44.834 -25 -72.501l-32.5 -87c-11 -30.333 -21 -60.5 -30 -90.5s-14.833 -57.333 -17.5 -82c0 -0.666992 0.166992 -1.66699 0.5 -3
s0.5 -2.33301 0.5 -3c12 4 23.333 11 34 21l31.5 30.5c10.333 10.333 20.833 19.666 31.5 27.999s21.667 12.5 33 12.5c0.666992 0 3.16699 -4.66699 7.5 -14s4.16602 -20.666 -0.500977 -33.999c-6 -4.66699 -16.833 -12.667 -32.5 -24l-49.5 -35.5l-49 -36
c-15.333 -11.667 -26 -20.5 -32 -26.5c-9.33301 -9.33301 -19 -22.666 -29 -39.999s-20 -36.833 -30 -58.5s-19.833 -44.5 -29.5 -68.5l-28.5 -70.5c-9.33301 -23 -18.5 -44.333 -27.5 -64s-17.167 -35.834 -24.5 -48.501l-20.5 -31.5l-34 -50.5l-36 -51.5
c-11.667 -16.333 -20.5 -27.833 -26.5 -34.5c-2.66699 -3.33301 -10 -11.166 -22 -23.499l-40.5 -41l-45 -44.5l-34.5 -33c-8 -4.66699 -18.667 -10.5 -32 -17.5s-27.166 -12.833 -41.499 -17.5s-28.333 -7.66699 -42 -9s-24.834 1.5 -33.501 8.5s-13.834 18.667 -15.501 35
s2 39.333 11 69s24.5 67.167 46.5 112.5s52.333 100.333 91 165zM259.002 -86.999c-1.33301 0 -3.49707 -0.503906 -6.49707 -1.50391s-5.16699 -1.83301 -6.5 -2.5c-1.33301 -1.33301 -4.33301 -3.66602 -9 -6.99902l-15.5 -11c-5.66699 -4 -11 -8 -16 -12
s-8.5 -7 -10.5 -9c-18.667 -13.333 -40 -32.166 -64 -56.499s-48.833 -51.333 -74.5 -81s-50.834 -61 -75.501 -94s-46.834 -64.667 -66.501 -95s-35.5 -58.166 -47.5 -83.499s-18.333 -45.666 -19 -60.999s5.66602 -24.333 18.999 -27s36 3.66602 68 18.999l28.5 26.5
l37 36l33.5 34c10 10.333 16 16.833 18 19.5l16 22l24 34l27 40l26.5 40.5l22 34.5c6.33301 10 10.833 17.667 13.5 23c6 10.667 13.5 25.834 22.5 45.501s17.5 40 25.5 61s15 41.167 21 60.5s9 34.333 9 45z" />
    <glyph glyph-name="z" unicode="z" horiz-adv-x="506" 
d="M25 45l-0.00488281 3.99609c0 1.33301 0.333008 2.33301 1 3c19.333 21.333 39.833 41.833 61.5 61.5s44.5 38.167 68.5 55.5l220 259h-14c-14 0 -27.667 -1.5 -41 -4.5s-26.666 -6.16699 -39.999 -9.5s-26.666 -6.5 -39.999 -9.5s-27 -4.5 -41 -4.5
c-19.333 2.66699 -32.166 6.66699 -38.499 12s-8.16602 11.166 -5.49902 17.499s8.66699 12.833 18 19.5s20.333 12.5 33 17.5s26 8.66699 40 11s26.667 2.83301 38 1.5c26 6.66699 48.5 10.834 67.5 12.501s40.5 2.5 64.5 2.5c19.333 0 34.666 -3.5 45.999 -10.5
s17 -21.5 17 -43.5c0 -4.66699 -5.83301 -14.5 -17.5 -29.5s-26.5 -33 -44.5 -54l-59.5 -67.5l-63 -70l-54.5 -61.5c-16 -18.333 -27.333 -31.833 -34 -40.5c0.666992 -1.33301 2.66699 -3.66602 6 -6.99902l7 -7c18 -6 38.167 -10.167 60.5 -12.5
s44.833 -3.66602 67.5 -3.99902s44.334 0 65.001 1s38.334 2.16699 53.001 3.5c5.33301 -2.66699 9 -5.5 11 -8.5s3 -6.5 3 -10.5c0 -14 -6.33301 -24.333 -19 -31s-27 -11.167 -43 -13.5s-31.667 -3.33301 -47 -3s-25.666 0.5 -30.999 0.5c-16 0 -31.333 1.33301 -46 4
s-29.334 5.83398 -44.001 9.50098s-29.167 6.83398 -43.5 9.50098s-29.166 4 -44.499 4c-10.667 0 -19.834 -2.83301 -27.501 -8.5s-15 -11.667 -22 -18l-20 -18c-6.33301 -5.66699 -13.5 -8.5 -21.5 -8.5c-11.333 0 -21.833 5 -31.5 15s-14.5 20.333 -14.5 31z" />
    <glyph glyph-name="braceleft" unicode="{" horiz-adv-x="499" 
d="M17 27c0 23.333 4.82617 45.5049 14.4932 66.5049s21.834 40.833 36.501 59.5s30.667 36.5 48 53.5l48 48.5c14.667 15.333 26.834 29.666 36.501 42.999s14.5 26.333 14.5 39c0 12 -3.33301 22.667 -10 32s-14.167 18.5 -22.5 27.5s-15.833 18.167 -22.5 27.5
s-10 19.333 -10 30c0 14.667 6 25.5 18 32.5s25.333 12.833 40 17.5s28 10.167 40 16.5s18 16.5 18 30.5v7l-65 142c0 0.666992 0.833008 4.5 2.5 11.5s3.83398 15.333 6.50098 25s5.66699 19.667 9 30l8 24.5c4.66699 13.333 11.834 27.666 21.501 42.999
s20.834 29.5 33.501 42.5s26.667 23.833 42 32.5s31 13 47 13c15.333 -8.66699 23.5 -17.334 24.5 -26.001s-2 -17.5 -9 -26.5s-16.667 -18.5 -29 -28.5s-24.5 -21 -36.5 -33s-22.333 -25.167 -31 -39.5s-12.667 -30.5 -12 -48.5c0 -1.33301 0.166992 -4.66602 0.5 -9.99902
s0.5 -8.66602 0.5 -9.99902l14 -25c6.66699 -12 13.334 -25 20.001 -39l18.5 -39.5c5.66699 -12.333 9.5 -21.166 11.5 -26.499c0.666992 0 1.16699 -3 1.5 -9s0.5 -10.667 0.5 -14c0 -17.333 -3.33301 -30.833 -10 -40.5s-15 -17.834 -25 -24.501s-21.167 -13 -33.5 -19
s-24.5 -13.333 -36.5 -22c13.333 -16.667 25.5 -34.834 36.5 -54.501s16.5 -40.5 16.5 -62.5c0 -18.667 -5.5 -35.5 -16.5 -50.5s-24.667 -29.333 -41 -43s-34.166 -27.334 -53.499 -41.001s-37.166 -28.334 -53.499 -44.001s-30 -33.167 -41 -52.5s-16.5 -41.333 -16.5 -66
c0 -20.667 5.33301 -36.334 16 -47.001s24.167 -18.667 40.5 -24s34 -9 53 -11s36.667 -4.5 53 -7.5s29.833 -7.83301 40.5 -14.5s16 -17 16 -31c-16.667 0 -35 0.166992 -55 0.5s-40.167 1.5 -60.5 3.5s-39.833 5.66699 -58.5 11s-35.334 13 -50.001 23
s-26.5 22.833 -35.5 38.5s-13.5 35.167 -13.5 58.5z" />
    <glyph glyph-name="bar" unicode="|" horiz-adv-x="224" 
d="M47 22c5.33301 28 10.5 60.6689 15.5 98.002s9.66699 77.666 14 120.999l13 135l12.5 139.5c4 46.333 8.16699 91.333 12.5 135s9.16602 84.167 14.499 121.5c5.33301 11.333 10.833 18.666 16.5 21.999s13.167 5 22.5 5c18 0 27 -9 27 -27
c-4.66699 -12 -8.33398 -32.167 -11.001 -60.5s-5.16699 -62.666 -7.5 -102.999l-7.5 -133.5c-2.66699 -48.667 -6.16699 -98.834 -10.5 -150.501s-10.166 -103.334 -17.499 -155.001s-16.666 -100.834 -27.999 -147.501c-2.66699 -7.33301 -9.16699 -13.666 -19.5 -18.999
s-18.833 -8 -25.5 -8c-8 0 -13.5 2.83301 -16.5 8.5s-4.5 11.834 -4.5 18.501z" />
    <glyph glyph-name="braceright" unicode="}" horiz-adv-x="292" 
d="M-266 -85c0 5.33301 1.83398 9.99609 5.50098 13.9961s8.16699 6 13.5 6c14 0 26.833 -2.33301 38.5 -7s24.834 -7 39.501 -7c26 0 53.167 5.33301 81.5 16s54.333 25.5 78 44.5s43.167 41 58.5 66s23 52.167 23 81.5v195c0 10.667 -2.16699 20.667 -6.5 30
s-9 18.666 -14 27.999s-9.66699 18.666 -14 27.999s-6.5 19.666 -6.5 30.999c0 8 1.5 14.333 4.5 19s6.16699 8.83398 9.5 12.501s6.5 7.33398 9.5 11.001s4.5 8.5 4.5 14.5c0 6.66699 -1.33301 13 -4 19s-5.83398 11.667 -9.50098 17s-6.83398 11 -9.50098 17
s-4 12.333 -4 19c0 10.667 4.33301 20.834 13 30.501s19.334 19.667 32.001 30l41.5 33c15 11.667 28.833 24.334 41.5 38.001s23.334 28.834 32.001 45.501s13 35.334 13 56.001c0 2 -0.166992 5.5 -0.5 10.5l-1 15.5l-1 15.5c-0.333008 5 -0.5 8.5 -0.5 10.5
c-6.66699 12 -17.5 21 -32.5 27l-45 18c-15 6 -28.167 13.167 -39.5 21.5s-17 20.833 -17 37.5c32 0 61.167 -1.83301 87.5 -5.5s48.833 -11.334 67.5 -23.001s33.167 -28.167 43.5 -49.5s15.5 -49.666 15.5 -84.999c0 -24.667 -4.16699 -47.667 -12.5 -69
s-19.333 -41.333 -33 -60s-29.334 -36 -47.001 -52s-35.5 -31 -53.5 -45v-7c0 -7.33301 2 -13.666 6 -18.999s8.5 -10.666 13.5 -15.999s9.5 -10.833 13.5 -16.5s6 -11.834 6 -18.501c0 -19.333 -6.16699 -34.5 -18.5 -45.5s-27.5 -17.833 -45.5 -20.5
c-0.666992 -1.33301 -1 -2.33301 -1 -3v-3v-3c0 -0.666992 0.333008 -1.66699 1 -3c0.666992 -2 2.16699 -4.83301 4.5 -8.5l7.5 -11.5l7.5 -11.5c2.33301 -3.66699 4.16602 -6.16699 5.49902 -7.5v-221c0 -36.667 -9.5 -72.167 -28.5 -106.5s-43.167 -64.833 -72.5 -91.5
s-62 -48 -98 -64s-71 -24 -105 -24c-7.33301 0 -16.5 0.5 -27.5 1.5s-21.667 3 -32 6s-19.333 7.66699 -27 14s-11.5 14.5 -11.5 24.5z" />
    <glyph glyph-name="asciitilde" unicode="~" horiz-adv-x="495" 
d="M306 484c-15.333 -1.33301 -29.001 0.5 -41.001 5.5s-23.667 11.667 -35 20s-22.666 17.166 -33.999 26.499s-23.333 17.5 -36 24.5s-26.834 11.667 -42.501 14s-33.167 0.833008 -52.5 -4.5c-1.33301 0 -4.66602 -0.666992 -9.99902 -2l-16.5 -4
c-5.66699 -1.33301 -11 -2.66602 -16 -3.99902s-8.16699 -2 -9.5 -2c-5.33301 0 -9 2.33301 -11 7s-3 9 -3 13c0 5.33301 4.66699 11.333 14 18s20 13 32 19s23.667 11 35 15s19 6 23 6c20.667 0 38.167 -4.83301 52.5 -14.5s28 -20.167 41 -31.5s27 -21.833 42 -31.5
s33.5 -14.5 55.5 -14.5c28 0 50.833 4.16699 68.5 12.5s31.667 17.5 42 27.5s18.333 19.167 24 27.5s11.167 12.5 16.5 12.5c8 0 16 -1 24 -3s12 -8.33301 12 -19c-2 -15.333 -8.5 -28.666 -19.5 -39.999s-24.667 -21.333 -41 -30s-34.5 -16.834 -54.5 -24.501z" />
    <glyph glyph-name="exclamdown" unicode="&#xa1;" horiz-adv-x="387" 
d="M129.381 641.352c0 -1.18262 1.42578 -3.25391 4.27441 -6.20996s5.12793 -4.72949 6.83789 -5.32129c2.27832 -0.59082 6.55176 -1.03418 12.8203 -1.33008c6.26758 -0.295898 12.9619 -0.739258 20.084 -1.33008s13.8174 -1.03418 20.085 -1.33008
s10.541 -0.443359 12.8203 -0.443359c0 16.5557 -2.70605 32.0762 -8.11914 46.5615c-5.41309 14.4863 -17.2363 23.5029 -35.4697 27.0508c-7.40723 1.18262 -13.248 -0.59082 -17.5215 -5.32031c-4.27344 -4.73047 -7.5498 -10.6436 -9.82812 -17.7383
c-2.2793 -7.09473 -3.84668 -14.042 -4.70117 -20.8418s-1.28223 -11.3818 -1.28223 -13.7471zM161.859 315.856c0 -17.7383 1.99316 -34.7354 5.98242 -50.9951c3.98828 -16.2598 8.83105 -32.0762 14.5293 -47.4492s11.8232 -30.7461 18.375 -46.1191
c6.55273 -15.3721 12.3936 -31.041 17.5215 -47.0059c2.2793 -7.09473 6.125 -19.9551 11.5381 -38.5801l17.0938 -58.9785l16.666 -58.9795c5.12793 -18.624 8.54688 -31.4844 10.2568 -38.5801c2.2793 -16.5557 9.54395 -28.2334 21.7939 -35.0332
c12.251 -6.7998 25.2139 -10.1992 38.8887 -10.1992c0 42.5713 -6.125 82.9248 -18.375 121.062c-12.251 38.1367 -26.3535 75.5342 -42.3076 112.193l-46.5801 110.419c-15.0986 36.9541 -25.4971 75.5342 -31.1953 115.74h-5.12793
c-19.373 0 -29.0596 -9.16504 -29.0596 -27.4941z" />
    <glyph glyph-name="cent" unicode="&#xa2;" horiz-adv-x="366" 
d="M108 -39l3.99902 21.498l4 20.5c-10.667 2.66699 -21 6.66699 -31 12s-19 11.666 -27 18.999s-14.5 15.833 -19.5 25.5s-7.5 20.167 -7.5 31.5c0 51.333 11.833 99.833 35.5 145.5s55.5 84.5 95.5 116.5c2 17.333 4.16699 34.833 6.5 52.5l7.5 56.5
c5.33301 10.667 10.833 17.667 16.5 21s13.167 5 22.5 5c18 0 27 -8.66699 27 -26c-3.33301 -8 -6 -17.333 -8 -28s-3.66699 -22.667 -5 -36c10 4.66699 20 8.66699 30 12s19.333 4.5 28 3.5s15.667 -4.83301 21 -11.5s8 -17.334 8 -32.001c0 -8 -0.666992 -18.5 -2 -31.5
s-5 -22.167 -11 -27.5c-2.66699 -2 -5.83398 -3.66699 -9.50098 -5l-10.5 -4c-4 -1.33301 -8.33301 -2.33301 -13 -3v63c-11.333 -2 -26.666 -9.33301 -45.999 -22c-2 -34.667 -4.83301 -74.667 -8.5 -120s-10.167 -96.333 -19.5 -153
c15.333 2.66699 30.666 6.33398 45.999 11.001l46 14c15.333 4.66699 30.833 8.66699 46.5 12s31.834 5 48.501 5c0 -9.33301 -1.16699 -17.166 -3.5 -23.499s-6.16602 -13.166 -11.499 -20.499c-30 -14 -60.167 -27.167 -90.5 -39.5s-61.833 -20.5 -94.5 -24.5
c-2.66699 -10 -5.16699 -20.667 -7.5 -32s-4.83301 -22.666 -7.5 -33.999c-5.33301 -14 -15.333 -21 -30 -21c-4 0 -7.66699 1.83301 -11 5.5s-6.5 8.16699 -9.5 13.5s-5.33301 10.5 -7 15.5s-2.5 9.16699 -2.5 12.5zM93.999 113.998c0 -14.667 2.66699 -25.666 8 -32.999
s13.333 -12.333 24 -15c5.33301 32 9.83301 63.333 13.5 94l12.5 100c-16.667 -23.333 -30.5 -47.833 -41.5 -73.5s-16.5 -49.834 -16.5 -72.501z" />
    <glyph glyph-name="sterling" unicode="&#xa3;" horiz-adv-x="1127" 
d="M421 182c-12.667 0 -29.833 -5.49902 -51.5 -16.499l-72.5 -36c-26.667 -13 -54.667 -25 -84 -36s-57.333 -16.5 -84 -16.5c-15.333 0 -29.666 2.83301 -42.999 8.5s-25 13.5 -35 23.5s-18 21.833 -24 35.5s-9 28.167 -9 43.5c0 28.667 8.66699 53.167 26 73.5
s38.833 37.166 64.5 50.499s52.667 23.166 81 29.499s53.5 9.5 75.5 9.5c14.667 0 29 -1.33301 43 -4s28 -5.83398 42 -9.50098s28 -6.83398 42 -9.50098s28 -4 42 -4h13l35.5 46c12.333 16.667 24.333 34 36 52s22.5 36.167 32.5 54.5s18.667 36.5 26 54.5
c-1.33301 0 -3.5 0.166992 -6.5 0.5s-5.16699 0.5 -6.5 0.5c-14.667 0 -28.834 -2.33301 -42.501 -7s-27.834 -7 -42.501 -7c-8 0 -16.333 2.66699 -25 8s-15.334 11.666 -20.001 18.999c9.33301 13.333 21.666 23.166 36.999 29.499s31.333 11.5 48 15.5l51 12
c17.333 4 32.333 11 45 21c24 17.333 44.833 41.333 62.5 72s34.334 63.667 50.001 99l48 108c16.333 36.667 35.166 69.834 56.499 99.501s46.166 54 74.499 73s62.5 28.5 102.5 28.5c17.333 0 32.333 -4.16699 45 -12.5s23 -19.166 31 -32.499s13.833 -28 17.5 -44
s5.5 -32 5.5 -48v-7c-2.66699 -12 -6.66699 -24.5 -12 -37.5s-11 -25.667 -17 -38s-12.167 -24.333 -18.5 -36l-17.5 -31.5c-0.666992 0 -1.66699 -0.166992 -3 -0.5s-2.33301 -0.5 -3 -0.5c-8 0 -13.333 4 -16 12s-4 15.333 -4 22c0 8.66699 1.33301 17.167 4 25.5
s5.83398 16.666 9.50098 24.999s6.83398 16.833 9.50098 25.5s4 17.667 4 27c0 27.333 -4.16699 48.5 -12.5 63.5s-26.833 22.5 -55.5 22.5c-14.667 0 -29.334 -7.33301 -44.001 -22s-28.5 -31.5 -41.5 -50.5s-24.333 -38 -34 -57l-20.5 -40.5
c-6.66699 -13.333 -15.167 -31.333 -25.5 -54l-30 -67l-25 -57.5c-7 -16.333 -10.5 -25.5 -10.5 -27.5v-13c2.66699 0 7.16699 -0.166992 13.5 -0.5s10.5 -0.5 12.5 -0.5c4.66699 0.666992 13.334 1.5 26.001 2.5s25.834 2.33301 39.501 4s26.667 3.16699 39 4.5
s20.833 2.33301 25.5 3c9.33301 -6 14 -13.333 14 -22c0 -0.666992 -0.166992 -1.66699 -0.5 -3s-0.833008 -2 -1.5 -2l-210 -56l-191 -294c-10 -5.33301 -17.167 -10.666 -21.5 -15.999s-6.5 -12.666 -6.5 -21.999c0 -1.33301 0.166992 -3.66602 0.5 -6.99902
s0.833008 -5.66602 1.5 -6.99902c27.333 -43.333 52.833 -77.166 76.5 -101.499s49.667 -42.5 78 -54.5s60.833 -19.333 97.5 -22s82 -3.66699 136 -3c6 -2.66699 10 -5.33398 12 -8.00098s3 -6.33398 3 -11.001c0 -8.66699 -7.66699 -15.334 -23 -20.001
s-32.666 -8 -51.999 -10s-37.833 -3.16699 -55.5 -3.5s-28.834 -0.5 -33.501 -0.5c-34.667 0 -65 4.5 -91 13.5s-48.667 20.333 -68 34s-36.166 28.334 -50.499 44.001s-27 30.334 -38 44.001s-21 25 -30 34s-17.833 13.5 -26.5 13.5zM241.001 299.001
c-8 0 -20 -1.49902 -36 -4.49902s-32 -7.33301 -48 -13s-30 -12.667 -42 -21s-18 -17.5 -18 -27.5v-91c0 -3.33301 1.5 -5.83301 4.5 -7.5s6.66699 -2.83398 11 -3.50098s8.66602 -1.16699 12.999 -1.5s7.5 -0.5 9.5 -0.5c24 0 47.167 3.16699 69.5 9.5s43.833 15 64.5 26
s40.334 23.5 59.001 37.5s36.667 29 54 45v3l1 3c0 10 -5.5 18.167 -16.5 24.5s-24.167 11 -39.5 14s-31 5 -47 6s-29 1.5 -39 1.5z" />
    <glyph glyph-name="currency" unicode="&#xa4;" horiz-adv-x="548" 
d="M113 164c-3.33301 9.33301 -5.00293 22.3311 -5.00293 38.998c0 2.66699 0.166992 8 0.5 16s0.5 13.667 0.5 17c11.333 26 24.5 51 39.5 75s31.5 47 49.5 69c-16 22 -47 33 -93 33c0 6 3.33301 10.667 10 14s14 5.5 22 6.5s15.667 1.5 23 1.5h15
c11.333 0 21.5 -1.66699 30.5 -5s17.167 -7.66602 24.5 -12.999c24 22.667 48.333 44 73 64c1.33301 0 3.5 0.333008 6.5 1s5.16699 1 6.5 1c18.667 0 33.834 -4.16699 45.501 -12.5s21.167 -19.166 28.5 -32.499l34.5 29c10.333 8.66699 17.833 14.667 22.5 18
c2 0.666992 5.66699 1.66699 11 3s10.666 2.83301 15.999 4.5s10.5 3.16699 15.5 4.5s8.5 2 10.5 2h3c0.666992 0 1.33398 0.166992 2.00098 0.5s1.33398 0.5 2.00098 0.5c5.33301 0 9.83301 -2.33301 13.5 -7s5.5 -9.66699 5.5 -15c0 -6.66699 -3.33301 -11.167 -10 -13.5
s-14.5 -4.16602 -23.5 -5.49902l-26.5 -4c-8.66699 -1.33301 -15 -4.33301 -19 -9l-43 -51c2.66699 -10.667 4 -23.334 4 -38.001c0 -16.667 -2.5 -33.834 -7.5 -51.501s-12.167 -35 -21.5 -52s-20.333 -33.333 -33 -49s-26.334 -29.5 -41.001 -41.5v-15h133
c0 -14 -3.66699 -24.667 -11 -32s-16.333 -12.5 -27 -15.5s-22.167 -4.66699 -34.5 -5s-23.5 -0.5 -33.5 -0.5c-17.333 0 -32.666 3.33301 -45.999 10s-24.666 15.334 -33.999 26.001c-10.667 -4 -21 -7.16699 -31 -9.5s-20.333 -3.5 -31 -3.5c-14 0 -25.333 1.33301 -34 4
c-16.667 -18.667 -34.5 -35 -53.5 -49s-37.833 -21 -56.5 -21v45zM183.997 204.998c0 -7.33301 3 -12.501 9 -15.501s12 -4.5 18 -4.5c16.667 0 32.834 4.5 48.501 13.5s29.667 20.333 42 34s22.166 28.834 29.499 45.501s11 33 11 49c0 7.33301 -0.5 15.333 -1.5 24
s-3.16699 16.5 -6.5 23.5s-8.5 12.5 -15.5 16.5s-16.833 4.66699 -29.5 2c-9.33301 -2 -20 -10.667 -32 -26s-23.5 -33 -34.5 -53s-20.167 -40.167 -27.5 -60.5s-11 -36.5 -11 -48.5z" />
    <glyph glyph-name="yen" unicode="&#xa5;" horiz-adv-x="389" 
d="M43 341l11.001 0.999023c7.33301 1.33301 16.833 2.83301 28.5 4.5s24.834 3.33398 39.501 5.00098l46 5.5c0.666992 8 1.33398 15.333 2.00098 22s1.33398 12.667 2.00098 18c0.666992 6 1 11.667 1 17c1.33301 13.333 -1.33398 30.666 -8.00098 51.999
s-15.167 43.833 -25.5 67.5s-21.833 47.667 -34.5 72l-35.5 65.5l-27.5 47l-11 19l57 24c14 -16 26 -33.833 36 -53.5s19.167 -40.5 27.5 -62.5s16.166 -44.167 23.499 -66.5s15.333 -43.833 24 -64.5l245 259c0.666992 0.666992 2.66699 1 6 1h7
c6.66699 0 12.834 -1.33301 18.501 -4s8.5 -8 8.5 -16l-1 -3v-3c-24.667 -28 -47 -55.333 -67 -82l-59.5 -78.5l-62 -77.5c-21.667 -26 -46.5 -52.333 -74.5 -79c-1.33301 -0.666992 -2.33301 -7.33398 -3 -20.001s-1.33398 -29 -2.00098 -49
c9.33301 1.33301 18.166 2.5 26.499 3.5s15.833 1.83301 22.5 2.5h34c4 0 8.5 0.166992 13.5 0.5s9.66699 0 14 -1s8.16602 -3 11.499 -6s5 -7.5 5 -13.5c0 -1.33301 -0.166992 -2.66602 -0.5 -3.99902s-0.5 -2.33301 -0.5 -3
c-19.333 -7.33301 -39.833 -14.166 -61.5 -20.499s-43.834 -11.833 -66.501 -16.5c-0.666992 -12 -1.16699 -24.667 -1.5 -38s-0.833008 -26.666 -1.5 -39.999c12 0 25.5 0.166992 40.5 0.5l43.5 1c14 0.333008 26.667 0.666016 38 0.999023s19.666 0.5 24.999 0.5
c0 -6.66699 -1 -12.5 -3 -17.5s-6.33301 -9.16699 -13 -12.5l-20.5 -3c-9 -1.33301 -19.5 -3 -31.5 -5s-24.833 -4 -38.5 -6l-41.5 -6c-1.33301 -23.333 -2.16602 -45.5 -2.49902 -66.5s-0.833008 -39.5 -1.5 -55.5c-0.666992 -18.667 -1 -36.334 -1 -53.001
c-7.33301 0 -15 -2.16699 -23 -6.5s-15.5 -8.66602 -22.5 -12.999s-12.833 -7.16602 -17.5 -8.49902s-7 1 -7 7c0 0.666992 0.5 6.16699 1.5 16.5s2.16699 24.166 3.5 41.499s3.16602 37.333 5.49902 60s4.5 46 6.5 70l-49 -7c-14.667 -2 -25.334 -3.33301 -32.001 -4
c-2 -0.666992 -7.16699 -1.16699 -15.5 -1.5s-13.166 -0.5 -14.499 -0.5c0 14 3.83301 25.167 11.5 33.5s17.334 14.666 29.001 18.999s24.167 7.33301 37.5 9s26 2.83398 38 3.50098c1.33301 13.333 2.5 25.833 3.5 37.5s2.16699 23.167 3.5 34.5
c-15.333 -2 -30.666 -3.66699 -45.999 -5s-30 -2 -44 -2h-17c-5.33301 0 -10.5 0.666992 -15.5 2s-9.5 4 -13.5 8s-7.33301 9.66699 -10 17z" />
    <glyph glyph-name="brokenbar" unicode="&#xa6;" horiz-adv-x="224" 
d="M96 456l16 166.002c5.33301 54 11 104 17 150c5.33301 11.333 10.833 18.666 16.5 21.999s13.167 5 22.5 5c18 0 27 -9 27 -27c-4 -9.33301 -7.16699 -23.833 -9.5 -43.5s-4.5 -43.334 -6.5 -71.001s-3.83301 -58.667 -5.5 -93l-5.5 -108.5h-72zM168 423.002
c-4 -70 -10.167 -137.669 -18.5 -203.002s-20.5 -131.333 -36.5 -198c-2.66699 -7.33301 -9.16699 -13.666 -19.5 -18.999s-18.833 -8 -25.5 -8c-8 0 -13.5 2.83301 -16.5 8.5s-4.5 11.834 -4.5 18.501c10.667 50 19.5 109 26.5 177s14.167 144 21.5 228z" />
    <glyph glyph-name="section" unicode="&#xa7;" horiz-adv-x="393" 
d="M308 618l-0.00195312 2.99902c-6.66699 2 -19.667 2 -39 0s-38.333 -7.16699 -57 -15.5s-33.334 -20.666 -44.001 -36.999s-10.667 -37.833 0 -64.5c13.333 0 25.833 1.33301 37.5 4s22.5 4.83398 32.5 6.50098s19.5 1.33398 28.5 -0.999023s17.5 -8.83301 25.5 -19.5
c18.667 -25.333 31.334 -48.833 38.001 -70.5s8.33398 -42.334 5.00098 -62.001s-11.5 -39.167 -24.5 -58.5s-29.5 -39 -49.5 -59c7.33301 -4.66699 13.666 -10.667 18.999 -18c20 -26.667 30.5 -53.667 31.5 -81s-4.16699 -52.833 -15.5 -76.5s-27.166 -44.5 -47.499 -62.5
s-42.166 -30.833 -65.499 -38.5s-46.666 -9 -69.999 -4s-43.333 18.5 -60 40.5c-7.33301 10.667 -12.166 20.667 -14.499 30s2.16699 18.333 13.5 27c1.33301 1.33301 4.33301 3.33301 9 6s7.66699 4.33398 9 5.00098c13.333 -15.333 28.5 -25.833 45.5 -31.5
s33.667 -7.33398 50 -5.00098s31.333 8.16602 45 17.499s24.167 20.833 31.5 34.5s10.5 29 9.5 46s-8.5 34.5 -22.5 52.5c-6.66699 9.33301 -14.334 14.666 -23.001 15.999c-26.667 -14 -53 -19.667 -79 -17c-7.33301 -1.33301 -14 -1.5 -20 -0.5s-11.333 4.83301 -16 11.5
l-3 3c-10 6 -20.333 15.667 -31 29c-12.667 16.667 -19.834 35.334 -21.501 56.001s1 41.334 8 62.001s17.333 40.167 31 58.5s29.167 33.833 46.5 46.5c-6.66699 0.666992 -13 4.66699 -19 12c-20 26.667 -28.333 52.667 -25 78s13 48.166 29 68.499s36 37.333 60 51
s46.833 21.834 68.5 24.501s39.834 -0.833008 54.501 -10.5s21.334 -27.5 20.001 -53.5c1.33301 -0.666992 2.16602 -1.33398 2.49902 -2.00098s-0.833984 -1 -3.50098 -1zM185.998 263.999c26.667 19.333 48.5 43.332 65.5 71.999s26.167 58.334 27.5 89.001
c-10 14.667 -24.167 21 -42.5 19s-36.833 -9.16699 -55.5 -21.5s-35.667 -27.5 -51 -45.5s-24.833 -35.5 -28.5 -52.5s0.5 -31.5 12.5 -43.5s36 -17.667 72 -17z" />
    <glyph glyph-name="dieresis" unicode="&#xa8;" horiz-adv-x="415" 
d="M152 665c-18 0 -29.499 3.16797 -34.499 9.50098s-5.66699 13.5 -2 21.5s10 16 19 24s18.167 13.833 27.5 17.5s17.666 4 24.999 1s11 -11.5 11 -25.5c0 -14.667 -4.16699 -26.334 -12.5 -35.001s-19.5 -13 -33.5 -13zM323.001 672.001
c-18 0 -29.499 3.16797 -34.499 9.50098s-5.66699 13.5 -2 21.5s10 16 19 24s18.167 13.833 27.5 17.5s17.666 4 24.999 1s11 -11.5 11 -25.5c0 -14.667 -4.16699 -26.334 -12.5 -35.001s-19.5 -13 -33.5 -13z" />
    <glyph glyph-name="copyright" unicode="&#xa9;" horiz-adv-x="695" 
d="M414 547c-15.333 -2 -33.1689 -11.5 -53.502 -28.5s-39.5 -37.833 -57.5 -62.5s-33.333 -51.167 -46 -79.5s-19 -54.5 -19 -78.5c0 -19.333 5 -32.666 15 -39.999s24.333 -11 43 -11c20 0 39.5 2.33301 58.5 7s37.833 10 56.5 16s37.5 11.333 56.5 16s38.5 7 58.5 7
c0 -9.33301 -1.16699 -17.166 -3.5 -23.499s-6.16602 -13.166 -11.499 -20.499c-35.333 -16.667 -71.166 -31.834 -107.499 -45.501s-74.5 -20.5 -114.5 -20.5c-12 0 -24.667 2.16699 -38 6.5s-25.666 10.5 -36.999 18.5s-20.833 17.667 -28.5 29s-11.5 24 -11.5 38
c0 30 4.33301 59.167 13 87.5s20.667 55.166 36 80.499s33.833 48.666 55.5 69.999s45.167 40 70.5 56v1c10 6 21.5 12 34.5 18s25.167 9.33301 36.5 10s20.833 -2 28.5 -8s11.5 -18 11.5 -36c0 -4 -0.166992 -8.66699 -0.5 -14s-1 -10.833 -2 -16.5s-2.33301 -11 -4 -16
s-4.16699 -8.83301 -7.5 -11.5c-2.66699 -2.66699 -5.83398 -4.66699 -9.50098 -6l-10.5 -4c-4 -1.33301 -8 -2.33301 -12 -3v64zM26.9971 257c0 0.666992 0.164062 2.6709 0.49707 6.00391s0.5 5.66602 0.5 6.99902c23.333 86 51.666 157 84.999 213s70.333 101 111 135
s84.334 59.333 131.001 76s95.334 28.667 146.001 36c9.33301 0 15.5 -0.833008 18.5 -2.5s8.16699 -5.83398 15.5 -12.501l55.5 -68c16.333 -20.667 30 -41.834 41 -63.501s19.5 -44.5 25.5 -68.5s9 -51.667 9 -83c-7.33301 -42 -21 -82.5 -41 -121.5
s-43.833 -75.167 -71.5 -108.5s-58.167 -62.833 -91.5 -88.5s-67.666 -45.667 -102.999 -60s-70.166 -22 -104.499 -23s-66.5 6 -96.5 21s-56.333 39.167 -79 72.5s-40 77.666 -52 132.999zM108.994 220.004c20 -39.333 41.999 -68.9961 65.999 -88.9961s49 -32.333 75 -37
s52.167 -3 78.5 5s51.833 20.5 76.5 37.5s48 37.5 70 61.5s41.667 49.167 59 75.5s31.5 53.166 42.5 80.499s17.833 52.666 20.5 75.999c0 23.333 -1.66699 45.166 -5 65.499s-9.16602 39.666 -17.499 57.999s-19.666 36 -33.999 53s-32.833 33.833 -55.5 50.5
c-33.333 -0.666992 -67.166 -7.83398 -101.499 -21.501s-66.833 -32 -97.5 -55s-58.834 -49.333 -84.501 -79s-46.834 -60.667 -63.501 -93s-28 -64.666 -34 -96.999s-4.33301 -62.833 5 -91.5z" />
    <glyph glyph-name="ordfeminine" unicode="&#xaa;" horiz-adv-x="345" 
d="M18.9189 267.713c3.97363 22.6318 11.4854 43.4785 22.5215 62.5371s23.7275 35.6357 38.0742 49.7305c14.3467 14.0957 29.9072 25.71 46.6816 34.8418c16.7754 9.13184 33.1094 14.9883 49.001 17.5693s30.5693 1.88672 44.0332 -2.08301
c13.4639 -3.9707 24.3896 -11.9121 32.7773 -23.8232c0 -9.13184 -2.31738 -17.8672 -6.95312 -26.2061c-4.63477 -8.33789 -9.71094 -16.6758 -15.2295 -25.0137c-5.51855 -8.33887 -10.5947 -16.876 -15.2295 -25.6113
c-4.63574 -8.73535 -6.95312 -18.0664 -6.95312 -27.9932c0 -10.3232 2.53809 -18.5625 7.61523 -24.7168c5.07617 -6.1543 14.0156 -9.23145 26.8174 -9.23145c10.5947 0 20.8584 1.38965 30.791 4.16895s19.9756 4.16895 30.1289 4.16895
c1.76562 0 4.74512 -0.0996094 8.93945 -0.297852c4.19336 -0.198242 6.95215 -0.297852 8.27734 -0.297852c-5.29785 -6.75 -12.1406 -12.5068 -20.5283 -17.2715s-17.2168 -8.83496 -26.4873 -12.21c-9.27051 -3.37402 -18.8721 -5.85547 -28.8047 -7.44434
s-19.0928 -2.38281 -27.4805 -2.38281c-7.94629 0 -15.0098 1.58887 -21.1904 4.76562c-6.18066 3.17578 -11.4785 7.34473 -15.8936 12.5068c-4.41406 5.16113 -7.83496 11.0176 -10.2637 17.5693c-2.42773 6.55176 -3.6416 13.0039 -3.6416 19.3564l-21.5205 -21.1426
c-7.72559 -7.3457 -15.8926 -13.9961 -24.501 -19.9521s-17.8789 -10.9189 -27.8115 -14.8896s-20.1963 -5.95605 -30.791 -5.95605c-11.4775 0 -21.4102 3.87109 -29.7979 11.6143c-8.3877 7.74219 -12.5811 16.9736 -12.5811 27.6943zM62.6289 286.177
c0 -3.17676 0.109375 -6.74609 0.330078 -10.7168c0.220703 -3.96973 2.97949 -6.55078 8.27734 -7.74219c11.0361 2.38184 23.6172 7.64258 37.7432 15.7822s27.3691 17.6689 39.7295 28.5879s22.7344 22.6318 31.1221 35.1387s12.582 24.5176 12.582 36.0322
c0 0.793945 -0.110352 2.08398 -0.332031 3.87109c-0.220703 1.78613 -0.331055 3.07617 -0.331055 3.87012c-15.0088 0 -30.2383 -2.7793 -45.6885 -8.33789s-29.3555 -13.2021 -41.7158 -22.9297s-22.4033 -20.9443 -30.1289 -33.6504
s-11.5879 -26.0078 -11.5879 -39.9053z" />
    <glyph glyph-name="guillemotleft" unicode="&#xab;" horiz-adv-x="729" 
d="M294 282c0 7.33301 2.99805 13.502 8.99805 18.502s12 9.5 18 13.5l31 19.5l48 30l56.5 34.5l56.5 34.5l48.5 30l31.5 19.5l21 14c6 4 12 7.16699 18 9.5s12.5 4.16602 19.5 5.49902s15.833 2 26.5 2c0 -16.667 -4.33301 -30 -13 -40s-19.667 -20 -33 -30l-25.5 -16.5
l-39 -25.5l-45.5 -29.5l-45.5 -29.5l-39 -25l-25.5 -16c-10 -5.33301 -15 -12 -15 -20v-4c0 -0.666992 0.333008 -1.33398 1 -2.00098l247 -38c0 -2 0.333008 -3.66699 1 -5c0 -1.33301 0.166992 -2.5 0.5 -3.5s0.5 -1.83301 0.5 -2.5c0 -18 -9.66699 -32 -29 -42h-12
c-6 0 -12.5 -0.166992 -19.5 -0.5s-13.5 -0.5 -19.5 -0.5h-13c-8.66699 0 -21.167 0.666992 -37.5 2s-34.166 3.33301 -53.499 6s-39 6.5 -59 11.5s-38.167 11.167 -54.5 18.5s-29.666 16 -39.999 26s-15.5 21.667 -15.5 35zM4.99805 227.002
c0 7.33301 2.99902 13.668 8.99902 19.001s12 10 18 14l31.5 19l48 29.5l56.5 35l56.5 35l48 29.5c14.333 8.66699 24.833 15.334 31.5 20.001l21 14c6 4 12 7.16699 18 9.5s12.5 4.16602 19.5 5.49902s15.833 2 26.5 2c0 -16.667 -4.33301 -30 -13 -40s-19.667 -20 -33 -30
l-43.5 -28.5l-66.5 -43l-66 -43c-20.667 -13.667 -35.334 -22.834 -44.001 -27.501c-9.33301 -5.33301 -14 -12.333 -14 -21v-3c0 -0.666992 0.333008 -1.33398 1 -2.00098l246 -39c0 -1.33301 0.333008 -2.66602 1 -3.99902c0 -1.33301 0.166992 -2.5 0.5 -3.5
s0.5 -1.83301 0.5 -2.5c0 -18.667 -9.33301 -32.667 -28 -42h-13c-6 0 -12.5 -0.166992 -19.5 -0.5s-13.5 -0.5 -19.5 -0.5h-13c-8.66699 0 -21.167 0.5 -37.5 1.5s-34.166 3 -53.499 6s-39 6.83301 -59 11.5s-38.167 10.667 -54.5 18s-29.666 16 -39.999 26
s-15.5 21.667 -15.5 35z" />
    <glyph glyph-name="logicalnot" unicode="&#xac;" horiz-adv-x="514" 
d="M415 199c-4 21.333 -5.66895 41.834 -5.00195 61.501s1.5 37.167 2.5 52.5s1.5 28.166 1.5 38.499s-2.33301 17.166 -7 20.499c-6 2 -18.5 2.66699 -37.5 2s-41.167 -2.16699 -66.5 -4.5s-52.166 -5 -80.499 -8s-55.166 -5.66699 -80.499 -8s-47.333 -4 -66 -5
s-31 -0.5 -37 1.5c-16 20.667 -24.833 35.334 -26.5 44.001s1.33301 14.334 9 17.001s18.5 3.66699 32.5 3s29 -0.333984 45 0.999023l345 12c15.333 0.666992 26 -4.83301 32 -16.5s9 -23.167 9 -34.5l-31 -191c-0.666992 0 -1.66699 -0.166992 -3 -0.5
s-2.66602 -0.5 -3.99902 -0.5c-10.667 0 -21.334 5 -32.001 15z" />
    <glyph glyph-name="uni00AD" unicode="&#xad;" horiz-adv-x="419" 
d="M76 260c18 2 37.5 4.50293 58.5 7.50293l64.5 9c22 3 43.833 5.5 65.5 7.5s42.167 3 61.5 3c5.33301 0 11 0.166992 17 0.5s11.833 -0.333984 17.5 -2.00098s10.834 -4.33398 15.501 -8.00098s8 -9.5 10 -17.5c-4 -7.33301 -12 -13.833 -24 -19.5
s-26.333 -10.5 -43 -14.5s-34.334 -7.16699 -53.001 -9.5s-36 -4.33301 -52 -6s-29.833 -2.66699 -41.5 -3s-18.5 -0.5 -20.5 -0.5c-6 0 -13.333 0.5 -22 1.5s-17 2.66699 -25 5s-14.833 5.16602 -20.5 8.49902s-8.5 7 -8.5 11v27z" />
    <glyph glyph-name="registered" unicode="&#xae;" horiz-adv-x="785" 
d="M24 128c0 0.666992 0.169922 2.99707 0.50293 6.99707s0.5 6.66699 0.5 8c-1.33301 64.667 2.66699 127.667 12 189s24.166 118.833 44.499 172.5s45.666 102 75.999 145s65.666 78.333 105.999 106s85.833 46 136.5 55s106 6.5 166 -7.5
c5.33301 0 9.66602 -0.166992 12.999 -0.5s6.16602 -1 8.49902 -2s4.66602 -2.83301 6.99902 -5.5l8.5 -10l41.5 -48c11.667 -14 21.834 -27.5 30.501 -40.5s16.334 -26.333 23.001 -40s12.834 -29.167 18.501 -46.5s11 -37.333 16 -60l17.5 -80
c4.66699 -65.333 -1.5 -125.166 -18.5 -179.499s-41.667 -102.5 -74 -144.5s-70.833 -77.5 -115.5 -106.5s-92.667 -50.5 -144 -64.5s-104.333 -20.333 -159 -19s-108 11.333 -160 30c-12 6.66699 -21.5 15.834 -28.5 27.501s-12.5 24.334 -16.5 38.001
s-6.66699 27.167 -8 40.5s-2 25.333 -2 36zM115.003 86.9971c22 -32 50.499 -52.9961 85.499 -62.9961s72.333 -11.5 112 -4.5s80.167 21.167 121.5 42.5s79.666 47.333 114.999 78c-14 -2 -27.167 1.66699 -39.5 11s-24.333 21.833 -36 37.5s-23.167 33.167 -34.5 52.5
s-23 37.833 -35 55.5s-24.5 33.5 -37.5 47.5s-27.167 23.667 -42.5 29c0 -8.66699 -0.666992 -23.834 -2 -45.501s-2.66602 -44.5 -3.99902 -68.5s-2.66602 -46.833 -3.99902 -68.5s-2.33301 -36.834 -3 -45.501c-0.666992 -6 -1 -10.667 -1 -14s-0.166992 -6 -0.5 -8
s-1.5 -3.83301 -3.5 -5.5s-5 -3.5 -9 -5.5c-7.33301 -4 -15.333 -4.66699 -24 -2s-14.667 7.66699 -18 15c-5.33301 25.333 -8.83301 53.166 -10.5 83.499s-2 61.333 -1 93s3 63.5 6 95.5s6.16699 62 9.5 90c2 38 8.83301 73 20.5 105s26.5 57.167 44.5 75.5
s38.667 28.166 62 29.499s47.666 -9.66699 72.999 -33c8.66699 -16.667 13.167 -34.834 13.5 -54.501s-1.83398 -39.167 -6.50098 -58.5s-11 -38.166 -19 -56.499s-15.833 -34.5 -23.5 -48.5s-14.334 -25.5 -20.001 -34.5s-8.16699 -13.833 -7.5 -14.5l24 -40.5
c9.33301 -15.667 19.833 -31.834 31.5 -48.501s24.167 -32.667 37.5 -48s27 -28.166 41 -38.499s28 -17.333 42 -21s27.333 -2.16699 40 4.5c16.667 20.667 30.667 39.667 42 57s19.833 35.833 25.5 55.5s9 42 10 67s-0.166992 55.167 -3.5 90.5l-22 85.5
c-6 23 -13.333 43.333 -22 61s-20.167 34 -34.5 49s-33.833 32.167 -58.5 51.5c-34 18.667 -67.5 28 -100.5 28s-65 -7.33301 -96 -22s-60 -35.5 -87 -62.5s-51.5 -58 -73.5 -93s-40.667 -73 -56 -114s-26.666 -82.833 -33.999 -125.5s-10.166 -85 -8.49902 -127
s8.83398 -81.667 21.501 -119zM323.002 430.001c10.667 -6.66699 22 -5.50098 34 3.49902s23 22.167 33 39.5s18.333 36.833 25 58.5s10.5 41.167 11.5 58.5s-1.83301 30.833 -8.5 40.5s-18 11.5 -34 5.5c-13.333 -7.33301 -25 -20 -35 -38s-17.833 -37.667 -23.5 -59
s-9 -42.166 -10 -62.499s1.5 -35.833 7.5 -46.5z" />
    <glyph glyph-name="macron" unicode="&#xaf;" horiz-adv-x="419" 
d="M43 610c18 2 39.001 3.33301 63.001 4l74 2c25.333 0.666992 50 1 74 1h65c11.333 0 21.666 -2.5 30.999 -7.5s16.333 -15.167 21 -30.5c-17.333 -3.33301 -36.833 -6.16602 -58.5 -8.49902s-44 -4.33301 -67 -6s-45.833 -2.83398 -68.5 -3.50098
s-43.5 -0.833984 -62.5 -0.500977s-35.333 1.33301 -49 3s-23.167 3.83398 -28.5 6.50098z" />
    <glyph glyph-name="degree" unicode="&#xb0;" horiz-adv-x="289" 
d="M29 475c0 1.33301 0.168945 5.33203 0.501953 11.999s0.5 10.667 0.5 12c17.333 54 39 97.5 65 130.5s54.667 50.5 86 52.5c0.666992 0 2.16699 0.166992 4.5 0.5s4.16602 0.5 5.49902 0.5c14 0 25.5 -2.83301 34.5 -8.5s16.167 -13 21.5 -22s9.16602 -19 11.499 -30
s3.5 -21.833 3.5 -32.5c0 -19.333 -4.66699 -39.5 -14 -60.5s-21.833 -40.167 -37.5 -57.5s-33.667 -31.666 -54 -42.999s-41.5 -17 -63.5 -17s-38.167 5.5 -48.5 16.5s-15.5 26.5 -15.5 46.5zM89.002 483.999c0 -5.33301 2.16699 -9.16504 6.5 -11.498
s9.16602 -3.5 14.499 -3.5c12.667 0 25.167 3.33301 37.5 10s23.333 15.167 33 25.5s17.334 21.666 23.001 33.999s8.5 24.166 8.5 35.499c0 6 -0.333008 12.333 -1 19s-2.33398 12.667 -5.00098 18s-6.83398 9.33301 -12.501 12s-13.5 3 -23.5 1
c-7.33301 -1.33301 -15.666 -7.83301 -24.999 -19.5s-18.166 -25 -26.499 -40s-15.333 -30 -21 -45s-8.5 -26.833 -8.5 -35.5z" />
    <glyph glyph-name="plusminus" unicode="&#xb1;" horiz-adv-x="499" 
d="M44 156c14 1.33301 31.8301 2.33984 53.4971 3.00684s45.167 1.66699 70.5 3v6c0 18 2 35.5 6 52.5s6 34.167 6 51.5h-141c-10 0 -17.333 2.83301 -22 8.5s-7 12.167 -7 19.5c0 2 0.333008 4.33301 1 7s1.33398 4 2.00098 4l195 39c4 0.666992 7.5 3.66699 10.5 9
s5.66699 11.166 8 17.499s3.83301 12.166 4.5 17.499l2 8c0.666992 2.66699 1.83398 7.83398 3.50098 15.501s3.16699 15.5 4.5 23.5l4 23c1.33301 7.33301 2 12.666 2 15.999h3l3 1c11.333 0 21.833 -4.83301 31.5 -14.5s14.5 -20.167 14.5 -31.5
c0 -4.66699 -1.16699 -10.167 -3.5 -16.5s-5 -12.833 -8 -19.5l-9 -19.5c-3 -6.33301 -5.16699 -11.5 -6.5 -15.5c3.33301 0 9 -0.333008 17 -1s13.333 -1 16 -1c28 0 55.333 2.5 82 7.5s54 7.5 82 7.5c6 0 11.833 -1.66699 17.5 -5s8.5 -8.66602 8.5 -15.999
c0 -4 -3.16699 -7.66699 -9.5 -11s-13.5 -6.5 -21.5 -9.5s-15.5 -5.5 -22.5 -7.5s-11.5 -3 -13.5 -3c-6.66699 -1.33301 -18 -3.33301 -34 -6s-32.833 -5.33398 -50.5 -8.00098l-50.5 -7.5c-16 -2.33301 -27 -3.83301 -33 -4.5l-34 -136
c33.333 0.666992 64.833 1.16699 94.5 1.5s53.834 0.5 72.501 0.5c5.33301 0 11.166 0.166992 17.499 0.5s12.333 -0.333984 18 -2.00098s10.834 -4.33398 15.501 -8.00098s8 -9.5 10 -17.5c-4 -8 -14.667 -14.333 -32 -19s-38 -8.33398 -62 -11.001s-49.5 -4.5 -76.5 -5.5
s-52.167 -1.5 -75.5 -1.5s-43.333 0.166992 -60 0.5s-26 0.5 -28 0.5c-6 0 -13.333 0.666992 -22 2s-17 3.16602 -25 5.49902s-14.833 5.16602 -20.5 8.49902s-8.5 7 -8.5 11v27z" />
    <glyph glyph-name="twosuperior" unicode="&#xb2;" horiz-adv-x="337" 
d="M19.8604 181.571c0 1.05469 0.191406 3.25098 0.576172 6.5918c0.385742 3.34082 0.770508 5.71484 1.15527 7.12109c22.3311 17.2305 41.4854 33.4062 57.4629 48.5273c15.9775 15.1201 30.7041 30.5049 44.1797 46.1533
c13.4756 15.6475 26.7588 32.3506 39.8496 50.1084l45.0459 60.3955c9.24023 16.8789 13.5713 28.2197 12.9941 34.0215s-4.33105 7.99902 -11.2617 6.5918c-6.92969 -1.40625 -16.2656 -5.27441 -28.0088 -11.6035l-37.5391 -19.7803
c-13.2822 -6.85742 -26.4688 -13.0107 -39.5596 -18.4609s-24.2559 -7.82422 -33.4961 -7.12109c0 5.27441 2.98438 11.1641 8.95215 17.6689s13.668 13.0986 23.1006 19.7803c9.43262 6.68066 19.9238 13.2734 31.4746 19.7783
c11.5498 6.50586 23.0039 12.3086 34.3613 17.4072c11.3584 5.09863 21.8496 9.23047 31.4746 12.3955c9.62598 3.16504 17.3262 4.74707 23.1006 4.74707c4.62012 0 9.14453 -0.791016 13.5723 -2.37402c4.42676 -1.58203 8.37305 -3.78027 11.8389 -6.59375
c3.46484 -2.8125 6.35254 -6.06543 8.66309 -9.75781c2.30957 -3.69238 3.46484 -7.64844 3.46484 -11.8682c0 -12.3076 -3.36914 -25.3184 -10.1064 -39.0322s-15.1113 -27.252 -25.1221 -40.6143s-20.8877 -26.4609 -32.6309 -39.2959l-32.6299 -35.0762
c-10.0098 -10.5498 -18.3838 -19.7803 -25.1211 -27.6924c-6.7373 -7.91113 -10.1064 -13.625 -10.1064 -17.1416c14.2451 -8.79102 27.7207 -16.5273 40.4258 -23.208c10.7803 -5.97754 21.1758 -11.252 31.1865 -15.8232s17.1338 -6.85742 21.3691 -6.85742
c7.7002 0 14.7266 1.14258 21.0791 3.42871s12.5127 4.2207 18.4805 5.80371c5.96777 1.58203 12.1279 2.10938 18.4805 1.58203s13.5713 -3.60449 21.6562 -9.23047c0 -0.351562 -1.44434 -1.58203 -4.33203 -3.69238l-10.1064 -7.64844
c-3.84961 -2.98926 -7.98828 -5.97852 -12.416 -8.96777l-10.6846 -7.12109c-15.0146 -8.79102 -29.0674 -12.5713 -42.1582 -11.3398c-13.0908 1.23047 -25.7959 4.65918 -38.1162 10.2852s-24.5439 12.1318 -36.6719 19.5166
c-12.1279 7.38379 -24.5449 12.834 -37.251 16.3506c-10.3955 0 -17.999 -2.5498 -22.8115 -7.64844s-9.04785 -10.7246 -12.7051 -16.8779s-7.60352 -11.7793 -11.8389 -16.8779s-10.7803 -7.64844 -19.6348 -7.64844c-8.46973 0 -13.8604 1.75781 -16.1709 5.27441
c-2.30957 3.5166 -3.46484 8.79102 -3.46484 15.8242z" />
    <glyph glyph-name="threesuperior" unicode="&#xb3;" horiz-adv-x="345" 
d="M15.9775 252.094c0 4 2.02832 6.27539 6.07227 6.82129s7.0293 0.818359 8.95508 0.818359c5.77832 0 10.6895 -1.63672 14.7334 -4.90918s7.79883 -7.27246 11.2646 -12c3.4668 -4.72754 6.74121 -10 9.82227 -15.8184s6.64355 -11.0908 10.6875 -15.8184
s8.7627 -8.72754 14.1553 -12c5.3916 -3.27246 12.1318 -4.90918 20.2207 -4.90918c20.0283 0 39.1904 4.09082 57.4863 12.2734c18.2959 8.18164 34.377 19.0908 48.2432 32.7285c13.8662 13.6367 24.9395 29.2734 33.2207 46.9102s12.4219 35.7285 12.4219 54.2744
c0 8 -1.92578 15.3643 -5.77734 22.0918s-10.7842 10.0908 -20.7988 10.0908c-0.385742 0 -0.963867 -0.0908203 -1.73438 -0.272461s-1.34863 -0.272461 -1.73438 -0.272461c-1.15527 -0.364258 -3.94824 -1.63672 -8.37793 -3.81836l-14.1553 -7.0918
c-5.00684 -2.5459 -9.72461 -4.81836 -14.1533 -6.81836c-4.42969 -2 -7.22266 -3.18164 -8.37793 -3.54492c-0.770508 -0.364258 -2.69629 -0.0917969 -5.77734 0.817383s-6.25879 2.09082 -9.5332 3.54492s-6.35547 3 -9.24414 4.63672
c-2.88867 1.63574 -4.52539 3.18164 -4.91113 4.63672c5.77832 8.36426 14.0596 17.4551 24.8438 27.2734l33.5098 29.1826l32.3545 27.5459c10.0146 8.72754 17.1406 16.1826 21.3779 22.3643c0 9.81836 -2.59961 15.1826 -7.7998 16.0918s-11.9404 -0.0908203 -20.2217 -3
s-17.5254 -6.72754 -27.7324 -11.4551s-20.5107 -7.63672 -30.9102 -8.72754h-1.7334c-0.385742 0 -0.963867 0.181641 -1.73438 0.545898c-0.770508 0.363281 -2.21484 1.18164 -4.33301 2.4541l-6.64453 4.09082l-6.64453 4.0918
c-2.11816 1.27246 -3.5625 2.27246 -4.33301 3c6.54785 7.63574 14.4443 14.999 23.6885 22.0898s19.1621 13.1816 29.7549 18.2725c10.5918 5.09082 21.377 9.18164 32.3545 12.2725s21.666 4.63672 32.0654 4.63672c7.70312 0 14.54 -0.363281 20.5098 -1.09082
c5.9707 -0.727539 10.9785 -2.27344 15.0225 -4.63672c4.04395 -2.36426 7.125 -5.81934 9.24316 -10.3652s3.17773 -10.8184 3.17773 -18.8184c0 -1.09082 -0.385742 -2.81836 -1.15625 -5.18262c-0.770508 -2.36328 -3.08105 -6.81738 -6.93262 -13.3633
s-9.91797 -15.7285 -18.1992 -27.5469s-19.9326 -27.5459 -34.9551 -47.1826c4.62207 -3.27344 9.14844 -7.0918 13.5781 -11.4551c4.42871 -4.36426 8.47266 -9.18262 12.1318 -14.4551s6.64453 -10.7275 8.95605 -16.3643s3.4668 -11.3643 3.4668 -17.1826
c0 -23.2734 -5.00781 -45.8193 -15.0225 -67.6387c-10.0146 -21.8184 -23.3994 -41.0918 -40.1543 -57.8193s-36.2061 -30.1826 -58.3535 -40.3652s-45.5469 -15.2734 -70.1982 -15.2734c-13.4814 0 -26.2881 1.81836 -38.4209 5.45508s-22.918 9.0918 -32.3545 16.3643
s-16.9473 16.2725 -22.5322 27s-8.37695 23.001 -8.37695 36.8203z" />
    <glyph glyph-name="acute" unicode="&#xb4;" horiz-adv-x="237" 
d="M161 829c11.333 -0.666992 16.335 -6.16797 15.002 -16.501s-6.16602 -22.666 -14.499 -36.999s-18.833 -29.5 -31.5 -45.5s-25.334 -29.833 -38.001 -41.5s-23.834 -19.834 -33.501 -24.501s-15.167 -3 -16.5 5c2.66699 6.66699 8.66699 18 18 34s20 32.5 32 49.5
s24.167 32.833 36.5 47.5s23.166 24.334 32.499 29.001z" />
    <glyph glyph-name="mu" unicode="&#xb5;" horiz-adv-x="462" 
d="M39 15c0 10 0.162109 26.6689 0.495117 50.002s1 49.333 2 78s2.66699 58.167 5 88.5s5.33301 58 9 83s8.33398 45.667 14.001 62s12.834 24.5 21.501 24.5c9.33301 0 18.333 -0.5 27 -1.5s13 -6.16699 13 -15.5c-15.333 -88.667 -20.166 -158.667 -14.499 -210
s18.5 -78.833 38.5 -82.5s45.833 19.333 77.5 69s66.5 131.5 104.5 245.5c2.66699 8 6.66699 12.5 12 13.5s11.166 0.5 17.499 -1.5s12.666 -4.5 18.999 -7.5s11.5 -4.5 15.5 -4.5c0 -25.333 -1.5 -48.333 -4.5 -69s-6.16699 -41 -9.5 -61s-6.5 -40.333 -9.5 -61
s-4.5 -43.667 -4.5 -69c0 -10.667 1.5 -22.5 4.5 -35.5s7 -25.5 12 -37.5s10.333 -22 16 -30s11.5 -12.333 17.5 -13v-26c-30.667 -1.33301 -56.167 8.83398 -76.5 30.501s-37.166 53.5 -50.499 95.5c-6 -28 -17.333 -51.667 -34 -71s-35.167 -33.333 -55.5 -42
s-41.5 -11.334 -63.5 -8.00098c-20 3.33301 -38 13.333 -54 30v-1c2.66699 -8.66699 5 -21.334 7 -38.001s3.33301 -35.167 4 -55.5s-0.666016 -38.5 -3.99902 -54.5s-9.16602 -28 -17.499 -36s-20.166 -8 -35.499 0c-1.33301 0.666992 -2.33301 5 -3 13
s-1.16699 17.667 -1.5 29s-0.5 23.666 -0.5 36.999s0.166992 26 0.5 38s0.5 22 0.5 30v14z" />
    <glyph glyph-name="paragraph" unicode="&#xb6;" horiz-adv-x="544" 
d="M219 24c0 0.666992 0.333008 1.67383 1 3.00684c20 50.667 38.333 100.334 55 149.001l50.5 145l52.5 144c18 48 38.667 97 62 147l-87 3c0 -6.66699 -2.66699 -20.5 -8 -41.5s-12.666 -46.5 -21.999 -76.5l-31.5 -99.5l-37 -110l-39.5 -107.5
c-13.333 -34.667 -25.833 -65.334 -37.5 -92.001s-22.167 -48.167 -31.5 -64.5s-16.666 -24.5 -21.999 -24.5c-15.333 0 -27 4.66699 -35 14s-12 20.666 -12 33.999v9c0 4.66699 0.333008 7.66699 1 9l168 414v10c-18 0 -31 -0.833008 -39 -2.5
s-15.5 -3.33398 -22.5 -5.00098s-15.333 -3.33398 -25 -5.00098s-24.834 -2.5 -45.501 -2.5c-14 0 -26.667 3.66699 -38 11s-21 16.666 -29 27.999s-14.167 23.666 -18.5 36.999s-6.5 25.666 -6.5 36.999c0 29.333 6 53.166 18 71.499s27.667 32.5 47 42.5
s41.166 16.667 65.499 20s48.833 5 73.5 5c7.33301 0 17 -0.333008 29 -1s27.5 -2 46.5 -4s42.333 -5.16699 70 -9.5s60.5 -9.83301 98.5 -16.5c12.667 -2 22.667 -4.5 30 -7.5s12.666 -7.16699 15.999 -12.5s5.5 -12 6.5 -20s1.5 -18 1.5 -30
c-48.667 -106 -88.667 -198.667 -120 -278s-56.166 -144.833 -74.499 -196.5s-31.333 -89.5 -39 -113.5s-12.5 -33.667 -14.5 -29h-15c-6 0 -12.167 0.166992 -18.5 0.5s-11.833 1.33301 -16.5 3s-7 4.5 -7 8.5v4z" />
    <glyph glyph-name="periodcentered" unicode="&#xb7;" horiz-adv-x="264" 
d="M99 290c0.666992 8.66699 4.49902 15.832 11.499 21.499s15 8.5 24 8.5s17.833 -3.5 26.5 -10.5s15.334 -19.5 20.001 -37.5c0 -14 -4 -25.5 -12 -34.5s-19.333 -13.5 -34 -13.5c-2 0 -5 -0.5 -9 -1.5s-8 0 -12 3s-7.5 9.33301 -10.5 19s-4.5 24.834 -4.5 45.501z" />
    <glyph glyph-name="cedilla" unicode="&#xb8;" horiz-adv-x="328" 
d="M58 -152c0 9.33301 1.33105 16.998 3.99805 22.998s9.33398 9 20.001 9h7c3.33301 0 5.66602 -0.333008 6.99902 -1c-0.666992 -20.667 3 -36.167 11 -46.5s21.667 -15.5 41 -15.5c16.667 0 30.334 1.16699 41.001 3.5s19 6.5 25 12.5s10.167 14.5 12.5 25.5
s3.5 25.5 3.5 43.5c0 10.667 -3.16699 18.667 -9.5 24s-13.333 10 -21 14s-14.667 8 -21 12s-9.5 10 -9.5 18c-1.33301 31.333 1.33398 54 8.00098 68s13.5 20.333 20.5 19s12.333 -9.66602 16 -24.999s1.83398 -36 -5.49902 -62c7.33301 -5.33301 15 -10.166 23 -14.499
s15.167 -8.83301 21.5 -13.5s11.666 -10 15.999 -16s6.5 -13.333 6.5 -22c0 -46.667 -9.33301 -80 -28 -100s-50 -30 -94 -30c-25.333 0 -47.5 6 -66.5 18s-28.5 30.667 -28.5 56z" />
    <glyph glyph-name="onesuperior" unicode="&#xb9;" horiz-adv-x="242" 
d="M16.5176 160.273c0 0.527344 0.125977 1.38281 0.375977 2.56738c0.250977 1.18555 0.375977 2.04199 0.375977 2.56836l35.2959 52.5547l38.2998 58.876l38.2998 58.6777c12.5166 19.0986 24.5322 36.5508 36.0469 52.3564
c4.00488 4.47852 8.13477 7.37598 12.3896 8.69336c4.25586 1.31738 9.88867 1.97559 16.8975 1.97559c13.5176 0 20.2764 -3.55664 20.2764 -10.6689c-1.00098 -6.05859 -4.50586 -15.6738 -10.5137 -28.8447c-6.00781 -13.1719 -15.0195 -29.5049 -27.0352 -48.998
s-27.1602 -41.8184 -45.4336 -66.9756c-18.2744 -25.1572 -40.1777 -52.751 -65.7109 -82.7822c-2.00293 -2.89746 -6.88477 -5.40039 -14.6455 -7.50781c-7.75977 -2.10742 -14.1426 -3.16113 -19.1494 -3.16113c-5.50684 0 -9.51172 1.12012 -12.0146 3.35938
s-3.75488 4.67578 -3.75488 7.30957z" />
    <glyph glyph-name="ordmasculine" unicode="&#xba;" 
d="M8.19141 327.058c0 1.87402 0.129883 5.73926 0.392578 11.5986c0.262695 5.8584 0.394531 9.72559 0.394531 11.6006c16.8193 34.2158 38.3691 65.8535 64.6494 94.9131c26.2793 29.0596 55.9756 54.8389 89.0879 77.3369c1.05176 0 2.75977 0.351562 5.12402 1.05469
c2.36523 0.703125 4.07324 1.05469 5.125 1.05469c14.1904 0 25.8848 -2.69531 35.083 -8.08496s16.5566 -12.4199 22.0752 -21.0908s9.3291 -18.2793 11.4316 -28.8252s3.15332 -20.7402 3.15332 -30.583c0 -18.2793 -4.73047 -37.3789 -14.1904 -57.2998
c-9.46094 -19.9199 -22.207 -38.1992 -38.2373 -54.8389s-34.2949 -30.2324 -54.793 -40.7783s-41.7842 -15.8193 -63.8594 -15.8193s-38.5 5.27344 -49.2744 15.8193s-16.1621 25.1934 -16.1621 43.9424zM69.6846 335.492c0 -5.15527 2.36426 -8.66895 7.09473 -10.5439
s9.46094 -2.8125 14.1904 -2.8125c13.1396 0 25.8857 3.16406 38.2373 9.49121c12.3516 6.32812 23.3887 14.2959 33.1123 23.9043s17.4766 20.2715 23.2588 31.9893c5.78125 11.7178 8.67188 22.9668 8.67188 33.7471c0 5.15625 -0.394531 10.8984 -1.18262 17.2256
s-2.49609 11.9512 -5.12402 16.8721c-2.62793 4.92188 -6.70117 8.78906 -12.2197 11.6006c-5.51855 2.8125 -13.2715 3.28125 -23.2578 1.40625c-7.3584 -1.40625 -15.7676 -7.49902 -25.2275 -18.2793c-9.46094 -10.7803 -18.5273 -23.3184 -27.1992 -37.6143
c-8.67285 -14.2959 -15.9004 -28.5918 -21.6826 -42.8877c-5.78125 -14.2959 -8.67188 -25.6621 -8.67188 -34.0986z" />
    <glyph glyph-name="guillemotright" unicode="&#xbb;" horiz-adv-x="760" 
d="M319 91c4.66699 12.667 13.1689 24.667 25.502 36s27 22 44 32s35.5 19 55.5 27s39.833 15.167 59.5 21.5s38.167 11.666 55.5 15.999s32.333 7.5 45 9.5c0 0.666992 0.166992 1.83398 0.5 3.50098s0.5 2.83398 0.5 3.50098c0 8.66699 -5 15.667 -15 21s-18 9 -24 11
l-47 16l-70 23.5l-70 23.5c-22 7.33301 -37.333 12.333 -46 15c-10.667 13.333 -15.5 24.833 -14.5 34.5s5.5 17.167 13.5 22.5s18.167 8.66602 30.5 9.99902s24.666 0.833008 36.999 -1.5s23.166 -6.83301 32.499 -13.5s15.333 -15.334 18 -26.001l232 -90
c27.333 -11.333 41 -28.666 41 -51.999c0 -10.667 -3.5 -18.667 -10.5 -24s-15.5 -9 -25.5 -11s-20.167 -3.16699 -30.5 -3.5s-18.833 -0.5 -25.5 -0.5l-273 -117c-0.666992 0 -1.5 -0.166992 -2.5 -0.5s-2.16699 -0.5 -3.5 -0.5c-6 0 -11.5 1.16699 -16.5 3.5
s-10.5 5.83301 -16.5 10.5zM26.002 91c4.66699 12.667 13.1689 24.668 25.502 36.001s27 22 44 32s35.5 19 55.5 27s39.667 15.167 59 21.5s37.833 11.666 55.5 15.999s32.5 7.5 44.5 9.5c0 0.666992 0.166992 1.83398 0.5 3.50098s0.5 2.83398 0.5 3.50098
c0 8.66699 -5 15.667 -15 21s-18 9 -24 11c-8.66699 3.33301 -24 8.66602 -46 15.999l-141 47c-22 7.33301 -37.333 12.333 -46 15c-10.667 13.333 -15.5 24.833 -14.5 34.5s5.5 17.167 13.5 22.5s18.167 8.66602 30.5 9.99902s24.666 0.833008 36.999 -1.5
s23.166 -6.83301 32.499 -13.5s15.333 -15.334 18 -26.001l232 -90c27.333 -11.333 41 -28.666 41 -51.999c0 -10.667 -3.5 -18.667 -10.5 -24s-15.5 -9 -25.5 -11s-20.167 -3.16699 -30.5 -3.5s-18.833 -0.5 -25.5 -0.5l-272 -117c-1.33301 0 -2.5 -0.166992 -3.5 -0.5
s-2.16699 -0.5 -3.5 -0.5c-6 0 -11.5 1.16699 -16.5 3.5s-10.167 5.83301 -15.5 10.5z" />
    <glyph glyph-name="onequarter" unicode="&#xbc;" horiz-adv-x="742" 
d="M16.7979 169.543c0 0.745117 0.12793 1.95703 0.382812 3.63477c0.255859 1.67871 0.383789 2.89062 0.383789 3.63574l36.0273 74.3906l39.0938 83.3398l39.0938 83.0596c12.7754 27.0342 25.04 51.7383 36.793 74.1123
c4.08887 6.33887 8.30469 10.4404 12.6484 12.3047s10.0928 2.79688 17.2471 2.79688c13.7979 0 20.6963 -5.03418 20.6963 -15.1016c-1.02246 -8.57715 -4.59961 -22.1875 -10.7314 -40.8311c-6.13184 -18.6445 -15.3301 -41.7637 -27.5947 -69.3564
c-12.2646 -27.5938 -27.7236 -59.1953 -46.376 -94.8057s-41.0098 -74.6699 -67.0723 -117.179c-2.04395 -4.10254 -7.02637 -7.64551 -14.9473 -10.6289s-14.4365 -4.47461 -19.5469 -4.47461c-5.62207 0 -9.70996 1.58496 -12.2646 4.75488
c-2.55566 3.16895 -3.83301 6.61816 -3.83301 10.3477zM86 38c0 10 1.16797 18.5 3.50098 25.5s10.166 13.167 23.499 18.5l25 43.5l38.5 66.5l45.5 78l46 78l39.5 66.5c11.667 19.667 20.5 34.167 26.5 43.5c6.66699 11.333 16 25.833 28 43.5s25 35.667 39 54
s28.667 36.166 44 53.499s30 31.666 44 42.999c1.33301 0.666992 4 1.5 8 2.5s6.66699 1.5 8 1.5c0 -10 -4.5 -24.667 -13.5 -44s-20.5 -40.833 -34.5 -64.5s-29.667 -48.5 -47 -74.5l-51 -76l-45.5 -69c-13.667 -21.333 -24.167 -38.666 -31.5 -51.999
c-8 -14 -17.833 -32.833 -29.5 -56.5s-24.5 -48 -38.5 -73s-28.5 -49.333 -43.5 -73s-29.833 -42.5 -44.5 -56.5c-2 -2 -6.33301 -4.66699 -13 -8s-10.667 -5 -12 -5c-4 0 -7.16699 1.5 -9.5 4.5s-3.83301 6.33301 -4.5 10s-1 7.33398 -1 11.001v8.5zM310.204 19.5166
c8.79785 11.3545 17.3848 24.458 25.7637 39.3066l24.5088 45.5293c7.95996 15.5039 15.1865 30.6797 21.6797 45.5283l17.2812 39.3057v1.96484c0 0.874023 0.104492 1.41992 0.314453 1.6377c0.209961 0.21875 0.314453 0.546875 0.314453 0.983398
c0 6.9873 -3.24707 12.0098 -9.74023 15.0664c-6.49316 3.05762 -13.9297 5.02344 -22.3086 5.89746c-8.37891 0.873047 -16.6533 1.2002 -24.8232 0.982422c-8.16895 -0.217773 -13.9297 -0.327148 -17.2812 -0.327148c-15.9199 0 -27.9648 -2.72949 -36.1338 -8.18945
c-8.16895 -5.45898 -14.7676 -11.4639 -19.7949 -18.0146l-14.1396 -18.0146c-4.39941 -5.45996 -10.7881 -8.18945 -19.167 -8.18945c-5.86523 0 -11.5205 1.96582 -16.9668 5.89648s-8.16992 9.1709 -8.16992 15.7217c0 3.05762 3.66602 10.9189 10.9971 23.584
s16.7578 27.4043 28.2793 44.2178l38.0186 53.3906c13.8252 18.7793 27.3359 36.1387 40.5322 52.0791s25.0312 29.042 35.5049 39.3047s18.0146 15.3945 22.623 15.3945c0 -12.2285 -2.30371 -24.6748 -6.91211 -37.3398s-10.3691 -25.5488 -17.2822 -38.6504
c-6.91211 -13.1025 -14.4531 -26.3135 -22.623 -39.6328c-8.16895 -13.3203 -15.6055 -26.5312 -22.3086 -39.6328c0 -0.436523 2.19922 -0.982422 6.59863 -1.6377c4.39844 -0.655273 9.63477 -1.52832 15.71 -2.62012s12.2549 -2.07422 18.5391 -2.94727
c6.28418 -0.874023 11.5215 -1.5293 15.7109 -1.96582h26.3936c0.837891 0 2.82812 -0.21875 5.96973 -0.655273s6.49316 -0.436523 10.0547 0s6.80859 1.31055 9.74121 2.62109c2.93262 1.30957 4.81836 3.71191 5.65625 7.20605
c1.25684 3.49316 3.56055 8.84277 6.91211 16.0488l11.3125 24.2383l13.5107 28.1689l13.8252 28.1689l11.625 23.9111l7.54102 15.7217l13.5117 25.877c3.97949 7.64258 8.27344 14.1934 12.8818 19.6523s10.0547 9.60742 16.3389 12.4463s14.4541 4.25879 24.5088 4.25879
c0 -3.49414 -1.99023 -9.93555 -5.96973 -19.3252c-3.98047 -9.38965 -8.48438 -19.3252 -13.5117 -29.8066l-14.4531 -29.4795c-4.6084 -9.1709 -7.54102 -15.2852 -8.79785 -18.3428c-0.418945 -3.05664 -2.30371 -7.96973 -5.65527 -14.7393l-11.626 -22.9277
l-13.8252 -26.8594c-4.81738 -9.38965 -9.00684 -18.0146 -12.5684 -25.876c-3.56152 -7.86035 -5.9707 -14.4111 -7.22754 -19.6523s-0.628906 -8.29785 1.88477 -9.1709c7.12207 0 13.3018 1.74707 18.5381 5.24023c5.2373 3.49414 11.417 5.24121 18.5391 5.24121
c4.6084 0 9.1123 -0.874023 13.5117 -2.62109c4.39844 -1.74707 6.59766 -5.67773 6.59766 -11.792c0 -6.55176 -2.19922 -11.6836 -6.59766 -15.3955c-4.39941 -3.71191 -9.9502 -6.76953 -16.6533 -9.17188c-6.70312 -2.40137 -14.2441 -4.69434 -22.623 -6.87793
s-16.5488 -4.80371 -24.5088 -7.86133s-15.1865 -7.20703 -21.6797 -12.4482c-6.49316 -5.24023 -11.2061 -12.0098 -14.1387 -20.3076l-13.1963 -40.9424c-5.44629 -17.251 -12.0449 -34.1738 -19.7959 -50.7686c-7.75098 -16.5957 -16.9678 -31.0078 -27.6504 -43.2363
s-22.9365 -18.3428 -36.7617 -18.3428c-3.77051 0 -7.12207 0.327148 -10.0547 0.982422s-5.02734 3.38477 -6.28418 8.18848z" />
    <glyph glyph-name="onehalf" unicode="&#xbd;" horiz-adv-x="717" 
d="M37.1357 172.997c0 1.02539 0.103516 2.69141 0.30957 4.99902s0.308594 3.97363 0.308594 4.99902l29.0771 102.291l31.5518 114.597l31.5508 114.212c10.3115 37.1729 20.21 71.1416 29.6953 101.906c3.2998 8.71582 6.70215 14.3555 10.208 16.9189
s8.14551 3.8457 13.9189 3.8457c11.1357 0 16.7041 -6.92188 16.7041 -20.7656c-0.825195 -11.793 -3.71191 -30.5078 -8.66113 -56.1445c-4.94922 -25.6377 -12.373 -57.4277 -22.2715 -95.3701s-22.375 -81.3965 -37.4287 -130.362s-33.0977 -102.675 -54.1318 -161.127
c-1.64941 -5.64062 -5.6709 -10.5117 -12.0635 -14.6133c-6.39258 -4.10254 -11.6514 -6.15332 -15.7764 -6.15332c-4.53613 0 -7.83594 2.17969 -9.89844 6.53809c-2.06152 4.3584 -3.09277 9.10156 -3.09277 14.2295zM72 51c0 10 1.16797 18.5 3.50098 25.5
s10.166 13.167 23.499 18.5l25 43.5l38.5 66.5l45.5 78l46 78l39.5 66.5c11.667 19.667 20.5 34.167 26.5 43.5c6.66699 11.333 16 25.833 28 43.5s25 35.667 39 54s28.667 36.166 44 53.499s30 31.666 44 42.999c1.33301 0.666992 4 1.5 8 2.5s6.66699 1.5 8 1.5
c0 -10 -4.5 -24.667 -13.5 -44s-20.5 -40.833 -34.5 -64.5s-29.667 -48.5 -47 -74.5l-51 -76l-45.5 -69c-13.667 -21.333 -24.167 -38.666 -31.5 -51.999c-8 -14 -17.833 -32.833 -29.5 -56.5s-24.5 -48 -38.5 -73s-28.5 -49.333 -43.5 -73s-29.833 -42.5 -44.5 -56.5
c-2 -2 -6.33301 -4.66699 -13 -8s-10.667 -5 -12 -5c-4 0 -7.16699 1.5 -9.5 4.5s-3.83301 6.33301 -4.5 10s-1 7.33398 -1 11.001v8.5zM257.191 31.7725c0 1.37207 0.254883 4.2334 0.759766 8.58105s1.00977 7.43652 1.51465 9.26758
c29.3076 22.4248 54.4463 43.4766 75.416 63.1553s40.2969 39.7002 57.9814 60.0645c17.6855 20.3652 35.1182 42.1035 52.2979 65.2139l59.1191 78.6006c12.127 21.9668 17.8115 36.7256 17.0537 44.2764c-0.758789 7.55176 -5.68555 10.4121 -14.7803 8.58105
s-21.3477 -6.86523 -36.7588 -15.1025l-49.2656 -25.7422c-17.4326 -8.92383 -34.7393 -16.9326 -51.9199 -24.0264c-17.1797 -7.09277 -31.833 -10.1816 -43.96 -9.2666c0 6.86426 3.91602 14.5293 11.748 22.9951s17.9375 17.0469 30.3174 25.7422
s26.1494 17.2764 41.3086 25.7422c15.1592 8.4668 30.1914 16.0176 45.0967 22.6533c14.9062 6.63574 28.6758 12.0127 41.3076 16.1309c12.6318 4.11914 22.7373 6.17871 30.3164 6.17871c6.06348 0 12.001 -1.03027 17.8115 -3.08984
c5.81152 -2.05957 10.9912 -4.91992 15.5391 -8.58105s8.33691 -7.89453 11.3682 -12.7002c3.03223 -4.80469 4.54785 -9.95312 4.54785 -15.4453c0 -16.0176 -4.4209 -32.9502 -13.2637 -50.7979c-8.84277 -17.8486 -19.833 -35.4678 -32.9707 -52.8574
c-13.1377 -17.3906 -27.4121 -34.4375 -42.8232 -51.1416l-42.8232 -45.6494c-13.1377 -13.7295 -24.1279 -25.7432 -32.9707 -36.04s-13.2637 -17.7334 -13.2637 -22.3096c18.6953 -11.4414 36.3809 -21.5098 53.0557 -30.2041
c14.1475 -7.78027 27.79 -14.6455 40.9277 -20.5957c13.1377 -5.94922 22.4854 -8.92383 28.043 -8.92383c10.1055 0 19.3271 1.4873 27.665 4.46191c8.33691 2.97461 16.4219 5.49219 24.2539 7.55176c7.83105 2.05957 15.916 2.74609 24.2539 2.05957
c8.33691 -0.686523 17.8105 -4.69141 28.4209 -12.0137c0 -0.458008 -1.89453 -2.05957 -5.68457 -4.80469l-13.2637 -9.9541c-5.05273 -3.88965 -10.4844 -7.7793 -16.2959 -11.6689l-14.0215 -9.26758c-19.7061 -11.4404 -38.1494 -16.3604 -55.3291 -14.7588
c-17.1797 1.60254 -33.8545 6.06445 -50.0234 13.3857c-16.1689 7.32324 -32.2119 15.79 -48.1289 25.4004s-32.2129 16.7041 -48.8877 21.2803c-13.6436 0 -23.623 -3.31738 -29.9385 -9.95312c-6.31641 -6.63574 -11.875 -13.958 -16.6748 -21.9668
s-9.97852 -15.3311 -15.5361 -21.9668c-5.55859 -6.63574 -14.1484 -9.9541 -25.7705 -9.9541c-11.1162 0 -18.1904 2.28809 -21.2217 6.86426c-3.03223 4.57715 -4.54785 11.4424 -4.54785 20.5957z" />
    <glyph glyph-name="threequarters" unicode="&#xbe;" horiz-adv-x="945" 
d="M16.6914 255.892c0 4.36621 2.33789 6.85059 7.01367 7.44629s8.12695 0.893555 10.3535 0.893555c6.67969 0 12.3574 -1.78613 17.0332 -5.35938s9.01758 -7.94043 13.0254 -13.1016s7.79297 -10.917 11.3555 -17.2686s7.68164 -12.1074 12.3574 -17.2676
c4.67578 -5.16113 10.1309 -9.52832 16.3652 -13.1016c6.23438 -3.57227 14.0273 -5.3584 23.3789 -5.3584c23.1562 0 45.3105 4.46582 66.4629 13.3975s39.7441 20.8408 55.7754 35.7275s28.834 31.9561 38.4082 51.209s14.3613 39.002 14.3613 59.2471
c0 8.7334 -2.22656 16.7725 -6.67969 24.1162c-4.45312 7.34473 -12.4688 11.0166 -24.0469 11.0166c-0.445312 0 -1.11328 -0.0996094 -2.00391 -0.297852s-1.55859 -0.297852 -2.00391 -0.297852c-1.33594 -0.397461 -4.56445 -1.78711 -9.68555 -4.16895
l-16.3652 -7.74121c-5.78906 -2.77832 -11.2441 -5.25977 -16.3652 -7.44336c-5.12109 -2.18262 -8.34961 -3.47266 -9.68555 -3.87012c-0.890625 -0.397461 -3.11719 -0.0996094 -6.67969 0.892578c-3.5625 0.993164 -7.23633 2.2832 -11.0215 3.87109
s-7.34766 3.27539 -10.6875 5.06152s-5.23242 3.47363 -5.67773 5.0625c6.67969 9.12988 16.2539 19.0537 28.7227 29.7715l38.7422 31.8574l37.4062 30.0703c11.5781 9.52734 19.8164 17.665 24.7148 24.4141c0 10.7178 -3.00586 16.5732 -9.01758 17.5654
c-6.01172 0.993164 -13.8047 -0.0986328 -23.3789 -3.27441s-20.2617 -7.34375 -32.0625 -12.5049s-23.7129 -8.33691 -35.7363 -9.52734h-2.00391c-0.445312 0 -1.11328 0.198242 -2.00391 0.595703s-2.56055 1.29102 -5.00977 2.68066l-7.68164 4.46582l-7.68164 4.46582
c-2.44922 1.38965 -4.11914 2.48145 -5.00977 3.27539c7.57031 8.33594 16.6992 16.374 27.3867 24.1152s22.1543 14.3906 34.4004 19.9482s24.7148 10.0234 37.4062 13.3975s25.0488 5.06152 37.0723 5.06152c8.90625 0 16.8105 -0.396484 23.7129 -1.19043
s12.6914 -2.48145 17.3672 -5.06152s8.23828 -6.35156 10.6875 -11.3135s3.67383 -11.8096 3.67383 -20.543c0 -1.19043 -0.445312 -3.07617 -1.33594 -5.65625c-0.890625 -2.58105 -3.5625 -7.44434 -8.01562 -14.5898s-11.4668 -17.1689 -21.041 -30.0703
s-23.0449 -30.0703 -40.4121 -51.5068c5.34375 -3.57324 10.5762 -7.74121 15.6973 -12.5049s9.79688 -10.0234 14.0273 -15.7793s7.68164 -11.7109 10.3535 -17.8643s4.00781 -12.4053 4.00781 -18.7568c0 -25.4062 -5.78906 -50.0186 -17.3672 -73.8369
s-27.0527 -44.8574 -46.4238 -63.1182s-41.8594 -32.9492 -67.4648 -44.0645s-52.6582 -16.6729 -81.1582 -16.6729c-15.5859 0 -30.3926 1.98535 -44.4199 5.95508s-26.4961 9.92383 -37.4062 17.8633s-19.5938 17.7646 -26.0508 29.4756
c-6.45703 11.71 -9.68555 25.1074 -9.68555 40.1924zM236 51.0029c0 10 1.16797 18.5 3.50098 25.5s10.166 13.167 23.499 18.5l25 43.5l38.5 66.5l45.5 78l46 78l39.5 66.5c11.667 19.667 20.5 34.167 26.5 43.5c6.66699 11.333 16 25.833 28 43.5s25 35.667 39 54
s28.667 36.166 44 53.499s30 31.666 44 42.999c1.33301 0.666992 4 1.5 8 2.5s6.66699 1.5 8 1.5c0 -10 -4.5 -24.667 -13.5 -44s-20.5 -40.833 -34.5 -64.5s-29.667 -48.5 -47 -74.5l-51 -76l-45.5 -69c-13.667 -21.333 -24.167 -38.666 -31.5 -51.999
c-8 -14 -17.833 -32.833 -29.5 -56.5s-24.5 -48 -38.5 -73s-28.5 -49.333 -43.5 -73s-29.833 -42.5 -44.5 -56.5c-2 -2 -6.33301 -4.66699 -13 -8s-10.667 -5 -12 -5c-4 0 -7.16699 1.5 -9.5 4.5s-3.83301 6.33301 -4.5 10s-1 7.33398 -1 11.001v8.5zM477.596 -1.68066
c10.4043 15.0889 20.5586 32.4971 30.4678 52.2275l28.9834 60.499c9.41309 20.6016 17.96 40.7676 25.6396 60.499l20.4365 52.2285v2.61133c0 1.16113 0.124023 1.88672 0.37207 2.17676c0.24707 0.290039 0.371094 0.725586 0.371094 1.30664
c0 9.28516 -3.83984 15.959 -11.5195 20.0205c-7.67871 4.0625 -16.4727 6.67383 -26.3818 7.83496c-9.90918 1.16016 -19.6943 1.5957 -29.3555 1.30566s-16.4736 -0.435547 -20.4375 -0.435547c-18.8271 0 -33.0713 -3.62695 -42.7324 -10.8809
s-17.4639 -15.2334 -23.4092 -23.9385l-16.7217 -23.9385c-5.20215 -7.25391 -12.7578 -10.8809 -22.667 -10.8809c-6.93652 0 -13.625 2.61133 -20.0654 7.83398c-6.44043 5.22363 -9.66113 12.1875 -9.66113 20.8916c0 4.0625 4.33496 14.5088 13.0059 31.3379
c8.66992 16.8291 19.8174 36.415 33.4414 58.7578l44.9619 70.9443c16.3496 24.9541 32.3281 48.0215 47.9346 69.2031s29.6025 38.5918 41.9883 52.2295s21.3037 20.4561 26.7539 20.4561c0 -16.249 -2.72461 -32.7881 -8.1748 -49.6172
s-12.2627 -33.9482 -20.4375 -51.3584c-8.1748 -17.4092 -17.0928 -34.9639 -26.7539 -52.6641s-18.4551 -35.2549 -26.3818 -52.6641c0 -0.580078 2.60059 -1.30566 7.80273 -2.17578s11.3955 -2.03125 18.5801 -3.48242
c7.18359 -1.4502 14.4912 -2.75586 21.9229 -3.91699s13.625 -2.03125 18.5791 -2.61133h31.2129c0.991211 0 3.34473 -0.290039 7.06055 -0.871094c3.71582 -0.580078 7.67969 -0.580078 11.8916 0c4.21094 0.581055 8.05078 1.74219 11.5186 3.4834
s5.69727 4.93262 6.68848 9.5752c1.48633 4.64258 4.21094 11.752 8.1748 21.3271l13.377 32.208l15.9775 37.4307l16.3496 37.4307l13.749 31.7725l8.91797 20.8916l15.9775 34.3838c4.70703 10.1553 9.78516 18.8604 15.2354 26.1152
c5.4502 7.25391 11.8906 12.7666 19.3223 16.5391s17.0928 5.6582 28.9834 5.6582c0 -4.64258 -2.35352 -13.2021 -7.06055 -25.6797c-4.70605 -12.4766 -10.0322 -25.6787 -15.9775 -39.6074l-17.0928 -39.1709c-5.4502 -12.1865 -8.91797 -20.3115 -10.4043 -24.374
c-0.495117 -4.0625 -2.72461 -10.5908 -6.68848 -19.5859l-13.749 -30.4668l-16.3496 -35.6895c-5.69727 -12.4775 -10.6514 -23.9395 -14.8633 -34.3857c-4.21094 -10.4453 -7.05957 -19.1504 -8.5459 -26.1143s-0.743164 -11.0264 2.22949 -12.1875
c8.42285 0 15.7305 2.32129 21.9238 6.96387c6.19238 4.64258 13.5 6.96387 21.9229 6.96387c5.4502 0 10.7764 -1.16113 15.9785 -3.48242s7.80371 -7.54395 7.80371 -15.668c0 -8.70508 -2.60156 -15.5244 -7.80371 -20.457s-11.7666 -8.99512 -19.6934 -12.1875
s-16.8447 -6.23926 -26.7539 -9.14062s-19.5703 -6.38379 -28.9834 -10.4463c-9.41309 -4.06152 -17.96 -9.57422 -25.6396 -16.5381c-7.67871 -6.96387 -13.252 -15.959 -16.7197 -26.9854l-15.6064 -54.4053c-6.44043 -22.9229 -14.2432 -45.4102 -23.4082 -67.4619
c-9.16602 -22.0518 -20.0654 -41.2021 -32.6992 -57.4512s-27.126 -24.373 -43.4756 -24.373c-4.45898 0 -8.42285 0.435547 -11.8906 1.30566s-5.94531 4.49707 -7.43164 10.8809z" />
    <glyph glyph-name="questiondown" unicode="&#xbf;" horiz-adv-x="457" 
d="M91.3311 396.447c0 -7.01172 3.32031 -11.334 9.96875 -12.9697c6.64941 -1.63574 13.457 -2.4541 20.4229 -2.4541c4.43262 0 10.29 0.467773 17.5723 1.40234s14.0898 2.57031 20.4229 4.90723c6.33203 2.33691 11.5557 5.375 15.6719 9.11426
s5.22461 8.17969 3.3252 13.3213c-2.53223 7.47949 -7.59766 12.5049 -15.1963 15.0762s-14.8809 3.85645 -21.8467 3.85645c-12.0312 0 -23.4297 -3.15527 -34.1943 -9.46582s-16.1465 -13.9062 -16.1465 -22.7881zM164.464 188.201
c0 -25.2422 6.33105 -50.7227 18.9951 -76.4326c12.665 -25.71 28.3369 -50.9521 47.0166 -75.7266c18.6807 -24.7744 38.7852 -48.6143 60.3145 -71.5195l59.8389 -63.8066c0 -0.467773 0.158203 -1.16895 0.475586 -2.10352
c0.316406 -0.93457 0.474609 -1.86914 0.474609 -2.80371c0 -8.41406 -4.90723 -14.374 -14.7227 -17.8799s-19.1553 -5.25879 -28.0195 -5.25879c-15.1973 0 -28.9697 1.98633 -41.3174 5.95996c-12.3486 3.97363 -24.3799 7.59668 -36.0938 10.8691
c-11.7148 3.27246 -23.9043 5.02539 -36.5684 5.25879c-12.665 0.233398 -26.5957 -3.62305 -41.793 -11.5693c0 -0.93457 3.32422 -3.27148 9.97363 -7.01074l23.7451 -12.9717l28.4951 -14.7246c9.81543 -4.9082 17.8887 -8.76465 24.2207 -11.5693
c10.7646 -4.20703 22.7959 -6.77832 36.0938 -7.71289s25.9619 -1.40234 37.9932 -1.40234c26.5947 0 47.8076 3.97363 63.6387 11.9199c15.8301 7.94629 23.7451 22.4375 23.7451 43.4727c-1.89941 13.0889 -8.54785 28.2812 -19.9453 45.5771
s-24.8535 35.6436 -40.3672 55.043l-49.3916 60.3008c-17.4131 20.8018 -32.6104 41.1357 -45.5918 61.002s-22.7959 38.7979 -29.4443 56.7949c-6.64941 17.9971 -6.80762 34.0068 -0.475586 48.0303c-6.33203 2.80469 -11.7139 5.02539 -16.1465 6.66113
s-9.49805 2.4541 -15.1973 2.4541s-9.97363 -1.16895 -12.8232 -3.50586c-2.84863 -2.33691 -4.74805 -5.1416 -5.69824 -8.41406s-1.4248 -6.66113 -1.4248 -10.167v-8.76465z" />
    <glyph glyph-name="Agrave" unicode="&#xc0;" horiz-adv-x="878" 
d="M660 45c0 16.667 1.16602 33.3311 3.49902 49.998s5 33.167 8 49.5s5.66699 33 8 50s3.5 34.167 3.5 51.5c-22 0 -41 -1 -57 -3l-47 -6c-15.333 -2 -31.666 -3.5 -48.999 -4.5s-38.333 -0.833008 -63 0.5c-18 -20 -38.5 -41.333 -61.5 -64s-47.5 -43.667 -73.5 -63
s-53.333 -35.5 -82 -48.5s-57.667 -19.5 -87 -19.5c-20 0 -39.167 3.33301 -57.5 10s-34.5 16 -48.5 28s-25 26.5 -33 43.5s-12 35.833 -12 56.5c0 10.667 1.83301 18.834 5.5 24.501s11.5 8.5 23.5 8.5c6 0 11.333 -5.5 16 -16.5s10.834 -23.333 18.501 -37
s17.5 -26 29.5 -37s28.333 -16.5 49 -16.5c25.333 0 50.166 4.83301 74.499 14.5s47.666 22 69.999 37s43.333 31.833 63 50.5s37.5 37 53.5 55c-2 16.667 -8 29 -18 37l-31.5 24c-11 8 -20.833 18.667 -29.5 32s-13 34.333 -13 63c0 40.667 12.333 72.5 37 95.5
s58.334 34.5 101.001 34.5c12.667 0 25.167 -1.33301 37.5 -4s24.833 -5.83398 37.5 -9.50098s25.167 -6.83398 37.5 -9.50098s24.833 -4 37.5 -4c8 0 14.5 1 19.5 3s9.5 5 13.5 9s8.33301 9.33301 13 16s10.667 14.667 18 24l18.5 25.5l27.5 39l32 45.5l32 46l27 39
c8 11.333 13.667 20 17 26c7.33301 6 14 9.83301 20 11.5s13 2.5 21 2.5s14 -2.83301 18 -8.5s6.5 -12.5 7.5 -20.5s1.33301 -16.167 1 -24.5s-0.5 -14.833 -0.5 -19.5v-9.5c0 -4.33301 -0.166992 -8.83301 -0.5 -13.5s-0.5 -9.16699 -0.5 -13.5v-8.5
c-2 -6.66699 -5.16699 -16.667 -9.5 -30l-14.5 -45.5l-16.5 -53.5l-16 -54l-13.5 -46c-4 -13.333 -6.66699 -23.333 -8 -30c-0.666992 -3.33301 -1.66699 -8.66602 -3 -15.999s-2.66602 -15.166 -3.99902 -23.499s-2.66602 -16.166 -3.99902 -23.499s-2 -12.333 -2 -15
c6 -1.33301 12 -3.33301 18 -6s9 -7 9 -13c0 -6.66699 -2.5 -12 -7.5 -16s-10.833 -7.66699 -17.5 -11s-12.834 -7.33301 -18.501 -12s-8.83398 -11.334 -9.50098 -20.001l-7 -43.5c-3.33301 -21 -7.16602 -43.333 -11.499 -67l-12 -66.5
c-3.66699 -20.667 -6.5 -35 -8.5 -43c-0.666992 -2 -2 -5.66699 -4 -11s-4.33301 -10.666 -7 -15.999s-5.33398 -10.333 -8.00098 -15s-4.66699 -8 -6 -10c-16 3.33301 -29 7.5 -39 12.5s-15 15.833 -15 32.5zM642.999 428.997c-8 0 -19.166 -5.66211 -33.499 -16.9951
s-28.5 -24.5 -42.5 -39.5s-26.333 -30 -37 -45s-16 -26.167 -16 -33.5c4 0 11.833 0.166992 23.5 0.5s24 0.666016 37 0.999023s25.333 0.833008 37 1.5s19.834 1 24.501 1c2.66699 0 6.83398 0.666992 12.501 2l16.5 4c5.33301 1.33301 10.166 2.66602 14.499 3.99902
s6.83301 2.33301 7.5 3c0.666992 0 1 2.16699 1 6.5v10.5c0 5.33301 -0.833008 13.666 -2.5 24.999s-4.33398 22.666 -8.00098 33.999s-8.33398 21.166 -14.001 29.499s-12.5 12.5 -20.5 12.5zM362 428.002c0 -9.33301 3.33105 -19.998 9.99805 -31.998s15 -23.333 25 -34
s20.667 -19.667 32 -27s22 -11 32 -11c9.33301 0 20.333 5.66699 33 17s24.834 24.5 36.501 39.5s21.5 29.5 29.5 43.5s12 23.667 12 29c0 11.333 -3.83301 19.833 -11.5 25.5s-16.667 9.66699 -27 12s-21.166 3.5 -32.499 3.5h-28c-9.33301 0 -20.5 -0.833008 -33.5 -2.5
s-25.167 -4.83398 -36.5 -9.50098s-21 -11.334 -29 -20.001s-12 -20 -12 -34zM661.998 479.004c14.667 -17.333 28.333 -36 41 -56s24.667 -40.333 36 -61l89 320zM776.997 1062c9.33301 -5.33301 20.665 -15.1699 33.998 -29.5029s26.333 -29.833 39 -46.5
s24 -32.667 34 -48s16.333 -26.666 19 -33.999c-1.33301 -8 -7.16602 -9.66699 -17.499 -5s-22.166 12.834 -35.499 24.501s-26.833 25.334 -40.5 41.001s-25 30.667 -34 45s-14 26.5 -15 36.5s4.5 15.333 16.5 16z" />
    <glyph glyph-name="Aacute" unicode="&#xc1;" horiz-adv-x="878" 
d="M660 45c0 16.667 1.16602 33.3311 3.49902 49.998s5 33.167 8 49.5s5.66699 33 8 50s3.5 34.167 3.5 51.5c-22 0 -41 -1 -57 -3l-47 -6c-15.333 -2 -31.666 -3.5 -48.999 -4.5s-38.333 -0.833008 -63 0.5c-18 -20 -38.5 -41.333 -61.5 -64s-47.5 -43.667 -73.5 -63
s-53.333 -35.5 -82 -48.5s-57.667 -19.5 -87 -19.5c-20 0 -39.167 3.33301 -57.5 10s-34.5 16 -48.5 28s-25 26.5 -33 43.5s-12 35.833 -12 56.5c0 10.667 1.83301 18.834 5.5 24.501s11.5 8.5 23.5 8.5c6 0 11.333 -5.5 16 -16.5s10.834 -23.333 18.501 -37
s17.5 -26 29.5 -37s28.333 -16.5 49 -16.5c25.333 0 50.166 4.83301 74.499 14.5s47.666 22 69.999 37s43.333 31.833 63 50.5s37.5 37 53.5 55c-2 16.667 -8 29 -18 37l-31.5 24c-11 8 -20.833 18.667 -29.5 32s-13 34.333 -13 63c0 40.667 12.333 72.5 37 95.5
s58.334 34.5 101.001 34.5c12.667 0 25.167 -1.33301 37.5 -4s24.833 -5.83398 37.5 -9.50098s25.167 -6.83398 37.5 -9.50098s24.833 -4 37.5 -4c8 0 14.5 1 19.5 3s9.5 5 13.5 9s8.33301 9.33301 13 16s10.667 14.667 18 24l18.5 25.5l27.5 39l32 45.5l32 46l27 39
c8 11.333 13.667 20 17 26c7.33301 6 14 9.83301 20 11.5s13 2.5 21 2.5s14 -2.83301 18 -8.5s6.5 -12.5 7.5 -20.5s1.33301 -16.167 1 -24.5s-0.5 -14.833 -0.5 -19.5v-9.5c0 -4.33301 -0.166992 -8.83301 -0.5 -13.5s-0.5 -9.16699 -0.5 -13.5v-8.5
c-2 -6.66699 -5.16699 -16.667 -9.5 -30l-14.5 -45.5l-16.5 -53.5l-16 -54l-13.5 -46c-4 -13.333 -6.66699 -23.333 -8 -30c-0.666992 -3.33301 -1.66699 -8.66602 -3 -15.999s-2.66602 -15.166 -3.99902 -23.499s-2.66602 -16.166 -3.99902 -23.499s-2 -12.333 -2 -15
c6 -1.33301 12 -3.33301 18 -6s9 -7 9 -13c0 -6.66699 -2.5 -12 -7.5 -16s-10.833 -7.66699 -17.5 -11s-12.834 -7.33301 -18.501 -12s-8.83398 -11.334 -9.50098 -20.001l-7 -43.5c-3.33301 -21 -7.16602 -43.333 -11.499 -67l-12 -66.5
c-3.66699 -20.667 -6.5 -35 -8.5 -43c-0.666992 -2 -2 -5.66699 -4 -11s-4.33301 -10.666 -7 -15.999s-5.33398 -10.333 -8.00098 -15s-4.66699 -8 -6 -10c-16 3.33301 -29 7.5 -39 12.5s-15 15.833 -15 32.5zM642.999 428.997c-8 0 -19.166 -5.66211 -33.499 -16.9951
s-28.5 -24.5 -42.5 -39.5s-26.333 -30 -37 -45s-16 -26.167 -16 -33.5c4 0 11.833 0.166992 23.5 0.5s24 0.666016 37 0.999023s25.333 0.833008 37 1.5s19.834 1 24.501 1c2.66699 0 6.83398 0.666992 12.501 2l16.5 4c5.33301 1.33301 10.166 2.66602 14.499 3.99902
s6.83301 2.33301 7.5 3c0.666992 0 1 2.16699 1 6.5v10.5c0 5.33301 -0.833008 13.666 -2.5 24.999s-4.33398 22.666 -8.00098 33.999s-8.33398 21.166 -14.001 29.499s-12.5 12.5 -20.5 12.5zM362 428.002c0 -9.33301 3.33105 -19.998 9.99805 -31.998s15 -23.333 25 -34
s20.667 -19.667 32 -27s22 -11 32 -11c9.33301 0 20.333 5.66699 33 17s24.834 24.5 36.501 39.5s21.5 29.5 29.5 43.5s12 23.667 12 29c0 11.333 -3.83301 19.833 -11.5 25.5s-16.667 9.66699 -27 12s-21.166 3.5 -32.499 3.5h-28c-9.33301 0 -20.5 -0.833008 -33.5 -2.5
s-25.167 -4.83398 -36.5 -9.50098s-21 -11.334 -29 -20.001s-12 -20 -12 -34zM661.998 479.004c14.667 -17.333 28.333 -36 41 -56s24.667 -40.333 36 -61l89 320zM936.997 1055c11.333 -0.666992 16.335 -6.16797 15.002 -16.501s-6.16602 -22.666 -14.499 -36.999
s-18.833 -29.5 -31.5 -45.5s-25.334 -29.833 -38.001 -41.5s-23.834 -19.834 -33.501 -24.501s-15.167 -3 -16.5 5c2.66699 6.66699 8.66699 18 18 34s20 32.5 32 49.5s24.167 32.833 36.5 47.5s23.166 24.334 32.499 29.001z" />
    <glyph glyph-name="Acircumflex" unicode="&#xc2;" horiz-adv-x="878" 
d="M660 45c0 16.667 1.16602 33.3311 3.49902 49.998s5 33.167 8 49.5s5.66699 33 8 50s3.5 34.167 3.5 51.5c-22 0 -41 -1 -57 -3l-47 -6c-15.333 -2 -31.666 -3.5 -48.999 -4.5s-38.333 -0.833008 -63 0.5c-18 -20 -38.5 -41.333 -61.5 -64s-47.5 -43.667 -73.5 -63
s-53.333 -35.5 -82 -48.5s-57.667 -19.5 -87 -19.5c-20 0 -39.167 3.33301 -57.5 10s-34.5 16 -48.5 28s-25 26.5 -33 43.5s-12 35.833 -12 56.5c0 10.667 1.83301 18.834 5.5 24.501s11.5 8.5 23.5 8.5c6 0 11.333 -5.5 16 -16.5s10.834 -23.333 18.501 -37
s17.5 -26 29.5 -37s28.333 -16.5 49 -16.5c25.333 0 50.166 4.83301 74.499 14.5s47.666 22 69.999 37s43.333 31.833 63 50.5s37.5 37 53.5 55c-2 16.667 -8 29 -18 37l-31.5 24c-11 8 -20.833 18.667 -29.5 32s-13 34.333 -13 63c0 40.667 12.333 72.5 37 95.5
s58.334 34.5 101.001 34.5c12.667 0 25.167 -1.33301 37.5 -4s24.833 -5.83398 37.5 -9.50098s25.167 -6.83398 37.5 -9.50098s24.833 -4 37.5 -4c8 0 14.5 1 19.5 3s9.5 5 13.5 9s8.33301 9.33301 13 16s10.667 14.667 18 24l18.5 25.5l27.5 39l32 45.5l32 46l27 39
c8 11.333 13.667 20 17 26c7.33301 6 14 9.83301 20 11.5s13 2.5 21 2.5s14 -2.83301 18 -8.5s6.5 -12.5 7.5 -20.5s1.33301 -16.167 1 -24.5s-0.5 -14.833 -0.5 -19.5v-9.5c0 -4.33301 -0.166992 -8.83301 -0.5 -13.5s-0.5 -9.16699 -0.5 -13.5v-8.5
c-2 -6.66699 -5.16699 -16.667 -9.5 -30l-14.5 -45.5l-16.5 -53.5l-16 -54l-13.5 -46c-4 -13.333 -6.66699 -23.333 -8 -30c-0.666992 -3.33301 -1.66699 -8.66602 -3 -15.999s-2.66602 -15.166 -3.99902 -23.499s-2.66602 -16.166 -3.99902 -23.499s-2 -12.333 -2 -15
c6 -1.33301 12 -3.33301 18 -6s9 -7 9 -13c0 -6.66699 -2.5 -12 -7.5 -16s-10.833 -7.66699 -17.5 -11s-12.834 -7.33301 -18.501 -12s-8.83398 -11.334 -9.50098 -20.001l-7 -43.5c-3.33301 -21 -7.16602 -43.333 -11.499 -67l-12 -66.5
c-3.66699 -20.667 -6.5 -35 -8.5 -43c-0.666992 -2 -2 -5.66699 -4 -11s-4.33301 -10.666 -7 -15.999s-5.33398 -10.333 -8.00098 -15s-4.66699 -8 -6 -10c-16 3.33301 -29 7.5 -39 12.5s-15 15.833 -15 32.5zM642.999 428.997c-8 0 -19.166 -5.66211 -33.499 -16.9951
s-28.5 -24.5 -42.5 -39.5s-26.333 -30 -37 -45s-16 -26.167 -16 -33.5c4 0 11.833 0.166992 23.5 0.5s24 0.666016 37 0.999023s25.333 0.833008 37 1.5s19.834 1 24.501 1c2.66699 0 6.83398 0.666992 12.501 2l16.5 4c5.33301 1.33301 10.166 2.66602 14.499 3.99902
s6.83301 2.33301 7.5 3c0.666992 0 1 2.16699 1 6.5v10.5c0 5.33301 -0.833008 13.666 -2.5 24.999s-4.33398 22.666 -8.00098 33.999s-8.33398 21.166 -14.001 29.499s-12.5 12.5 -20.5 12.5zM362 428.002c0 -9.33301 3.33105 -19.998 9.99805 -31.998s15 -23.333 25 -34
s20.667 -19.667 32 -27s22 -11 32 -11c9.33301 0 20.333 5.66699 33 17s24.834 24.5 36.501 39.5s21.5 29.5 29.5 43.5s12 23.667 12 29c0 11.333 -3.83301 19.833 -11.5 25.5s-16.667 9.66699 -27 12s-21.166 3.5 -32.499 3.5h-28c-9.33301 0 -20.5 -0.833008 -33.5 -2.5
s-25.167 -4.83398 -36.5 -9.50098s-21 -11.334 -29 -20.001s-12 -20 -12 -34zM661.998 479.004c14.667 -17.333 28.333 -36 41 -56s24.667 -40.333 36 -61l89 320zM648.997 871.004c0 5.33301 3.16504 13.832 9.49805 25.499s14.5 24.667 24.5 39s21.167 29 33.5 44
s24.333 28.5 36 40.5s22.5 22 32.5 30s17.667 12 23 12c10.667 0 21.834 -3.33301 33.501 -10s23.334 -15.5 35.001 -26.5s22.834 -23 33.501 -36s20 -26 28 -39s14.5 -25 19.5 -36s7.5 -19.5 7.5 -25.5c-0.666992 -14 -4.5 -20.333 -11.5 -19s-15.5 7 -25.5 17
s-20.667 22.5 -32 37.5l-32 43c-10 13.667 -18.667 24.5 -26 32.5s-11.666 10 -12.999 6c-4.66699 0 -7.83398 -0.666992 -9.50098 -2s-4.16699 -3.66602 -7.5 -6.99902c-14 -6 -26.833 -14.667 -38.5 -26s-22.167 -23.333 -31.5 -36s-18 -25 -26 -37
s-15.5 -21.667 -22.5 -29s-13.833 -11.333 -20.5 -12s-13.334 4 -20.001 14z" />
    <glyph glyph-name="Atilde" unicode="&#xc3;" horiz-adv-x="878" 
d="M660 45c0 16.667 1.16602 33.3311 3.49902 49.998s5 33.167 8 49.5s5.66699 33 8 50s3.5 34.167 3.5 51.5c-22 0 -41 -1 -57 -3l-47 -6c-15.333 -2 -31.666 -3.5 -48.999 -4.5s-38.333 -0.833008 -63 0.5c-18 -20 -38.5 -41.333 -61.5 -64s-47.5 -43.667 -73.5 -63
s-53.333 -35.5 -82 -48.5s-57.667 -19.5 -87 -19.5c-20 0 -39.167 3.33301 -57.5 10s-34.5 16 -48.5 28s-25 26.5 -33 43.5s-12 35.833 -12 56.5c0 10.667 1.83301 18.834 5.5 24.501s11.5 8.5 23.5 8.5c6 0 11.333 -5.5 16 -16.5s10.834 -23.333 18.501 -37
s17.5 -26 29.5 -37s28.333 -16.5 49 -16.5c25.333 0 50.166 4.83301 74.499 14.5s47.666 22 69.999 37s43.333 31.833 63 50.5s37.5 37 53.5 55c-2 16.667 -8 29 -18 37l-31.5 24c-11 8 -20.833 18.667 -29.5 32s-13 34.333 -13 63c0 40.667 12.333 72.5 37 95.5
s58.334 34.5 101.001 34.5c12.667 0 25.167 -1.33301 37.5 -4s24.833 -5.83398 37.5 -9.50098s25.167 -6.83398 37.5 -9.50098s24.833 -4 37.5 -4c8 0 14.5 1 19.5 3s9.5 5 13.5 9s8.33301 9.33301 13 16s10.667 14.667 18 24l18.5 25.5l27.5 39l32 45.5l32 46l27 39
c8 11.333 13.667 20 17 26c7.33301 6 14 9.83301 20 11.5s13 2.5 21 2.5s14 -2.83301 18 -8.5s6.5 -12.5 7.5 -20.5s1.33301 -16.167 1 -24.5s-0.5 -14.833 -0.5 -19.5v-9.5c0 -4.33301 -0.166992 -8.83301 -0.5 -13.5s-0.5 -9.16699 -0.5 -13.5v-8.5
c-2 -6.66699 -5.16699 -16.667 -9.5 -30l-14.5 -45.5l-16.5 -53.5l-16 -54l-13.5 -46c-4 -13.333 -6.66699 -23.333 -8 -30c-0.666992 -3.33301 -1.66699 -8.66602 -3 -15.999s-2.66602 -15.166 -3.99902 -23.499s-2.66602 -16.166 -3.99902 -23.499s-2 -12.333 -2 -15
c6 -1.33301 12 -3.33301 18 -6s9 -7 9 -13c0 -6.66699 -2.5 -12 -7.5 -16s-10.833 -7.66699 -17.5 -11s-12.834 -7.33301 -18.501 -12s-8.83398 -11.334 -9.50098 -20.001l-7 -43.5c-3.33301 -21 -7.16602 -43.333 -11.499 -67l-12 -66.5
c-3.66699 -20.667 -6.5 -35 -8.5 -43c-0.666992 -2 -2 -5.66699 -4 -11s-4.33301 -10.666 -7 -15.999s-5.33398 -10.333 -8.00098 -15s-4.66699 -8 -6 -10c-16 3.33301 -29 7.5 -39 12.5s-15 15.833 -15 32.5zM642.999 428.997c-8 0 -19.166 -5.66211 -33.499 -16.9951
s-28.5 -24.5 -42.5 -39.5s-26.333 -30 -37 -45s-16 -26.167 -16 -33.5c4 0 11.833 0.166992 23.5 0.5s24 0.666016 37 0.999023s25.333 0.833008 37 1.5s19.834 1 24.501 1c2.66699 0 6.83398 0.666992 12.501 2l16.5 4c5.33301 1.33301 10.166 2.66602 14.499 3.99902
s6.83301 2.33301 7.5 3c0.666992 0 1 2.16699 1 6.5v10.5c0 5.33301 -0.833008 13.666 -2.5 24.999s-4.33398 22.666 -8.00098 33.999s-8.33398 21.166 -14.001 29.499s-12.5 12.5 -20.5 12.5zM362 428.002c0 -9.33301 3.33105 -19.998 9.99805 -31.998s15 -23.333 25 -34
s20.667 -19.667 32 -27s22 -11 32 -11c9.33301 0 20.333 5.66699 33 17s24.834 24.5 36.501 39.5s21.5 29.5 29.5 43.5s12 23.667 12 29c0 11.333 -3.83301 19.833 -11.5 25.5s-16.667 9.66699 -27 12s-21.166 3.5 -32.499 3.5h-28c-9.33301 0 -20.5 -0.833008 -33.5 -2.5
s-25.167 -4.83398 -36.5 -9.50098s-21 -11.334 -29 -20.001s-12 -20 -12 -34zM661.998 479.004c14.667 -17.333 28.333 -36 41 -56s24.667 -40.333 36 -61l89 320zM950.997 928.004c-15.333 -1.33301 -28.5 0.499023 -39.5 5.49902s-21.333 11.5 -31 19.5s-19 16.5 -28 25.5
s-19 16.833 -30 23.5s-23.667 11.167 -38 13.5s-31.166 0.833008 -50.499 -4.5c-1.33301 0 -4.66602 -0.666992 -9.99902 -2l-16.5 -4c-5.66699 -1.33301 -11 -2.66602 -16 -3.99902s-8.16699 -2 -9.5 -2c-5.33301 0 -9 2.33301 -11 7s-3 9 -3 13
c0 5.33301 4.66699 11.333 14 18s20 13 32 19s23.667 11 35 15s19 6 23 6c20.667 0 38.167 -4.83301 52.5 -14.5s28 -20.167 41 -31.5s27 -21.833 42 -31.5s33.5 -14.5 55.5 -14.5c28 0 48.833 3.66699 62.5 11s23.667 15.5 30 24.5s10.5 17.333 12.5 25
s5.66699 11.5 11 11.5c7.33301 0 15 -1 23 -3s12 -8 12 -18c-4.66699 -19.333 -12.167 -35 -22.5 -47s-22.833 -22 -37.5 -30s-30.834 -14.167 -48.501 -18.5s-35.834 -8.5 -54.501 -12.5z" />
    <glyph glyph-name="Adieresis" unicode="&#xc4;" horiz-adv-x="878" 
d="M660 45c0 16.667 1.16602 33.3311 3.49902 49.998s5 33.167 8 49.5s5.66699 33 8 50s3.5 34.167 3.5 51.5c-22 0 -41 -1 -57 -3l-47 -6c-15.333 -2 -31.666 -3.5 -48.999 -4.5s-38.333 -0.833008 -63 0.5c-18 -20 -38.5 -41.333 -61.5 -64s-47.5 -43.667 -73.5 -63
s-53.333 -35.5 -82 -48.5s-57.667 -19.5 -87 -19.5c-20 0 -39.167 3.33301 -57.5 10s-34.5 16 -48.5 28s-25 26.5 -33 43.5s-12 35.833 -12 56.5c0 10.667 1.83301 18.834 5.5 24.501s11.5 8.5 23.5 8.5c6 0 11.333 -5.5 16 -16.5s10.834 -23.333 18.501 -37
s17.5 -26 29.5 -37s28.333 -16.5 49 -16.5c25.333 0 50.166 4.83301 74.499 14.5s47.666 22 69.999 37s43.333 31.833 63 50.5s37.5 37 53.5 55c-2 16.667 -8 29 -18 37l-31.5 24c-11 8 -20.833 18.667 -29.5 32s-13 34.333 -13 63c0 40.667 12.333 72.5 37 95.5
s58.334 34.5 101.001 34.5c12.667 0 25.167 -1.33301 37.5 -4s24.833 -5.83398 37.5 -9.50098s25.167 -6.83398 37.5 -9.50098s24.833 -4 37.5 -4c8 0 14.5 1 19.5 3s9.5 5 13.5 9s8.33301 9.33301 13 16s10.667 14.667 18 24l18.5 25.5l27.5 39l32 45.5l32 46l27 39
c8 11.333 13.667 20 17 26c7.33301 6 14 9.83301 20 11.5s13 2.5 21 2.5s14 -2.83301 18 -8.5s6.5 -12.5 7.5 -20.5s1.33301 -16.167 1 -24.5s-0.5 -14.833 -0.5 -19.5v-9.5c0 -4.33301 -0.166992 -8.83301 -0.5 -13.5s-0.5 -9.16699 -0.5 -13.5v-8.5
c-2 -6.66699 -5.16699 -16.667 -9.5 -30l-14.5 -45.5l-16.5 -53.5l-16 -54l-13.5 -46c-4 -13.333 -6.66699 -23.333 -8 -30c-0.666992 -3.33301 -1.66699 -8.66602 -3 -15.999s-2.66602 -15.166 -3.99902 -23.499s-2.66602 -16.166 -3.99902 -23.499s-2 -12.333 -2 -15
c6 -1.33301 12 -3.33301 18 -6s9 -7 9 -13c0 -6.66699 -2.5 -12 -7.5 -16s-10.833 -7.66699 -17.5 -11s-12.834 -7.33301 -18.501 -12s-8.83398 -11.334 -9.50098 -20.001l-7 -43.5c-3.33301 -21 -7.16602 -43.333 -11.499 -67l-12 -66.5
c-3.66699 -20.667 -6.5 -35 -8.5 -43c-0.666992 -2 -2 -5.66699 -4 -11s-4.33301 -10.666 -7 -15.999s-5.33398 -10.333 -8.00098 -15s-4.66699 -8 -6 -10c-16 3.33301 -29 7.5 -39 12.5s-15 15.833 -15 32.5zM642.999 428.997c-8 0 -19.166 -5.66211 -33.499 -16.9951
s-28.5 -24.5 -42.5 -39.5s-26.333 -30 -37 -45s-16 -26.167 -16 -33.5c4 0 11.833 0.166992 23.5 0.5s24 0.666016 37 0.999023s25.333 0.833008 37 1.5s19.834 1 24.501 1c2.66699 0 6.83398 0.666992 12.501 2l16.5 4c5.33301 1.33301 10.166 2.66602 14.499 3.99902
s6.83301 2.33301 7.5 3c0.666992 0 1 2.16699 1 6.5v10.5c0 5.33301 -0.833008 13.666 -2.5 24.999s-4.33398 22.666 -8.00098 33.999s-8.33398 21.166 -14.001 29.499s-12.5 12.5 -20.5 12.5zM362 428.002c0 -9.33301 3.33105 -19.998 9.99805 -31.998s15 -23.333 25 -34
s20.667 -19.667 32 -27s22 -11 32 -11c9.33301 0 20.333 5.66699 33 17s24.834 24.5 36.501 39.5s21.5 29.5 29.5 43.5s12 23.667 12 29c0 11.333 -3.83301 19.833 -11.5 25.5s-16.667 9.66699 -27 12s-21.166 3.5 -32.499 3.5h-28c-9.33301 0 -20.5 -0.833008 -33.5 -2.5
s-25.167 -4.83398 -36.5 -9.50098s-21 -11.334 -29 -20.001s-12 -20 -12 -34zM661.998 479.004c14.667 -17.333 28.333 -36 41 -56s24.667 -40.333 36 -61l89 320zM795.997 887.004c-18 0 -29.499 3.16797 -34.499 9.50098s-5.66699 13.5 -2 21.5s10 16 19 24
s18.167 13.833 27.5 17.5s17.666 4 24.999 1s11 -11.5 11 -25.5c0 -14.667 -4.16699 -26.334 -12.5 -35.001s-19.5 -13 -33.5 -13zM966.998 894.005c-18 0 -29.499 3.16797 -34.499 9.50098s-5.66699 13.5 -2 21.5s10 16 19 24s18.167 13.833 27.5 17.5s17.666 4 24.999 1
s11 -11.5 11 -25.5c0 -14.667 -4.16699 -26.334 -12.5 -35.001s-19.5 -13 -33.5 -13z" />
    <glyph glyph-name="Aring" unicode="&#xc5;" horiz-adv-x="878" 
d="M781 838c0 1.33301 0.166992 5.16406 0.5 11.4971s0.5 10.166 0.5 11.499c16.667 36.667 37.834 70.334 63.501 101.001s55.167 58 88.5 82c0.666992 0 2.16699 0.166992 4.5 0.5s4.16602 0.5 5.49902 0.5c13.333 0 24.5 -2.83301 33.5 -8.5s16.333 -13 22 -22
s9.66699 -19 12 -30s3.5 -21.833 3.5 -32.5c0 -19.333 -4.66699 -39.5 -14 -60.5s-21.833 -40.167 -37.5 -57.5s-33.834 -31.666 -54.501 -42.999c-4.66699 -2.66699 -9.66699 -5.33398 -15 -8.00098c0.666992 -2 1 -4.33301 1 -7c1.33301 -8 1.83301 -16.167 1.5 -24.5
s-0.5 -14.833 -0.5 -19.5v-10c0 -4 -0.166992 -8.33301 -0.5 -13s-0.5 -9.33398 -0.5 -14.001v-8c-2 -6.66699 -5.16699 -16.667 -9.5 -30l-14.5 -45.5l-16.5 -53.5l-16 -54l-13.5 -46c-4 -13.333 -6.66699 -23.333 -8 -30c-0.666992 -3.33301 -1.66699 -8.66602 -3 -15.999
s-2.66602 -15.166 -3.99902 -23.499s-2.66602 -16.166 -3.99902 -23.499s-2 -12.333 -2 -15c6 -1.33301 12 -3.33301 18 -6s9 -7 9 -13c0 -6.66699 -2.5 -12 -7.5 -16s-10.833 -7.66699 -17.5 -11s-12.834 -7.33301 -18.501 -12s-8.83398 -11.334 -9.50098 -20.001l-7 -43.5
c-3.33301 -21 -7.16602 -43.333 -11.499 -67l-12 -66.5c-3.66699 -20.667 -6.5 -35 -8.5 -43c-0.666992 -2 -2 -5.66699 -4 -11s-4.33301 -10.666 -7 -15.999s-5.33398 -10.333 -8.00098 -15s-4.66699 -8 -6 -10c-16 3.33301 -29 7.5 -39 12.5s-15 15.833 -15 32.5
s1.16699 33.334 3.5 50.001s5 33.167 8 49.5s5.66699 33 8 50s3.5 34.167 3.5 51.5c-22 0 -41 -1 -57 -3l-47 -6c-15.333 -2 -31.666 -3.5 -48.999 -4.5s-38.333 -0.833008 -63 0.5c-18 -20 -38.5 -41.333 -61.5 -64s-47.5 -43.667 -73.5 -63s-53.333 -35.5 -82 -48.5
s-57.667 -19.5 -87 -19.5c-20 0 -39.167 3.33301 -57.5 10s-34.5 16 -48.5 28s-25 26.5 -33 43.5s-12 35.833 -12 56.5c0 10.667 1.83301 18.834 5.5 24.501s11.5 8.5 23.5 8.5c6 0 11.333 -5.5 16 -16.5s10.834 -23.333 18.501 -37s17.5 -26 29.5 -37
s28.333 -16.5 49 -16.5c25.333 0 50.166 4.83301 74.499 14.5s47.666 22 69.999 37s43.333 31.833 63 50.5s37.5 37 53.5 55c-2 16.667 -8 29 -18 37l-31.5 24c-11 8 -20.833 18.667 -29.5 32s-13 34.333 -13 63c0 40.667 12.333 72.5 37 95.5s58.334 34.5 101.001 34.5
c12.667 0 25.167 -1.33301 37.5 -4s24.833 -5.83398 37.5 -9.50098s25.167 -6.83398 37.5 -9.50098s24.833 -4 37.5 -4c8 0 14.5 1 19.5 3s9.5 5 13.5 9s8.33301 9.33301 13 16s10.667 14.667 18 24l18.5 25.5l27.5 39l32 45.5l32 46l27 39l8 12
c-9.33301 2.66699 -17 7.33398 -23 14.001c-10.667 11.333 -16 27 -16 47zM362 427.998c0 -9.33301 3.33105 -19.998 9.99805 -31.998s15 -23.333 25 -34s20.667 -19.667 32 -27s22 -11 32 -11c9.33301 0 20.333 5.66699 33 17s24.834 24.5 36.501 39.5s21.5 29.5 29.5 43.5
s12 23.667 12 29c0 11.333 -3.83301 19.833 -11.5 25.5s-16.667 9.66699 -27 12s-21.166 3.5 -32.499 3.5h-28c-9.33301 0 -20.5 -0.833008 -33.5 -2.5s-25.167 -4.83398 -36.5 -9.50098s-21 -11.334 -29 -20.001s-12 -20 -12 -34zM661.998 479
c14.667 -17.333 28.333 -36 41 -56s24.667 -40.333 36 -61l89 320zM642.997 429c-8 0 -19.166 -5.66211 -33.499 -16.9951s-28.5 -24.5 -42.5 -39.5s-26.333 -30 -37 -45s-16 -26.167 -16 -33.5c4 0 11.833 0.166992 23.5 0.5s24 0.666016 37 0.999023
s25.333 0.833008 37 1.5s19.834 1 24.501 1c2.66699 0 6.83398 0.666992 12.501 2l16.5 4c5.33301 1.33301 10.166 2.66602 14.499 3.99902s6.83301 2.33301 7.5 3c0.666992 0 1 2 1 6v11c0 5.33301 -0.833008 13.666 -2.5 24.999s-4.33398 22.666 -8.00098 33.999
s-8.33398 21.166 -14.001 29.499s-12.5 12.5 -20.5 12.5zM841.998 847.005c0 -5.33301 2.16406 -9.33398 6.49707 -12.001s8.83301 -4 13.5 -4c12.667 0 25.334 3.33301 38.001 10s23.667 15.167 33 25.5s17 21.833 23 34.5s9 24.667 9 36c0 5.33301 -0.333008 11.333 -1 18
s-2.5 12.667 -5.5 18s-7.16699 9.33301 -12.5 12s-13 3 -23 1c-7.33301 -1.33301 -15.666 -7.66602 -24.999 -18.999s-18.166 -24.5 -26.499 -39.5s-15.333 -30 -21 -45s-8.5 -26.833 -8.5 -35.5z" />
    </font>
</defs>
</svg>
